<svg id="Layer_1" data-name="Layer 1" xmlns="http://www.w3.org/2000/svg" viewBox="0 0 713 693"><defs><style>.cls-1{fill:#13132d;}.cls-2{fill:#a5d6d7;}.cls-3{fill:#ff5d47;}</style></defs><path class="cls-1" d="M520.32,565c-9.07,0-19.34-6-19.85-6.34C433.45,521,387.18,468.22,363,401.87l-4.17-9c-2,1.26-2.5,5.16-2.5,6.71l2.49,65.54a2.36,2.36,0,0,1-4.68.47c-3.48-20.46-9.46-65.2-8.81-75.07.84-12.57,6.51-16.17,8.87-17.13-1.58-6.21-2.15-9.28-3.29-15.5a9.94,9.94,0,0,0-6.21,5.58A25.46,25.46,0,0,0,343,369.7l-3.43,67a2.8,2.8,0,0,1-2.82,2.15c-.93-.06-2.48-.7-2.48-4.28,0-5.55-.34-14.89-.73-25.7-.78-21.8-1.76-48.93-.25-56.49,2.62-13.1,10.83-17,13.57-17.91-.72-5.93-1.13-12-1.52-17.82a12.59,12.59,0,0,0-9.2,6.42c-4.56,8-9.41,39.86-10.36,68.22a2.5,2.5,0,0,1-2.52,2.46h0a2.48,2.48,0,0,1-2.54-2.41,567.6,567.6,0,0,1,.59-67.85c1.8-22.54,18.89-27.79,23-28.73-.39-21,1.34-36.18,4.45-55.22A206.94,206.94,0,0,1,368.47,179c7.14-13.91,13.35-21.6,13.41-21.67,11.27-16.48,28-5.34,28.13-5.22l.91.62-.71.85c-.31.38-32,38.61-38.84,91.3-2.21,17-3.43,30.11-3.09,46.63,3.83-.27,16.39-.41,20.92,8.65l22.63,51.26a2.29,2.29,0,0,1-3.9,2.36l-25.42-37.57c-.43-.49-4.74-5.05-13.16-2.86a47.23,47.23,0,0,0,1,7.5c.29,1.41.64,3.16,1.08,6.16l.67,3.39A17.82,17.82,0,0,1,390.13,337L424,387a2.16,2.16,0,0,1-1,2.87,1.87,1.87,0,0,1-2.52-.59c-1.65-1.76-35.61-37.6-35.95-38-3.59-4.3-7.67-2.9-9.16-2.17.21,1.05.39,2,.56,2.84a102.57,102.57,0,0,0,3,12.41c13-3.3,21.07,8.55,21.15,8.68l35.39,57.31a2.26,2.26,0,0,1-.56,3.14,3.24,3.24,0,0,1-4.18-.85c-5.23-6.11-14.81-17.74-23.25-28-8.16-9.91-15.87-19.27-16.94-20.34a3.81,3.81,0,0,0-5-.79c26.27,66.33,82.49,116.41,167.09,148.85l.61.24,0,.66a15.63,15.63,0,0,1-4,10.58c-2.81,2.93-6.87,4.41-12.07,4.41-.58,0-15.78.81-38.9-6.87L473.9,530.49a10.27,10.27,0,0,1-5-5.79c-.67-2.4-.16-5,1.51-7.66l.49-.77,12.81,6.41-.9,1.79-11.15-5.58a7,7,0,0,0-.83,5.25,8.31,8.31,0,0,0,3.88,4.54l24.33,10.82c22.63,7.51,38,6.74,38.12,6.73,4.68,0,8.25-1.27,10.67-3.78a13.58,13.58,0,0,0,3.45-8.49c-85.09-32.78-141.57-83.4-167.87-150.46l-.25-.64.52-.47a5.85,5.85,0,0,1,8.29.48c1.14,1.13,8.52,10.1,17.06,20.47s18,21.88,23.23,28a1.32,1.32,0,0,0,1.55.49c.12-.08,0-.34-.07-.49L398.45,374.1c-.29-.44-7.74-11.3-19.85-7.57l-1,.29-.3-1A106.92,106.92,0,0,1,374,352.32c-.21-1-.43-2.2-.7-3.55l-.13-.66.56-.37c.06,0,6.81-4.42,12.32,2.19,32.25,34,35.64,37.62,36.06,38.11a.43.43,0,0,0,.11-.12l-33.77-49.79c-.23-.34-5.78-8.37-16.93-5.59l-1,.26-1.08-5.48c-.44-3-.79-4.72-1.07-6.11a52,52,0,0,1-1.07-8.57l-.05-.8.76-.22c10.51-3.16,15.84,3.05,16.06,3.31l25.49,37.66a.24.24,0,0,0,.35,0,.25.25,0,0,0,.11-.37L387.39,301c-4.61-9.22-19.81-7.43-20-7.41l-1.1.13,0-1.1c-.42-17.15.82-30.59,3.09-48,6.36-48.79,33.75-85.32,38.57-91.43-3.45-2-15.64-7.59-24.48,5.33-.11.15-6.21,7.71-13.26,21.46a204.85,204.85,0,0,0-19.51,59.91c-3.13,19.18-4.86,34.44-4.41,55.69l0,.89-.88.12c-.82.12-20.23,3.22-22.14,27.09a565.39,565.39,0,0,0-.58,67.59.47.47,0,0,0,.55.51.51.51,0,0,0,.54-.53c.87-26,5.35-59.92,10.62-69.14a14.43,14.43,0,0,1,11.87-7.51h.94l.09,1.36c.41,6.28.84,12.79,1.64,19.14l.12.9-.89.2c-.41.09-10.09,2.47-12.92,16.6-1.46,7.33-.49,34.33.29,56,.39,10.83.73,20.18.73,25.77,0,1.75.43,2.24.57,2.27s.62-.21.74-.38L341,369.52a27.14,27.14,0,0,1,1.82-6.9,12,12,0,0,1,7.1-6.55c1.58-.51,2.07-.23,2.23-.14l.41.23.2,1.11c1.22,6.64,1.78,9.67,3.54,16.52l.27,1-1.05.19c-.29.06-7.33,1.68-8.26,15.62-.65,9.74,5.31,54.22,8.79,74.61a.31.31,0,0,0,.38.29.31.31,0,0,0,.32-.36l-2.49-65.57c0-.35.06-7.83,4.76-9l.8-.2,4.95,10.71c24.08,66,70.05,118.37,136.66,155.85.16.1,14,8.22,22.91,5.53a9,9,0,0,0,5.35-4.16l-21.32-9.06.78-1.84,23.29,9.9-.46.94a11.19,11.19,0,0,1-7.07,6.14A16.13,16.13,0,0,1,520.32,565Z"/><path class="cls-2" d="M510.22,530.61c-4.57-2.18-9.09-4.46-13.44-6.78l1.41-2.65c4.31,2.3,8.79,4.56,13.32,6.72Zm-26.57-14.15c-4.34-2.57-8.64-5.25-12.77-8l1.65-2.5c4.09,2.71,8.35,5.37,12.64,7.91Zm-25.12-16.62c-4.06-3-8-6.11-11.87-9.28l1.91-2.31c3.78,3.13,7.73,6.22,11.74,9.18Zm-23.2-19.23c-3.68-3.43-7.28-7-10.71-10.61l2.18-2.07c3.38,3.57,6.94,7.09,10.58,10.48Zm-20.74-21.87c-3.22-3.85-6.35-7.85-9.3-11.88l2.42-1.77c2.91,4,6,7.92,9.18,11.72ZM396.78,434.4c-2.68-4.22-5.26-8.59-7.67-13l2.63-1.44c2.38,4.34,4.93,8.65,7.58,12.82ZM382.3,407.94c-2.1-4.51-4.1-9.18-5.93-13.87l2.79-1.09c1.81,4.63,3.78,9.24,5.86,13.7Zm-11-28.08c-1.52-4.73-2.93-9.6-4.19-14.49l2.9-.75c1.25,4.83,2.64,9.65,4.15,14.32Zm-7.54-29.19c-1-4.87-1.82-9.87-2.54-14.87l3-.42c.71,4.94,1.56,9.89,2.51,14.7Zm-4.31-29.84c-.45-4.93-.8-10-1-15l3-.13c.22,5,.57,10,1,14.89Zm1.63-30.1h-3v-.2c0-4.88.1-9.88.31-14.86l3,.12c-.21,4.95-.31,9.9-.31,14.74Zm1.22-29.85-3-.24c.37-4.64.84-9.38,1.39-14.09l.1-.89,3,.36-.1.87C363.15,251.57,362.68,256.28,362.31,260.88Zm3.79-29.57-3-.57c1-4.94,2.11-9.89,3.42-14.72l2.89.78C368.17,221.56,367,226.44,366.1,231.31Zm7.8-28.72-2.83-1c1.7-4.78,3.58-9.5,5.61-14l2.74,1.22C377.42,193.24,375.57,197.89,373.9,202.59Zm12.16-27.12L383.44,174a106.34,106.34,0,0,1,8.18-12.86L394,163A105.61,105.61,0,0,0,386.06,175.47Z"/><path class="cls-3" d="M525.9,492.6a78.45,78.45,0,0,1-13.77-1.17c-22.89-4.06-35.87-17.76-44.62-29.25-10.78-14.14-14.33-35.36-15.42-50.66a193.6,193.6,0,0,1,.21-30l-.25-3.26a23,23,0,0,0-7.63-15.44l-8.48-7.58a9.52,9.52,0,0,1-3-9.3c2.18-9.1,9-15.3,11.7-17.43l-5.16-4.13A22.93,22.93,0,0,1,431,305.21c.85-14.69,1.89-32.09,2.24-37.79-3.62,1.72-12.83,3.7-28.49-8.05-21.4-16-7.41-41-7.27-41.29l64-113,1.74,1-64,113a39.43,39.43,0,0,0-4.23,13.79c-1.09,10.26,2.6,18.64,11,24.91,19,14.24,27.66,7.12,27.74,7.05l1.8-1.55-.14,2.36s-1.32,21.85-2.36,39.69a21,21,0,0,0,7.82,17.54l7.21,5.77-1.1.77c-.09.06-9.46,6.67-12,17.05a7.52,7.52,0,0,0,2.37,7.34l8.48,7.58A25,25,0,0,1,454,378.15l.27,3.44v.09c-.06.52-5.29,52.92,14.8,79.29,8.53,11.2,21.17,24.55,43.38,28.49,27.34,4.86,63.11-5.83,106.31-31.74l1,1.71C583.06,481.48,551.55,492.6,525.9,492.6Z"/><polygon class="cls-1" points="375.58 195.4 307.18 161.07 113.3 161.07 113.3 160.07 307.42 160.07 307.53 160.13 376.03 194.51 375.58 195.4"/><polygon class="cls-1" points="345.58 271.9 277.18 237.57 114.3 237.57 114.3 236.57 277.42 236.57 277.53 236.63 346.03 271.01 345.58 271.9"/><polygon class="cls-1" points="266.92 440.57 115.3 440.57 115.3 439.57 266.68 439.57 335.08 405.01 335.53 405.9 266.92 440.57"/><polygon class="cls-1" points="405.42 564.57 114.8 564.57 114.8 563.57 405.18 563.57 473.58 529.01 474.03 529.9 405.42 564.57"/><path d="M115.45,138h9.22v3.3H119v3.45h5.4V148H119v6.4h-3.5Z"/><path d="M130.77,138h3.5v16.45h-3.5Z"/><path d="M141,138h3.5v13.15h6.8v3.3H141Z"/><path d="M158.4,141.27h-5V138h13.5v3.3h-5v13.15h-3.5Z"/><path d="M172,138h10.1v3.3h-6.6v3.18h6.4v3.3h-6.4v3.37h6.8v3.3H172Z"/><path d="M195.67,149.87A2.25,2.25,0,0,0,193.5,148h-1.1v6.38h-3.5V138h5.25c3.42,0,5.45,1.85,5.45,4.53a4.13,4.13,0,0,1-3.1,4.15,3.71,3.71,0,0,1,2.6,2.49l2,5.28h-3.83ZM194,145.1a1.92,1.92,0,0,0,2-2,1.87,1.87,0,0,0-2-1.95H192.4v4Z"/><path d="M115.45,213h5.37l2.3,6,1.18,3.57,1.17-3.62,2.3-5.95h5.28v16.45H129.6v-9.25l.12-3.8-1.42,3.8-2.4,6h-3.43l-2.4-6-1.45-3.82.13,3.82v9.25h-3.3Z"/><path d="M145.1,213h3.27l6.55,16.45h-3.8l-1.32-3.5h-6.33l-1.32,3.5h-3.6Zm3.55,9.85-1-2.65-1-3.07-1.05,3.07-1,2.65Z"/><path d="M160.15,228.74v-3.6a8,8,0,0,0,4.6,1.38c1.37,0,2.2-.63,2.2-1.73s-.78-1.62-2.48-2.15l-.47-.14c-2.68-.85-4.05-2.55-4.05-5,0-2.85,2.1-4.85,5.37-4.85a10.49,10.49,0,0,1,4.55,1v3.6a7.85,7.85,0,0,0-4.27-1.38c-1.35,0-2.08.48-2.08,1.5s.73,1.48,2.23,1.95l.47.15c2.85.88,4.3,2.55,4.3,4.9,0,3.2-2.15,5.4-5.57,5.4A10.74,10.74,0,0,1,160.15,228.74Z"/><path d="M176.6,213h3.5v7.28l6-7.28h4.2l-6.55,7.8,7.2,8.65h-4.58l-6.22-7.67v7.67h-3.5Z"/><path d="M196.37,213h10.1v3.3h-6.6v3.18h6.4v3.3h-6.4v3.37h6.8v3.3h-10.3Z"/><path d="M220.05,224.87a2.26,2.26,0,0,0-2.18-1.83h-1.1v6.38h-3.5V213h5.25c3.43,0,5.45,1.85,5.45,4.53a4.13,4.13,0,0,1-3.1,4.15,3.69,3.69,0,0,1,2.6,2.49l1.95,5.28H221.6Zm-1.65-4.77a1.92,1.92,0,0,0,2-2,1.87,1.87,0,0,0-2-1.95h-1.63v4Z"/><path d="M115.45,414h4.42c4,0,6.45,2.13,6.45,5.6s-2.47,5.55-6.4,5.55h-1v5.3h-3.5Zm4.62,8a2.4,2.4,0,0,0,2.7-2.4c0-1.45-1-2.35-2.72-2.35H119V422Z"/><path d="M132.32,414h3.5v13.15h6.8v3.3h-10.3Z"/><path d="M147,422.2a8.26,8.26,0,0,1,8.65-8.63c5.07,0,8.64,3.35,8.64,8.63s-3.37,8.62-8.64,8.62S147,427.29,147,422.2Zm13.75,0c0-3.28-2-5.38-5.1-5.38s-5.1,2.1-5.1,5.38,2,5.37,5.1,5.37S160.75,425.47,160.75,422.2Z"/><path d="M169.8,422.2a8.26,8.26,0,0,1,8.65-8.63c5.07,0,8.64,3.35,8.64,8.63s-3.37,8.62-8.64,8.62S169.8,427.29,169.8,422.2Zm13.75,0c0-3.28-2-5.38-5.1-5.38s-5.1,2.1-5.1,5.38,2,5.37,5.1,5.37S183.55,425.47,183.55,422.2Z"/><path d="M193.2,414h3.5v16.45h-3.5Z"/><path d="M206.9,417.27h-5V414h13.5v3.3h-5v13.15h-3.5Z"/><path d="M218.7,435.92v-3.25h.2a2.1,2.1,0,0,0,2.12-2.35V414h3.5v16.35a5.24,5.24,0,0,1-5.62,5.6Z"/><path d="M231.22,414h10.1v3.3h-6.6v3.18h6.4v3.3h-6.4v3.37h6.8v3.3h-10.3Z"/><path d="M247.85,429.74v-3.6a8,8,0,0,0,4.6,1.38c1.37,0,2.2-.63,2.2-1.73s-.78-1.62-2.48-2.15l-.47-.14c-2.68-.85-4-2.55-4-5,0-2.85,2.1-4.85,5.37-4.85a10.49,10.49,0,0,1,4.55,1v3.6a7.85,7.85,0,0,0-4.27-1.38c-1.35,0-2.08.48-2.08,1.5s.73,1.48,2.23,1.95l.47.15c2.85.88,4.3,2.55,4.3,4.9,0,3.2-2.15,5.4-5.57,5.4A10.74,10.74,0,0,1,247.85,429.74Z"/><path d="M114.85,548.2a8.26,8.26,0,0,1,8.65-8.63c5.07,0,8.65,3.35,8.65,8.63s-3.38,8.62-8.65,8.62S114.85,553.29,114.85,548.2Zm13.75,0c0-3.28-2-5.38-5.1-5.38s-5.1,2.1-5.1,5.38,2,5.37,5.1,5.37S128.6,551.47,128.6,548.2Z"/><path d="M138.25,540h5.37l2.3,6,1.18,3.57,1.17-3.62,2.3-5.95h5.28v16.45H152.4v-9.25l.12-3.8-1.42,3.8-2.4,6h-3.43l-2.4-6-1.45-3.82.13,3.82v9.25h-3.3Z"/><path d="M162.27,555.74v-3.6a8,8,0,0,0,4.6,1.38c1.38,0,2.2-.63,2.2-1.73s-.77-1.62-2.47-2.15l-.48-.14c-2.67-.85-4.05-2.55-4.05-5,0-2.85,2.1-4.85,5.38-4.85a10.49,10.49,0,0,1,4.55,1v3.6a7.88,7.88,0,0,0-4.28-1.38c-1.35,0-2.07.48-2.07,1.5s.72,1.48,2.22,2l.48.15c2.85.88,4.3,2.55,4.3,4.9,0,3.2-2.15,5.4-5.58,5.4A10.8,10.8,0,0,1,162.27,555.74Z"/><path d="M178.72,540h3.5v13.15H189v3.3h-10.3Z"/><path d="M200.1,540h3.27l6.55,16.45h-3.8l-1.32-3.5h-6.33l-1.32,3.5h-3.6Zm3.55,9.85-1-2.65-1-3.07-1.05,3.07-1,2.65Z"/><path d="M213.92,548.1c0-5.2,3.38-8.53,8.7-8.53a14.47,14.47,0,0,1,5.48,1.1v3.38a11.48,11.48,0,0,0-5.33-1.23,5,5,0,0,0-5.3,5.28c0,3.32,2,5.47,4.88,5.47a9,9,0,0,0,3-.45v-2.65H222v-3.3h6.84v8.3a14.49,14.49,0,0,1-6.24,1.35C217.22,556.82,213.92,553.42,213.92,548.1Z"/></svg>