<svg id="Layer_1" data-name="Layer 1" xmlns="http://www.w3.org/2000/svg" viewBox="0 0 340.22 477.17"><defs><style>.cls-1{fill:none;stroke:#ff5d47;stroke-miterlimit:10;stroke-width:4px;}.cls-2{fill:#13132d;}</style></defs><path class="cls-1" d="M.92,278.64a18.48,18.48,0,0,1,8.16,8.83c10.53,23.38-.86,51.75,11.57,75.24,11.3,21.34,38.48,29.1,57.09,17.84,14.19-8.58,21.42-22.15,24.11-39.31a49.39,49.39,0,0,1,1.78-7.69c1.38-4.18,3.52-8,7-10.38a13.92,13.92,0,0,1,1.54-.92,12.31,12.31,0,0,1,2.08-.82,16.53,16.53,0,0,1,10,.46,17.38,17.38,0,0,1,4.4,2.51c9.48,6.62,15.6,13.58,26.06,18.1,8.22,3.56,17.8,3.24,24-3.17,3.69-3.8,5.3-9,6.1-14.23C186,317.24,187,312,187.74,304c.91-9.08,4.54-19.15,11.51-25.34,7.62-6.76,18.39-5.24,27.86-1.49,10.86,4.3,28.37,5.75,45.94-19.67"/><path d="M108.92,65.51l-1.67,3.42a8.84,8.84,0,0,1-5.09,4.49L101,73.8A8.86,8.86,0,0,1,90.21,61.52l14.72-30.11a15.35,15.35,0,0,0,.74-11.78,15.64,15.64,0,0,0-.94-2.13L107,12.23a8.59,8.59,0,0,0-4.11-11.1l-.52-.25A8.57,8.57,0,0,0,91.1,4.45l-2.77,5a17.15,17.15,0,0,0-11.47,9.12L63.06,46.83a3.79,3.79,0,0,1-2.2,1.94A3.84,3.84,0,0,1,56,46.39l-1.83-5.33-2.24.77,1.83,5.33a6.21,6.21,0,0,0,11.45.71L79,19.65a15.42,15.42,0,0,1,7.74-7.22,14.55,14.55,0,0,0-1,11.05L57.86,86A2.89,2.89,0,0,0,63,88.53L95.31,28.19a14.6,14.6,0,0,0,8.13-7.72,13,13,0,0,1-.63,9.9L88.08,60.48A11.23,11.23,0,0,0,101.81,76l1.12-.38A11.21,11.21,0,0,0,109.38,70l1.67-3.42A5.92,5.92,0,0,1,119,63.83l7.16,3.5,1-2.12L120,61.71a8.3,8.3,0,0,0-11.09,3.8ZM94.09,26.11l-.44.15L61,87.41a.53.53,0,0,1-.94-.08A.52.52,0,0,1,60,87L88.23,23.6l-.16-.44a12.23,12.23,0,0,1,.85-9.83l4.25-7.74A6.22,6.22,0,0,1,101.34,3l.52.26a6.21,6.21,0,0,1,3,8l-1.64,3.81a15.5,15.5,0,0,0-1.74-1.88l1.21-2.86a3.85,3.85,0,0,0-1.84-5l-.52-.26a3.94,3.94,0,0,0-5,1.6l-3.81,6.85a7.47,7.47,0,0,0-.7,6.4,3.17,3.17,0,0,0,1.65,2h0a3.24,3.24,0,0,0,2.43.14l.15-.05a7.48,7.48,0,0,0,4.62-4.49l.85-2a13.07,13.07,0,0,1,1.65,2.09l-.75,1.75a12.25,12.25,0,0,1-7.25,6.71h0m.84-13.93A11.93,11.93,0,0,1,98.56,14l-1.14,2.68a5.15,5.15,0,0,1-3.33,3.21.8.8,0,0,1-.66,0,.81.81,0,0,1-.41-.51,5.16,5.16,0,0,1,.49-4.6Zm2.93-1.4a14.07,14.07,0,0,0-1.76-.71l1.22-2.19a1.52,1.52,0,0,1,1.94-.62l.52.25a1.49,1.49,0,0,1,.7,1.92l-1,2.3A16.65,16.65,0,0,0,97.86,10.78Z"/><path class="cls-2" d="M310.93,438.4l.75-4a9.62,9.62,0,0,0,0-1.51,6.92,6.92,0,0,0-2.62-5.17,14.79,14.79,0,0,0-7.66-2.62,35.1,35.1,0,0,0-5.59-.1c-3.05.17-5.71.39-8.12.58-13,1.06-19.61,1.62-31.83-8.85l-4.13-.78-4.84,25.64,4.11,1h0A1.16,1.16,0,0,1,252,444l-.07.37a25,25,0,0,1,4.37-8c1.9-2.43,4.07-4.29,5.81-4.47a1.14,1.14,0,0,1,.41,0c3.28.62,6.51,1.06,9.62,1.46,6.27.84,12,1.62,16.12,3.57,6.4,3.08,8.76,8.7,2.94,20.89a1.21,1.21,0,0,1-1.32.73l-38.07-7.19a1.18,1.18,0,0,0-2.32-.39l-9.5-1.79-2.13,11.27,75,14.18,2-10.54-7.34-1.38a1.19,1.19,0,0,1-.94-1.38Zm3.15-4.71,1.15.24a39.85,39.85,0,0,1,2.43-7.52c1.33-3,2.91-4.63,4.46-4.34,1.21.23,2,1.55,2.36,3.66l1.12-1.25a.53.53,0,0,1,0-.22l.64-3.38a1.16,1.16,0,0,1,1.37-.94l11.63,2.2a1.17,1.17,0,0,1,.94,1.38l-.64,3.38a1.17,1.17,0,0,1-1.38.94l-10.67-2-.14.19L324.73,429a49.9,49.9,0,0,1-.92,9.18,45.7,45.7,0,0,1-3,10c-1.33,3-2.91,4.63-4.47,4.33s-2.42-2.42-2.57-5.66a38.64,38.64,0,0,1,.32-6.63L313,440l-3.89,20.61,7.34,1.39a1.19,1.19,0,0,1,.94,1.37L315,476.21a1.19,1.19,0,0,1-1.38.94l-77.34-14.61a1.18,1.18,0,0,1-.94-1.38l2.57-13.59a1.18,1.18,0,0,1,1.37-.94l9.5,1.8.71-3.8-4.18-1a1.18,1.18,0,0,1-.89-1.37h0l5.27-27.88a1.18,1.18,0,0,1,1.37-.94l5.59,1.05a1.07,1.07,0,0,1,.6.34c11.6,10,17.86,9.46,30.31,8.43,2.48-.2,5.24-.42,8.19-.58a39.51,39.51,0,0,1,5.93.09c3.83.41,6.82,1.48,8.88,3.14a9.12,9.12,0,0,1,3.52,6.87,8.74,8.74,0,0,1,0,.89ZM254.21,445l-.8,4.26,36,6.81c4.6-10,2.81-14.63-2.19-17-3.76-1.81-9.32-2.55-15.41-3.37-3.13-.42-6.41-.85-9.58-1.45-1,.17-2.59,1.65-4.1,3.57a21.56,21.56,0,0,0-3.93,7.19Zm63-9.31-.64,3.62a39.23,39.23,0,0,0-.46,7.42c.11,2.08.34,3.4.66,3.46s1-1.08,1.88-3a49.59,49.59,0,0,0,3.66-19.36c-.11-2.08-.34-3.39-.66-3.46s-1,1.08-1.89,3a42.73,42.73,0,0,0-2.55,8.32Zm-2.81,2.18c.09-.46.15-.95.25-1.44l0-.19-.94-.2-.31,1.65Zm23.22-13.62-9.31-1.76-.2,1.06,9.31,1.76Zm-32.6-15.8,5.81,1.09a1.19,1.19,0,0,1,.94,1.38L309.6,422.6a1.18,1.18,0,0,1-1.38.94l-5.81-1.1a1.18,1.18,0,0,1-.94-1.37l2.21-11.7a1.2,1.2,0,0,1,1.38-.93Zm4.21,3.19-3.49-.66L304,420.35l3.5.66ZM304,433.49a6.78,6.78,0,0,1,2.57,12.26v0a6.79,6.79,0,0,1-5.09,1.05,6.76,6.76,0,0,1-5.41-7.93,6.78,6.78,0,0,1,2.83-4.36h0a6.76,6.76,0,0,1,5.07-1.06Zm2.4,4.17a4.46,4.46,0,0,0-2.84-1.85,4.39,4.39,0,0,0-3.32.69h0a4.43,4.43,0,1,0,6.16,1.16Z"/></svg>