<svg id="Layer_1" data-name="Layer 1" xmlns="http://www.w3.org/2000/svg" viewBox="0 0 561.44 571.53"><defs><style>.cls-1{fill:#fff;}</style></defs><path class="cls-1" d="M305.2,352.3c3.33-.86,4.9-3.16,5.52-6.38a15.9,15.9,0,0,0-.41-6.94,149.77,149.77,0,0,0-5.47-16c-1.28-3.38-2.57-6.76-3.55-10.18-1.27-4.11-2.64-8.1-3.61-12.25-.23-.91-.75-1.68-.86-2.5a1.86,1.86,0,0,1,3.5-1.2c.29.59.48,1.3.77,1.89.92,2.17,1.72,4.26,2.63,6.43,1.75,4.47,3.7,8.91,5.35,13.49s2.89,9.12,4.22,13.64a48,48,0,0,1,2,11.42,15.31,15.31,0,0,1-1.87,7.87c-2,3.72-6.22,4.28-9.34,1.25C304.61,352.58,304.79,352.35,305.2,352.3Z"/><path class="cls-1" d="M122.69,294.44a45,45,0,0,1-9-6.85c-7.67-7.43-12.95-16.44-17.63-25.74a143.68,143.68,0,0,1-10.47-27.63,88.65,88.65,0,0,1-2.4-26.62,127.85,127.85,0,0,1,3.31-25.29c2.18-8.75,4.23-17.69,8.14-25.94,2.78-5.8,5-11.74,8.24-17.28a139.29,139.29,0,0,1,23.94-30.34c6-5.82,11.9-11.82,18.75-16.81,5.43-4,11.08-7.74,16.62-11.61a92.62,92.62,0,0,1,17.37-9.93c3.66-1.54,7.45-2.88,11.11-4.41a98.45,98.45,0,0,1,26.75-6.9,221.33,221.33,0,0,1,38.94-1.64,166.19,166.19,0,0,1,24.13,3.26c7.08,1.35,13.92,3.36,20.92,4.94A105.32,105.32,0,0,1,322.18,73,83.37,83.37,0,0,1,350.3,94.43a43.54,43.54,0,0,1,8.29,12.89,8.29,8.29,0,0,1,.48,5.89c-.37,1.19-.95,2.32-2.19,2.38s-1.73-1.23-2.16-2.12a26.66,26.66,0,0,0-2.06-4.42,101.29,101.29,0,0,0-12.37-14.54,75.42,75.42,0,0,0-21-14.75c-8.89-4-18.63-5.76-28.11-8-5.27-1.17-10.59-1.93-15.95-3a154.6,154.6,0,0,0-20.55-2.17,204.09,204.09,0,0,0-23.85.47c-10.05.6-20.13,1.74-29.86,4.71-5.21,1.63-10.27,3.66-15.34,5.59a86.74,86.74,0,0,0-9.44,4.39c-7.1,3.87-13.44,8.79-20.06,13.22-7.47,5.07-13.94,11.36-20.31,17.64-8.6,8.35-16.39,17.22-22.65,27.45-3.09,5-5.3,10.42-8.07,15.48-5.3,9.59-8.3,20-11,30.5A155.24,155.24,0,0,0,91,203.22,82.92,82.92,0,0,0,90,215.68,84.84,84.84,0,0,0,95,241.32c2.34,6.58,4.87,13,7.71,19.44a94.84,94.84,0,0,0,9.1,16.54c3.74,5.35,7.68,10.67,11.53,16C123.57,294,123.41,294.34,122.69,294.44Z"/><path class="cls-1" d="M455.27,253.78c.72-4.8,2.32-9.29,3.46-14A132.13,132.13,0,0,0,462,222.4c.39-3.4.14-6.81.32-10.17a64.94,64.94,0,0,0-1-14.17c-.78-5-2.15-9.84-3.23-14.81a62.08,62.08,0,0,0-5.45-15,78.45,78.45,0,0,0-21.71-26.56c-10.09-8.36-21.66-13.71-34.22-17.05-1.3-.35-2.44-1-3.89-.95-4,.23-8-.5-12-.39-3,.09-4.59-1.48-4.78-4.48-.22-5.61-1.08-11.24-1.71-16.79a42.11,42.11,0,0,0-5.86-15.72c-4.16-7-9.47-13.14-14.77-19.22-.74-.85-2.24-1.9-1.43-2.84,1.1-1.19,2.33.21,3.26.92,4.31,3.39,8.88,6.33,12.86,10.29a72,72,0,0,1,12,15.84c1.9,3.3,3.2,6.78,4.8,10.22,1.58,3.23,3.46,6.33,4.14,9.89.25,1.11.79,1.25,1.83,1.22a32.08,32.08,0,0,1,7.81.63,65.26,65.26,0,0,1,14.86,4.91c9,4.12,17.6,9,24.78,15.91a95.69,95.69,0,0,1,19.6,26.42,85.29,85.29,0,0,1,7.71,21.84c1.65,8.44,3.11,17,2.28,25.69-.49,5-.77,9.92-1.67,14.95-1,5.77-2.88,11.24-4.54,16.79-1.52,5.11-3,10.11-5.65,14.85C455.72,254.76,455.37,254.5,455.27,253.78Z"/><path class="cls-1" d="M194.15,132.47c4.2-6.83,9.72-12.47,15.46-17.94a73,73,0,0,1,17.06-11.46,84.7,84.7,0,0,1,21.21-7.73,122.66,122.66,0,0,1,35.27-2.51A159.5,159.5,0,0,1,307,96.66c8.08,1.84,15.68,4.8,23.3,8s14.51,7,20.2,12.87a29.3,29.3,0,0,1,5.6,8.34c.46,1.08.72,2.3-.19,3.26-1.1,1.19-2.1,0-2.88-.45a45.18,45.18,0,0,1-7.7-5.24c-9.13-7.45-19.85-11.87-30.9-15.62a103.28,103.28,0,0,0-21.44-5,121.67,121.67,0,0,0-19.46-1.06,167.38,167.38,0,0,0-23.67,3.37,61.14,61.14,0,0,0-10.35,3c-4.17,1.6-8.2,3.49-12.23,5.38a108.16,108.16,0,0,0-17.9,10.64c-3.62,2.57-7,5.52-10.62,8.1-1.81,1.28-3.58,2.87-6.14,3.22A5.06,5.06,0,0,1,194.15,132.47Z"/><path class="cls-1" d="M321.3,245.11c.25-2.86,1.38-5.3,4.15-6.51s4.95.39,7.06,2.09c.1,0,.12.09.23.18,3.86,3.87,5.28,11.41,2.69,16.24-2.43,4.5-4.46,5.71-9.06,1.73-2.95-2.53-4.26-6.11-4.91-10.2A23.06,23.06,0,0,1,321.3,245.11Z"/><path class="cls-1" d="M243.84,249.16c.54.14.81.63,1.28,1s.87,1,1.36,1.59c.33.9.75,1.68,1,2.49,1.45,5.44,1.32,10.68-2.11,15.52-1.59,2.2-3.27,2.11-4.9.86-5.2-3.79-7.38-9.14-7-15.36.26-5.05,3.21-7.21,8.38-6.86C242.51,248.61,243.18,248.94,243.84,249.16Z"/><path class="cls-1" d="M433.86,193.35c-1.06-2.47-2.12-4.94-3.28-7.39a57.49,57.49,0,0,0-6.75-11.42c-8.69-11.17-20.11-18.52-32.94-23.91-2.1-.87-4.47-1.39-6.42-2.7-1.25-.77-1.26-1.6,0-2.4a6,6,0,0,1,4.2-.56,32.05,32.05,0,0,1,12.09,4.55,80.64,80.64,0,0,1,23.83,21.26A60.53,60.53,0,0,1,432,184.52c.9,2.08,2.31,4,2.3,6.28C434.47,191.71,435.44,192.72,433.86,193.35Z"/><path class="cls-1" d="M352.38,229.17c-3.59-5.79-7.39-11.55-12.3-16.32-3-2.84-6.1-5.77-10.53-6.12a8.56,8.56,0,0,1-1.09-.38c-.44-.15-.89-.4-1-.91s.42-.79.8-1.05a8.28,8.28,0,0,1,7.79-.31c4.88,2.17,8.32,6,11.28,10.2A45.62,45.62,0,0,1,354,228.64c.38,1.31,1.56,2.3.78,4.28A33.39,33.39,0,0,1,352.38,229.17Z"/><path class="cls-1" d="M208.64,246.75a55.29,55.29,0,0,1,2.43-13.9,29.19,29.19,0,0,1,5.74-11c1.64-1.79,3.43-3.28,5.93-3.3a2.1,2.1,0,0,1,2.18,1.48c.36,1.11-.51,1.64-1.32,1.85-2.3.73-3.85,2.39-5.28,4.26a32.79,32.79,0,0,0-3.29,5c-3.23,5.55-4.51,11.67-5.46,17.85C208.07,248.71,208.75,247.57,208.64,246.75Z"/><path class="cls-1" d="M439.5,208.26c.4.68.59,1.28-.54,1.43-.12-.09-.34-.16-.36-.37-1.05-5.49-3.2-10.64-4.74-16,.84-.74.29-1.71.39-2.55A81.32,81.32,0,0,1,439.5,208.26Z"/><path class="cls-1" d="M440.85,212.89a14.32,14.32,0,0,1,1.06,7.17c-1-1.43-1-1.43-1.21-3.6C441.07,215.36,440.06,214,440.85,212.89Z"/><path class="cls-1" d="M131.93,244.65c-.79-2.82-1.85-5.28-1-8.12.57,1.91-.08,4.09,1.4,5.77A2.35,2.35,0,0,1,131.93,244.65Z"/><path class="cls-1" d="M454.24,257.78c.1-1.58.15-2.84,1.15-3.91l.93.71C456.05,255.66,455.93,257.14,454.24,257.78Z"/><path class="cls-1" d="M440.59,212.51a.4.4,0,0,1-.72.09c-.83-.72-.57-1.91-.9-2.8.59-.29.41-.89.54-1.43A7.41,7.41,0,0,1,440.59,212.51Z"/><path class="cls-1" d="M209.29,250.84c-.09.12-.19.13-.28.25-.11-.09-.22-.08-.33-.17a8.5,8.5,0,0,1,0-4.28c.21.8,0,1.77.84,2.39C209.67,249.75,209.85,250.35,209.29,250.84Z"/><path class="cls-1" d="M440.63,212.81c0,1.26.75,2.51,0,3.66a18,18,0,0,1-.74-4l.72-.1C440.7,212.59,440.72,212.7,440.63,212.81Z"/><path class="cls-1" d="M208.78,250.91h.1a4.77,4.77,0,0,0,.47,1.19,1.62,1.62,0,0,1-.82,1.67,3.3,3.3,0,0,1,.16-2.73Z"/><path class="cls-1" d="M170.19,212.09c.11-.74.43-1.52,1.21-1.1.47.36,0,1-.32,1.51a.38.38,0,0,1-.29.14A3,3,0,0,1,170.19,212.09Z"/><path class="cls-1" d="M124.07,294.57c-.55.59-1,.13-1.41-.34a1.59,1.59,0,0,0,.72-.93C124.14,293.51,124.41,294,124.07,294.57Z"/><path class="cls-1" d="M246.49,251.84a2.12,2.12,0,0,1-1.36-1.6A1.52,1.52,0,0,1,246.49,251.84Z"/><path class="cls-1" d="M243.74,249.18a1.6,1.6,0,0,1-1.88-.8A1.65,1.65,0,0,1,243.74,249.18Z"/><path class="cls-1" d="M209.31,251c.05.41,0,.73,0,1.14a1.19,1.19,0,0,1-.47-1.19C209.09,250.87,209.19,250.86,209.31,251Z"/><path class="cls-1" d="M170.75,213.17a1,1,0,0,1-.36,1.19A.78.78,0,0,1,170.75,213.17Z"/><path class="cls-1" d="M169.54,212.7a.66.66,0,0,1,.55-.59C170.15,212.52,170,212.65,169.54,212.7Z"/><path class="cls-1" d="M170.13,351.92c.46.25.32.79.48,1.19"/><path class="cls-1" d="M128.89,343.32c2.85,11.94,8.41,22.37,18.23,30.25,4.09,3.21,8.71,5,13.51,6.55a24.13,24.13,0,0,0,8.8,1.75,23.88,23.88,0,0,0,3.78-.6c1.18,2.55,1.83,5.08,2.77,7.46,2.44,6.56,5.18,13,8.1,19.28,3,6.7,6.46,13.23,10,19.65A213.64,213.64,0,0,0,214.44,458a186,186,0,0,0,31.68,31.7,139,139,0,0,0,41.13,22.6,111.32,111.32,0,0,0,28.1,5.55,102.13,102.13,0,0,0,33.44-3.72A92.52,92.52,0,0,0,375,501.81c17.56-11.63,30.62-27.26,40.71-45.52a149.59,149.59,0,0,0,8.32-17.5c3.33-8,6.19-16.28,8.74-24.56,1.33-4.14,1.9-8.5,2.9-12.7.72-3.23,1.55-6.37,2.38-9.61,1.15-4.65,1.46-9.39,2-14.05.76-6.79,1-13.5,1.15-20.31.15-6,.07-12-.31-18-.21-3.94-.52-7.87-.74-11.81,1.27-.69,2.3,0,3.33-.13,2.15-.28,4.15-1,5.46-2.92a41.33,41.33,0,0,0,6.57-15.7c.82-4.81.38-9.66-.26-14.48A62.13,62.13,0,0,0,451.9,281a25.92,25.92,0,0,0-3.31-6c-3.7-5-8.71-4.26-13.16-1.58-1.65,1-2.67,2.65-4.36,4.13a282.77,282.77,0,0,0-21.6-54.76c3.54,1.51,6.81,1.7,10,2.64.44.15.95.08,1.39.23a1.13,1.13,0,0,0,1.19-.47c.16-.34-.1-.72-.34-1a21,21,0,0,0-7.16-6.67c-3.77-2.42-7.68-4.4-11.45-6.83-5.39-3.56-9.63-8-14-12.54-3.76-4-7.92-7.72-11.4-11.95a118.57,118.57,0,0,1-15-22.64,31.1,31.1,0,0,1-3.1-9.93l-1.69-12.72c-.18-1.33-.18-2.9-2.07-3s-2.18,1.65-2.44,2.83a36.56,36.56,0,0,0,.36,16.77c1.72,6.66,5.21,12.46,9,18.11,4.16,6.13,8.43,12.35,13.53,17.73,6.92,7.22,13.48,14.91,21,21.64,2.14,1.91,3.12,4.6,4.49,7a214.49,214.49,0,0,1,11.51,23.74c3.09,7.52,5.86,15,8.25,22.71,1.7,5.72,3.49,11.33,4.89,17.1,1.34,5.35,3.2,9.91,3.53,15.5.23,3.31.77,6.58,1.31,9.85.46,2.66.93,5.41,1.39,8.07.74,4.8.45,9.65.78,14.51.44,6.42.76,12.74.79,19.21a265.74,265.74,0,0,1-2.63,36.69,211.68,211.68,0,0,1-6.55,31.57c-7.73,26.61-20.82,49.87-41.85,68.33a94.45,94.45,0,0,1-38.52,20.49c-20.09,5.18-39.85,3.43-59.2-3.91-24.19-9.1-43.72-24.88-60.69-44-15.23-17.19-27-36.6-36.46-57.38a240.22,240.22,0,0,1-9.28-23.4c-1.37-4-2.65-8.11-3.81-12.13-3.53-12.37-7-24.86-9.07-37.53-1.12-6.85-1.73-13.76-2.24-20.69-.58-7.55-1-15.12-.82-22.65q.15-9.42,1-18.61c.43-4.66.85-9.31,1.5-13.88,1-6.81,2.16-13.55,3.77-20.24a188.69,188.69,0,0,1,8.86-27.6c2-4.65,4.08-9.31,6.39-13.9a3.64,3.64,0,0,1,3-2.29c14.9-1.77,29.69-3.64,44.58-5.52.82-.11,1.76-.13,2.58-.24,12.15-2,24.35-3.77,36.45-6.21,12.42-2.39,24.72-4.86,37.1-7.56,8.84-1.91,17.67-3.81,25.93-7.63a68.7,68.7,0,0,0,10.4-5.77c3.15-2.2,4.39-5.49,5.17-9a3.66,3.66,0,0,0-1.19-3.39c-1.56-1.57-2.38-1.46-3.49.46a13.54,13.54,0,0,1-5.67,5.25c-5.69,2.74-11.32,5.89-17.57,7.56-2.13.49-4.37.89-6.49,1.49-10.9,2.81-22,5.22-32.89,7.83-6.37,1.58-12.79,2.75-19,4.52a15.61,15.61,0,0,1-2.23.5c-16.87,2.67-33.73,5.44-50.74,7.08-10.3,1.06-20.65,2.54-30.91,3.91-4.41.59-8.59,2.19-12.76,3.79a152.36,152.36,0,0,0-15.83,7.33c-4.39,2.36-7.7,5.72-11,9.29-4.2,4.53-6.06,10.21-7.57,16.05a61.61,61.61,0,0,0-1.63,15.25c.26,1.95-.68,4.27,1.4,5.76.8-4.17,1.18-8.4,2.08-12.59,1.53-7.31,5.79-13,10.61-18.33,5.66-6.08,12.84-9.44,20.23-12.72,3.26-1.38,6.44-2.64,9.71-3.91a5.08,5.08,0,0,1,1.59-.63c1-.13,1.64.52,1.13,1.42-.86,1.37-1.71,2.84-2.69,4.12-7.33,9.22-12.39,19.82-18.14,30-.08.22,0,.53-.1.85.82.62,1.13-.15,1.4-.5,2.1-2.27,3.31-4.93,4.84-7.54a53.63,53.63,0,0,1,6.86-9.68,1.34,1.34,0,0,1,.54-.6h0c.78-.41.74,0,.7.54-.09.11-.06.32-.15.43-.27.35,0,.84-.36,1.2a237.6,237.6,0,0,0-7.81,30,242.83,242.83,0,0,0-3.84,30,238.89,238.89,0,0,0-.3,25.94,294.24,294.24,0,0,0,2.95,31.56,7.93,7.93,0,0,1,.14,3.42c-1.56-1.56-3-3-4.55-4.4a25.91,25.91,0,0,0-12.67-6.56,12.73,12.73,0,0,0-13.77,7.16A19.57,19.57,0,0,0,128.89,343.32Zm310.65-23.44-1.65-12.41c-.89-5.94-1.89-11.86-1.87-17.92,0-4.6,1.05-8.6,5.79-10.69,1.86-.88,2.18-.82,3.43.69a7.23,7.23,0,0,1,.92,1.44,45.21,45.21,0,0,1,5.21,19.46c0,1.77-.17,3.47-.14,5.24a24.63,24.63,0,0,1-2,10.71,23.52,23.52,0,0,1-2.95,5.3,4.06,4.06,0,0,1-4.61,1.45C439.71,322.68,439.83,321.2,439.54,319.88ZM136.13,338.07c.15-3.57,2.5-6.29,5.52-6.37a9.4,9.4,0,0,1,4.5.86,35.3,35.3,0,0,1,18.39,21.25c1.37,4,2.62,7.9,3.88,11.91.91,2.91,1.72,5.83,2.67,9-1.07-.17-1.9-.16-2.75-.26-3.38-.28-6.57-1.53-9.75-2.67-5.39-2-10.35-4.78-14-9.41a51,51,0,0,1-3.81-5.86A33,33,0,0,1,136.13,338.07Z"/><path class="cls-1" d="M427.52,278.25c-1.39-1.06-1.52.31-1.73,1.07a47.17,47.17,0,0,1-1.05,5.47c-4.87,15.16-8.66,30.6-13,45.9-3.72,12.81-8.34,25.23-12.49,37.89a4.69,4.69,0,0,1-.31,1.61c-.17.34,0,.73-.29,1a8.31,8.31,0,0,1,.32-1.51,10.34,10.34,0,0,1,.52-2.36c1.21-9.77,1.08-19.36-3.77-28.32-2-3.71-3.41-7.59-6.43-10.63-1.2-1.2-.85-2.5,0-3.66,6.41-9.1,11.34-19.16,17.52-28.44a187.31,187.31,0,0,0,14.89-26.94l-1.85-6c-1.74,2.64-4.52,7.6-6,10.41-5,8.92-10.53,17.38-16.31,25.77-3.41,4.95-6.23,10.44-9.51,15.58-1.49,2.18-2.85,4.45-4.23,6.62-1.13,1.71-1,1.6-2.93.8-5.75-2.46-11.64-3.56-17.86-2.42a40.4,40.4,0,0,0-15.11,6.51c-9.68,6.51-18.14,14.32-26.44,22.52a86.84,86.84,0,0,0-6.06,6.24c-.8,1.05-1.54,1-2.58.24a124.26,124.26,0,0,0-11.51-8,231.7,231.7,0,0,0-23.74-12.81A77.66,77.66,0,0,0,255.5,328c-3.21-.51-6.32-1.14-9.48-1.35-10.44-.8-19.14,2.87-25.76,11.16-1.53,1.88-1.52,2-3.33.86-8.43-5.24-17.36-9.59-25.34-15.41-8.68-6.37-18.68-10.88-27.79-16.56l.37,5.9a8.24,8.24,0,0,0,1.15.79c1.58.94,3.17,1.88,4.77,2.92s3.19,2,4.68,3,3.1,2.09,4.6,3.14,3.1,2.1,4.6,3.15,3,2.11,4.59,3.15,3.09,2,4.67,2.92c6.48,3.94,13.22,7.53,19.86,11.14a5.06,5.06,0,0,1,3.07,4.19c.75,5.64,1.62,11.37,2.27,17a75.06,75.06,0,0,0,5.84,20.31,13.9,13.9,0,0,1,.78,2c.16.39.3.69.46,1.08.13.19.36.37.49.56.26.39.09.62,0,.21s-.51.07-.11-.09c-.13-.19-.25-.28-.38-.47a14.46,14.46,0,0,0-.79-1.25c-7.48-9.87-16.55-18.37-24-28.34s-15.51-19.23-23.84-28.46a70.57,70.57,0,0,0-8-7.8,26.45,26.45,0,0,0-4-3.76s.21,3.11.44,4.85l.41,3.08c.13,1,1.27,1.71,2,2.45a9,9,0,0,1,1,1.12l1.94,2c1.34,1.39,2.68,2.88,3.91,4.28s2.57,2.79,3.81,4.3,2.58,2.89,3.83,4.39,2.47,2.91,3.72,4.42,2.47,2.9,3.72,4.41,2.47,2.91,3.72,4.41,2.47,2.91,3.72,4.41,2.47,2.91,3.72,4.41,2.47,2.91,3.72,4.42,2.47,2.9,3.72,4.41c.36.37.62.75,1,1.12,6.55,7.59,14.14,14.41,19.54,22.77,25.92,40.19,58.29,71.49,107.11,77.41,11.14,1.33,30-27.81,35.65-35.66,16.83-23.44,26-50.55,35.52-77.51,2.12-6,4.55-12.1,6.32-18.39,4.2-14.65,8.84-29.26,11.86-44.18.75-3.76,1.94-7.36,2.81-11a6.43,6.43,0,0,0-.09-1.45.94.94,0,0,1,0-.52c0,.3-.12.64-.07,1.05"/><path class="cls-1" d="M310.6,389.69c1.24,3.07,3.41,4.45,6.59,4,1.23-.17,1.83.38,2.49,1.44,1,1.75,2.4,3.13,3.08,5.13a.91.91,0,0,0,.91.5c.3,0,.59-.29.54-.59.06-2.73.42-5.49-.75-8.05-.92-2.17-.8-2.08.84-3.87,1.09-1.19,2.05-1.84,3.72-1a28.36,28.36,0,0,0,2.82.78,3.55,3.55,0,0,0,2.3,0c3.22-1,5.8-5.05,5.57-8.36s-2.13-5-4.46-6.82c-1.05-.8-2.86-1.08-3-2.42s1.6-2.09,2.29-3.22c3.09-5,7.69-8.13,12.52-11.07a79,79,0,0,0,10.51-8.08c2.52-2.22,5.27-4.36,8.93-4.32,2.5,0,5.08-.26,7.44.26,3.45.79,7.23,1.75,8.14,6.22.1.72.28,1.32.38,2l2,14.77a5.57,5.57,0,0,1,.09,2.29c-.83,2.4-.18,4.93-1.11,7.35-.24.55-.55,1.33.15,1.86a1.89,1.89,0,0,0,2.19,0c.77-.52,1.42-1.13,2.08-1.63s1.3-1.22,2.09-.8.19,1.43.07,2.08c-.36,2-1.26,3.92-1.3,5.91a4.85,4.85,0,0,1-2.46,4.3,5.6,5.6,0,0,0-2.38,2.51,21.55,21.55,0,0,1-2.33,3.65A68.32,68.32,0,0,1,370,408.3l-.53.7c-2.74,3.7-5.37,7.5-8.11,11.21-1.94,2.66-4,5.23-6.08,7.7s-4.09,5.35-6.36,7.84a78.76,78.76,0,0,1-6.65,6.53c-1.79,1.49-4.07,2.42-5.87,3.81s-3.49,1.19-5.3.18a12.29,12.29,0,0,0-2.11-1c-3.85-1.47-7.55-3.38-11.56-4.52-4.34-1.19-8.08-4.14-12.5-5.22-.21,0-.45-.26-.68-.43-2.24-1.9-5-3.1-7.49-4.44-6-3.27-11.05-7.71-15.95-12.39-3.85-3.76-7.23-8-10.9-12-.87-1-2.19-1.59-2.88-2.86a97.58,97.58,0,0,0-7.35-9.67c-3.41-4.45-6-9.44-9.07-14a115.07,115.07,0,0,1-8.89-16.57c-1.82-4.25-3.54-8.51-3.86-13.27-.21-2.37.31-3.17,2.65-3.59l5.24-.7a9.3,9.3,0,0,1,5.32.76,77.86,77.86,0,0,0,10.54,3.92,52.8,52.8,0,0,1,9.05,3.59c6.23,2.93,11.8,7.1,18,9.92,2.45,1.14,4.19,3.2,6.71,4.12,2.21.86,3.9,2.61,5.75,3.93a2.92,2.92,0,0,1,1.09,2c.82,3.75,3.32,5.3,7,4.5.72-.1,1.41-.4,2.25.43C308.65,382.12,309.14,385.81,310.6,389.69Z"/></svg>