<?xml version="1.0" encoding="utf-8"?>
<!-- Generator: Adobe Illustrator 24.1.0, SVG Export Plug-In . SVG Version: 6.00 Build 0)  -->
<svg version="1.1" xmlns="http://www.w3.org/2000/svg" xmlns:xlink="http://www.w3.org/1999/xlink" x="0px" y="0px"
	 viewBox="0 0 324.9 247.1" style="enable-background:new 0 0 324.9 247.1;" xml:space="preserve">
<style type="text/css">
	.st0{fill:none;stroke:#FF5D47;stroke-width:4;stroke-miterlimit:10;}
	.st1{fill:#FF5D47;}
	.st2{fill:#FFE4E1;}
	.st3{fill:#FFF7F3;}
	.st4{clip-path:url(#SVGID_2_);}
	.st5{fill:#13132D;}
	.st6{clip-path:url(#SVGID_6_);}
	.st7{fill:#FEF7F4;}
	.st8{fill:#A5D6D7;}
	.st9{fill:#FFFFFF;}
	.st10{opacity:0.5;}
	.st11{opacity:0.76;}
	.st12{opacity:0.65;}
	.st13{clip-path:url(#SVGID_10_);}
	.st14{fill:#14142E;}
	.st15{fill:#15152E;}
	.st16{fill:#16152F;}
	.st17{fill:#15152F;}
	.st18{fill:#15162F;}
	.st19{fill:#21213A;}
	.st20{fill:#161630;}
	.st21{fill:#191730;}
	.st22{fill:#1B1932;}
	.st23{fill:#16162F;}
	.st24{fill:#1C1933;}
	.st25{fill:#1B1B35;}
	.st26{fill:#1B1C35;}
	.st27{fill:#1B1A33;}
	.st28{fill:#191832;}
	.st29{fill:#212139;}
	.st30{fill:#29253D;}
	.st31{fill:#1E1E37;}
	.st32{fill:#201D36;}
	.st33{fill:#1F1F37;}
	.st34{fill:#231E37;}
	.st35{fill:#1C1B34;}
	.st36{fill:#212038;}
	.st37{fill:#2D273F;}
	.st38{fill:#2C2A41;}
	.st39{fill:#2B2B42;}
	.st40{fill:#29273F;}
	.st41{fill:#25253D;}
	.st42{fill:#26223A;}
	.st43{fill:#302E45;}
	.st44{fill:#312C43;}
	.st45{fill:#2A2A42;}
	.st46{fill:#23233B;}
	.st47{fill:#26263E;}
	.st48{fill:#28273F;}
	.st49{fill:#28253D;}
	.st50{fill:#32354B;}
	.st51{fill:#333248;}
	.st52{fill:#2B2840;}
	.st53{fill:#373349;}
	.st54{fill:#2D2E45;}
	.st55{fill:#281F37;}
	.st56{fill:#38334A;}
	.st57{fill:#2C273D;}
	.st58{fill:#342B43;}
	.st59{fill:#323249;}
	.st60{fill:#323147;}
	.st61{fill:#2C142E;}
	.st62{fill:#2B2039;}
	.st63{fill:#35334A;}
	.st64{fill:#413C52;}
	.st65{fill:#37374D;}
	.st66{fill:#37354B;}
	.st67{fill:#342D44;}
	.st68{fill:#372D44;}
	.st69{fill:#3D3D52;}
	.st70{fill:#39384E;}
	.st71{fill:#2E2C43;}
	.st72{fill:#3A394E;}
	.st73{fill:#38364C;}
	.st74{fill:#2C2C44;}
	.st75{fill:#2F233B;}
	.st76{fill:#434257;}
	.st77{fill:#343248;}
	.st78{fill:#40374D;}
	.st79{fill:#433A50;}
	.st80{fill:#4A3148;}
	.st81{fill:#385C6E;}
	.st82{fill:#323148;}
	.st83{fill:#2C2C43;}
	.st84{fill:#4D4D61;}
	.st85{fill:#38354B;}
	.st86{fill:#4D4F62;}
	.st87{fill:#3F3F54;}
	.st88{fill:#4A4154;}
	.st89{fill:#30273F;}
	.st90{fill:#383148;}
	.st91{fill:#3C394E;}
	.st92{fill:#434357;}
	.st93{fill:#2C2840;}
	.st94{fill:#292941;}
	.st95{fill:#515164;}
	.st96{fill:#3D344A;}
	.st97{fill:#3C3A50;}
	.st98{fill:#545366;}
	.st99{fill:#353148;}
	.st100{fill:#2B2A41;}
	.st101{fill:#282941;}
	.st102{fill:#302F46;}
	.st103{fill:#5A586A;}
	.st104{fill:#47465A;}
	.st105{fill:#2A2940;}
	.st106{fill:#2F2B42;}
	.st107{fill:#181932;}
	.st108{fill:#535265;}
	.st109{fill:#3E3C51;}
	.st110{fill:#404055;}
	.st111{fill:#35273F;}
	.st112{fill:#393349;}
	.st113{fill:#181832;}
	.st114{fill:#3B3A4F;}
	.st115{fill:#4E4F62;}
	.st116{fill:#525265;}
	.st117{fill:#201A33;}
	.st118{fill:#5C5B6D;}
	.st119{fill:#404155;}
	.st120{fill:#45465B;}
	.st121{fill:#4F4D61;}
	.st122{fill:#4C142E;}
	.st123{fill:#4F3C51;}
	.st124{fill:#4F4E62;}
	.st125{fill:#353147;}
	.st126{fill:#5F5C6E;}
	.st127{fill:#403F54;}
	.st128{fill:#4F5063;}
	.st129{fill:#434156;}
	.st130{fill:#525164;}
	.st131{fill:#403C51;}
	.st132{fill:#474257;}
	.st133{fill:#4A495D;}
	.st134{fill:#55576A;}
	.st135{fill:#49475B;}
	.st136{fill:#3D364C;}
	.st137{fill:#33334A;}
	.st138{fill:#1E1D35;}
	.st139{fill:#473C51;}
	.st140{fill:#696A7A;}
	.st141{fill:#3B3249;}
	.st142{fill:#4F4C60;}
	.st143{fill:#1C1C35;}
	.st144{fill:#46465A;}
	.st145{fill:#8F5A6D;}
	.st146{fill:#433E53;}
	.st147{fill:#4C495D;}
	.st148{fill:#4D4C60;}
	.st149{fill:#4D4B5F;}
	.st150{fill:#433C52;}
	.st151{fill:#403E53;}
	.st152{fill:#271E37;}
	.st153{fill:#454358;}
	.st154{fill:#515265;}
	.st155{fill:#1B1731;}
	.st156{fill:#4B4A5D;}
	.st157{fill:#545466;}
	.st158{fill:#201E37;}
	.st159{fill:#52485C;}
	.st160{fill:#4A4D61;}
	.st161{fill:#524F63;}
	.st162{fill:#565669;}
	.st163{fill:#1D1B34;}
	.st164{fill:#2F2E46;}
	.st165{fill:#292940;}
	.st166{fill:#25233B;}
	.st167{fill:#555568;}
	.st168{fill:#575266;}
	.st169{fill:#181A33;}
	.st170{fill:#797181;}
	.st171{fill:#484055;}
	.st172{fill:#4E4055;}
	.st173{fill:#3C3249;}
	.st174{fill:#535366;}
	.st175{fill:#2A2D44;}
	.st176{fill:#5D5C6E;}
	.st177{fill:#4C4C60;}
	.st178{fill:#505164;}
	.st179{fill:#452840;}
	.st180{fill:#171630;}
	.st181{fill:#392E45;}
	.st182{fill:#555265;}
	.st183{fill:#4C2D44;}
	.st184{fill:#555466;}
	.st185{fill:#4A4B5F;}
	.st186{fill:#1F2139;}
	.st187{fill:#505063;}
	.st188{fill:#682D44;}
	.st189{fill:#4F1A33;}
	.st190{fill:#646273;}
	.st191{fill:#4E1730;}
	.st192{fill:#A87181;}
	.st193{fill:#848794;}
	.st194{fill:#605B6D;}
	.st195{fill:#615C6E;}
	.st196{fill:#383349;}
	.st197{fill:#504E61;}
	.st198{fill:#1F1E37;}
	.st199{fill:#29243C;}
	.st200{fill:#554E62;}
	.st201{fill:#4A4A5E;}
	.st202{fill:#545164;}
	.st203{fill:#3D354B;}
	.st204{fill:#151530;}
	.st205{fill:#595164;}
	.st206{fill:#221F37;}
	.st207{fill:#4F4E61;}
	.st208{fill:#5B5B6D;}
	.st209{fill:#16152E;}
	.st210{fill:#1D1A33;}
	.st211{fill:#4A4A5D;}
	.st212{fill:#271933;}
	.st213{fill:#7B7584;}
	.st214{fill:#64596B;}
	.st215{fill:#7A7E8D;}
	.st216{fill:#191A32;}
	.st217{fill:#29243B;}
	.st218{fill:#706676;}
	.st219{fill:#2C2B42;}
	.st220{fill:#4E4C60;}
	.st221{fill:#18152E;}
	.st222{fill:#514F63;}
	.st223{fill:#4D4D60;}
	.st224{fill:#535164;}
	.st225{fill:#4C4D61;}
	.st226{fill:#565466;}
	.st227{fill:#25263E;}
	.st228{fill:#322D44;}
	.st229{fill:#545568;}
	.st230{fill:#161731;}
	.st231{fill:#453F54;}
	.st232{fill:#3D3349;}
	.st233{fill:#4C4459;}
	.st234{fill:#27263E;}
	.st235{fill:#464156;}
	.st236{fill:#23223A;}
	.st237{fill:#4D4E61;}
	.st238{fill:#646071;}
	.st239{fill:#242139;}
	.st240{fill:#625A6C;}
	.st241{fill:#57586A;}
	.st242{fill:#5B5D6F;}
	.st243{fill:#565568;}
	.st244{fill:#7B7887;}
	.st245{fill:#4E475C;}
	.st246{fill:#4D7D8B;}
	.st247{fill:#1B1B34;}
	.st248{fill:#4C4D60;}
	.st249{fill:#251933;}
	.st250{fill:#647281;}
	.st251{fill:#3E3E54;}
	.st252{fill:#5A5568;}
	.st253{fill:#20223A;}
	.st254{fill:#221E37;}
	.st255{fill:#434358;}
	.st256{fill:#8A8E9A;}
	.st257{fill:#585265;}
	.st258{fill:#1A1A33;}
	.st259{fill:#4B4B5F;}
	.st260{fill:#655B6D;}
	.st261{fill:#5A586B;}
	.st262{fill:#837887;}
	.st263{fill:#595669;}
	.st264{fill:#545A6C;}
	.st265{fill:#3B374D;}
	.st266{fill:#61596B;}
	.st267{fill:#45142D;}
	.st268{fill:#332F46;}
	.st269{fill:#511D36;}
	.st270{fill:#626072;}
	.st271{fill:#414D61;}
	.st272{fill:#558996;}
	.st273{fill:#948190;}
	.st274{fill:#4E4559;}
	.st275{fill:#7D7786;}
	.st276{fill:#35354B;}
	.st277{fill:#3E4A5D;}
	.st278{fill:#30354B;}
	.st279{fill:#696072;}
	.st280{fill:#625467;}
	.st281{fill:#232037;}
	.st282{fill:#605668;}
	.st283{fill:#251F38;}
	.st284{fill:#827584;}
	.st285{fill:#39374D;}
	.st286{fill:#2C2F46;}
	.st287{fill:#1C1D36;}
	.st288{fill:#827A88;}
	.st289{fill:#505366;}
	.st290{fill:#2C2940;}
	.st291{fill:#5B6778;}
	.st292{fill:#636475;}
	.st293{fill:#1F1E36;}
	.st294{fill:#625F70;}
	.st295{fill:#716374;}
	.st296{fill:#696071;}
	.st297{fill:#77808E;}
	.st298{fill:#8A7B88;}
	.st299{fill:#888491;}
	.st300{fill:#5C4F63;}
	.st301{fill:#334357;}
	.st302{fill:#3D3D53;}
	.st303{fill:#352A42;}
	.st304{fill:#54495D;}
	.st305{fill:#2E2D45;}
	.st306{fill:#5B6476;}
	.st307{fill:#1A1932;}
	.st308{fill:#21223A;}
	.st309{fill:#626273;}
	.st310{fill:#191831;}
	.st311{fill:#303046;}
	.st312{fill:#70576A;}
	.st313{fill:#534458;}
	.st314{fill:#8A99A5;}
	.st315{fill:#4E4458;}
	.st316{fill:#675E6F;}
	.st317{fill:#4F223A;}
	.st318{fill:#805467;}
	.st319{fill:#2A2941;}
	.st320{fill:#645C6E;}
	.st321{fill:#2A3A4F;}
	.st322{fill:#78697A;}
	.st323{fill:#221A33;}
	.st324{fill:#584B5F;}
	.st325{fill:#575467;}
	.st326{fill:#303148;}
	.st327{fill:#6C7080;}
	.st328{fill:#36344B;}
	.st329{fill:#4E5669;}
	.st330{fill:#312D44;}
	.st331{fill:#776A79;}
	.st332{fill:#333147;}
	.st333{fill:#404457;}
	.st334{fill:#35374D;}
	.st335{fill:#45384E;}
	.st336{fill:#3F3B4F;}
	.st337{fill:#535B6D;}
	.st338{fill:#9BC0C7;}
	.st339{fill:#4D4157;}
	.st340{fill:#5E485D;}
	.st341{fill:#5E354A;}
	.st342{fill:#27243C;}
	.st343{fill:#25243C;}
	.st344{fill:#23243C;}
	.st345{fill:#37223A;}
	.st346{fill:#2A2C43;}
	.st347{fill:#36344A;}
	.st348{fill:#1F1F38;}
	.st349{fill:#4F5365;}
	.st350{fill:#191932;}
	.st351{fill:#3D3B52;}
	.st352{fill:#63354C;}
	.st353{fill:#A197A3;}
	.st354{fill:#938B98;}
	.st355{fill:#3F3D53;}
	.st356{fill:#4E4A5E;}
	.st357{fill:#2B253D;}
	.st358{fill:#241B34;}
	.st359{fill:#48485B;}
	.st360{fill:#22142E;}
	.st361{fill:#503C51;}
	.st362{fill:#1F1B34;}
	.st363{fill:#678694;}
	.st364{fill:#3E394E;}
	.st365{fill:#2A263F;}
	.st366{fill:#221D36;}
	.st367{fill:#613D52;}
	.st368{fill:#271D36;}
	.st369{fill:#362840;}
	.st370{fill:#2E3148;}
	.st371{fill:#44142D;}
	.st372{fill:#451731;}
	.st373{fill:#292C43;}
	.st374{fill:#7B6878;}
	.st375{fill:#323349;}
	.st376{fill:#67354B;}
	.st377{fill:#1A142E;}
	.st378{fill:#8F6375;}
	.st379{fill:#161832;}
	.st380{fill:#55475B;}
	.st381{fill:#33223B;}
	.st382{fill:#1D1932;}
	.st383{fill:#3B3B51;}
	.st384{fill:#3F3C51;}
	.st385{fill:#18132D;}
	.st386{fill:#2E2941;}
	.st387{fill:#534A5E;}
	.st388{fill:#373A50;}
	.st389{fill:#474559;}
	.st390{fill:#454459;}
	.st391{fill:#636576;}
	.st392{fill:#3B1A33;}
	.st393{fill:#534C60;}
	.st394{fill:#28233B;}
	.st395{fill:#22243C;}
	.st396{fill:#21132D;}
	.st397{fill:#292D44;}
	.st398{fill:#443349;}
	.st399{fill:#383147;}
	.st400{fill:#42344A;}
	.st401{fill:#4E4459;}
	.st402{fill:#14132D;}
	.st403{fill:#A5A6B0;}
	.st404{fill:#1E132D;}
	.st405{fill:#16132E;}
	.st406{fill:#1A162F;}
	.st407{fill:#5D485C;}
	.st408{fill:#5E6173;}
	.st409{fill:#414257;}
	.st410{fill:#47485D;}
	.st411{fill:#3E3A50;}
	.st412{fill:#1C1932;}
	.st413{fill:#FF715D;}
	.st414{fill:#2D253B;}
	.st415{fill:#1A1C35;}
	.st416{fill:#211831;}
	.st417{fill:#261831;}
	.st418{fill:#43132D;}
	.st419{fill:#17132D;}
	.st420{fill:#411932;}
	.st421{fill:#18142E;}
	.st422{fill:#554D61;}
	.st423{fill:#26132D;}
	.st424{fill:#6A2F46;}
	.st425{fill:#4C152F;}
	.st426{fill:#2B2940;}
	.st427{fill:#FF5F44;}
	.st428{fill:#2D2D44;}
	.st429{fill:#1C1D37;}
	.st430{fill:#BCACB2;}
	.st431{fill:#382F46;}
	.st432{fill:#1C2038;}
	.st433{fill:#371C35;}
	.st434{fill:#201F38;}
	.st435{fill:#23142E;}
	.st436{fill:#16142E;}
	.st437{fill:#212039;}
	.st438{fill:#17152E;}
	.st439{fill:#1B132D;}
	.st440{fill:#2B273F;}
	.st441{fill:#1D1F38;}
	.st442{fill:#1C132E;}
	.st443{fill:#4A374D;}
	.st444{fill:#14152F;}
	.st445{fill:#38384E;}
	.st446{fill:#345567;}
	.st447{fill:#21132C;}
	.st448{fill:#49142D;}
	.st449{fill:#19132D;}
	.st450{fill:#1A132D;}
	.st451{fill:#23132D;}
	.st452{fill:#2C2139;}
	.st453{fill:#291A33;}
	.st454{fill:#211D36;}
	.st455{fill:#1A1933;}
	.st456{fill:#27273F;}
	.st457{fill:#181831;}
	.st458{fill:#222139;}
	.st459{fill:#161730;}
	.st460{fill:#454357;}
	.st461{fill:#1D1C35;}
	.st462{fill:#191731;}
	.st463{fill:#2B2941;}
	.st464{fill:#622A40;}
	.st465{fill:#3C374D;}
	.st466{fill:#14152E;}
	.st467{fill:#745A6C;}
	.st468{fill:#795F70;}
	.st469{fill:#EB766A;}
	.st470{fill:#979FA9;}
	.st471{fill:#3A3046;}
	.st472{fill:#251831;}
	.st473{fill:#1B152F;}
	.st474{fill:#2E132D;}
	.st475{fill:#392A41;}
	.st476{fill:#6A5366;}
	.st477{fill:#16142D;}
	.st478{fill:#3C1831;}
	.st479{fill:#151731;}
	.st480{fill:#4C3248;}
	.st481{fill:#251B35;}
	.st482{fill:#494357;}
	.st483{fill:#5E5063;}
	.st484{fill:#725D6F;}
	.st485{fill:#403D52;}
	.st486{fill:#271F38;}
	.st487{fill:#4F8794;}
	.st488{fill:#47475B;}
	.st489{fill:#646475;}
	.st490{fill:#525165;}
	.st491{fill:#4E4D61;}
	.st492{fill:#413F54;}
	.st493{fill:#568996;}
	.st494{fill:#3C3B50;}
	.st495{fill:#4E152F;}
	.st496{fill:#4A3B51;}
	.st497{fill:#4D8794;}
	.st498{fill:#3A334A;}
	.st499{fill:#493D53;}
	.st500{fill:#444359;}
	.st501{fill:#3A374D;}
	.st502{fill:#555C6E;}
	.st503{fill:#443E53;}
	.st504{fill:#655A6C;}
	.st505{fill:#1C1A33;}
	.st506{fill:#4C3F54;}
	.st507{fill:#49465A;}
	.st508{fill:#686B7A;}
	.st509{fill:#3E364B;}
	.st510{fill:#5E3C51;}
	.st511{fill:#595366;}
	.st512{fill:#5A5769;}
	.st513{fill:#575668;}
	.st514{fill:#24253D;}
	.st515{fill:#5C4F62;}
	.st516{fill:#686576;}
	.st517{fill:#635F70;}
	.st518{fill:#4B465A;}
	.st519{fill:#555366;}
	.st520{fill:#491933;}
	.st521{fill:#4B475B;}
	.st522{fill:#4D4E62;}
	.st523{fill:#5C495D;}
	.st524{fill:#4B3F54;}
	.st525{fill:#4F4F62;}
	.st526{fill:#636273;}
	.st527{fill:#6E697A;}
	.st528{fill:#777685;}
	.st529{fill:#565164;}
	.st530{fill:#5D5D6F;}
	.st531{fill:#4B485C;}
	.st532{fill:#555266;}
	.st533{fill:#635769;}
	.st534{fill:#5E5A6D;}
	.st535{fill:#595467;}
	.st536{fill:#5D5A6C;}
	.st537{fill:#4B4459;}
	.st538{fill:#527E8C;}
	.st539{fill:#773C51;}
	.st540{fill:#558694;}
	.st541{fill:#787181;}
	.st542{fill:#4E364C;}
	.st543{fill:#444156;}
	.st544{fill:#4E4E62;}
	.st545{fill:#5A4F63;}
	.st546{fill:#453A4F;}
	.st547{fill:#414156;}
	.st548{fill:#4E4E61;}
	.st549{fill:#191933;}
	.st550{fill:#777C8A;}
	.st551{fill:#565769;}
	.st552{fill:#403E54;}
	.st553{fill:#635C6E;}
	.st554{fill:#67697A;}
	.st555{fill:#64586B;}
	.st556{fill:#4F4358;}
	.st557{fill:#5B5365;}
	.st558{fill:#60586B;}
	.st559{fill:#302D44;}
	.st560{fill:#201730;}
	.st561{fill:#6A7080;}
	.st562{fill:#5F6072;}
	.st563{fill:#616676;}
	.st564{fill:#23152E;}
	.st565{fill:#6F6374;}
	.st566{fill:#563D53;}
	.st567{fill:#34334A;}
	.st568{fill:#2B1F37;}
	.st569{fill:#291B34;}
	.st570{fill:#4D475D;}
	.st571{fill:#525063;}
	.st572{fill:#424459;}
	.st573{fill:#646C7C;}
	.st574{fill:#514357;}
	.st575{fill:#646B7B;}
	.st576{fill:#535467;}
	.st577{fill:#5C5366;}
	.st578{fill:#5B5265;}
	.st579{fill:#6A5F71;}
	.st580{fill:#2C2B43;}
	.st581{fill:#787F8C;}
	.st582{fill:#636979;}
	.st583{fill:#2B1D36;}
	.st584{fill:#21142E;}
	.st585{fill:#27243D;}
	.st586{fill:#2F2C44;}
	.st587{fill:#75919E;}
	.st588{fill:#585264;}
	.st589{fill:#51808F;}
	.st590{fill:#534E62;}
	.st591{fill:#AEA4AD;}
	.st592{fill:#59223B;}
	.st593{fill:#65354C;}
	.st594{fill:#4A485D;}
	.st595{fill:#251D35;}
	.st596{fill:#524A5F;}
	.st597{fill:#31243C;}
	.st598{fill:#1E1832;}
	.st599{fill:#2C1931;}
	.st600{fill:#2E3047;}
	.st601{fill:#231832;}
	.st602{fill:#666072;}
	.st603{fill:#6B7180;}
	.st604{fill:#1A1730;}
	.st605{fill:#2A283F;}
	.st606{fill:#221D35;}
	.st607{fill:#4D495E;}
	.st608{fill:#48475B;}
	.st609{fill:#534D60;}
	.st610{fill:#8B8592;}
	.st611{fill:#48495D;}
	.st612{fill:#46465B;}
	.st613{fill:#2E2D44;}
	.st614{fill:#30364C;}
	.st615{fill:#2D2B42;}
	.st616{fill:#2B2D45;}
	.st617{fill:#25253E;}
	.st618{fill:#2C1832;}
	.st619{fill:#24152E;}
	.st620{fill:#452038;}
	.st621{fill:#2D1832;}
	.st622{fill:#271C35;}
	.st623{fill:#434055;}
	.st624{fill:#393A50;}
	.st625{fill:#22152E;}
	.st626{fill:#292840;}
	.st627{fill:#272B41;}
	.st628{fill:#424156;}
	.st629{fill:#251C35;}
	.st630{fill:#281831;}
	.st631{fill:#231731;}
	.st632{fill:#604F62;}
	.st633{fill:#A68A97;}
	.st634{fill:#232038;}
	.st635{fill:#564A5D;}
	.st636{fill:#211B35;}
	.st637{fill:#241E37;}
	.st638{fill:#21243C;}
	.st639{fill:#4D283F;}
	.st640{fill:#28142E;}
	.st641{fill:#5B2F47;}
	.st642{fill:#677483;}
	.st643{fill:#28243C;}
	.st644{fill:#807D8B;}
	.st645{fill:#3D1E36;}
	.st646{fill:#271D37;}
	.st647{fill:#639BA5;}
	.st648{fill:#551F37;}
	.st649{fill:#BB8290;}
	.st650{fill:#56354B;}
	.st651{fill:#2B1B35;}
	.st652{fill:#6B3148;}
	.st653{fill:#5F344B;}
	.st654{fill:#301932;}
	.st655{fill:#312941;}
	.st656{fill:#302038;}
	.st657{fill:#32223A;}
	.st658{fill:#3C273E;}
	.st659{fill:#291D36;}
	.st660{fill:#424056;}
	.st661{fill:#321B34;}
	.st662{fill:#251630;}
	.st663{fill:#221B35;}
	.st664{fill:#2E2A41;}
	.st665{fill:#22142D;}
	.st666{fill:#231730;}
	.st667{fill:#262038;}
	.st668{fill:#45465A;}
	.st669{fill:#19142E;}
	.st670{fill:#4A485C;}
	.st671{fill:#34374D;}
	.st672{fill:#2F2F46;}
	.st673{fill:#291F38;}
	.st674{fill:#281932;}
	.st675{fill:#1F142E;}
	.st676{fill:#292B42;}
	.st677{fill:#27152F;}
	.st678{fill:#2C3047;}
	.st679{fill:#281F38;}
	.st680{fill:#2B263E;}
	.st681{fill:#2A273E;}
	.st682{fill:#492E45;}
	.st683{fill:#3A3A50;}
	.st684{fill:#372E45;}
	.st685{fill:#1C162F;}
	.st686{fill:#373047;}
	.st687{fill:#413E54;}
	.st688{fill:#24233B;}
	.st689{fill:#201B34;}
	.st690{fill:#4B4155;}
	.st691{fill:#66586A;}
	.st692{fill:#535769;}
	.st693{fill:#48485C;}
	.st694{fill:#1A1D36;}
	.st695{fill:#57586B;}
	.st696{fill:#181730;}
	.st697{fill:#3D3A50;}
	.st698{fill:#4B384D;}
	.st699{fill:#595A6D;}
	.st700{fill:#728390;}
	.st701{fill:#391C35;}
	.st702{fill:#897483;}
	.st703{fill:#433F54;}
	.st704{fill:#2F152F;}
	.st705{fill:#3C3B51;}
	.st706{fill:#38394F;}
	.st707{fill:#27213A;}
	.st708{fill:#6A6A7B;}
	.st709{fill:#31384E;}
	.st710{fill:#2E2840;}
	.st711{fill:#505062;}
	.st712{fill:#1D1C34;}
	.st713{fill:#5F586B;}
	.st714{fill:#635E70;}
	.st715{fill:#211E37;}
	.st716{fill:#271832;}
	.st717{fill:#1F1932;}
	.st718{fill:#2C283F;}
	.st719{fill:#342F45;}
	.st720{fill:#514D61;}
	.st721{fill:#4D4459;}
	.st722{fill:#46132D;}
	.st723{fill:#43394F;}
	.st724{fill:#4C4B5E;}
	.st725{fill:#1C1630;}
	.st726{fill:#524B5F;}
	.st727{fill:#524A5E;}
	.st728{fill:#464357;}
	.st729{fill:#4F3A50;}
	.st730{fill:#511B35;}
	.st731{fill:#42132D;}
	.st732{fill:#50475B;}
	.st733{fill:#181731;}
	.st734{fill:#17152F;}
	.st735{fill:#5F4F62;}
	.st736{fill:#231C35;}
	.st737{fill:#211730;}
	.st738{fill:#242038;}
	.st739{fill:#221831;}
	.st740{fill:#221630;}
	.st741{fill:#231630;}
	.st742{fill:#251B34;}
	.st743{fill:#1C1730;}
	.st744{fill:#504055;}
	.st745{fill:#431C36;}
	.st746{fill:#4F3E53;}
	.st747{fill:#2A3046;}
	.st748{fill:#2A2D43;}
	.st749{fill:#3B1731;}
	.st750{fill:#2C2941;}
	.st751{fill:#2A253C;}
	.st752{fill:#463B51;}
	.st753{fill:#28233C;}
	.st754{fill:#282F46;}
	.st755{fill:#4A808D;}
	.st756{fill:#4E3F54;}
	.st757{fill:#5D4B5F;}
	.st758{fill:#381E37;}
	.st759{fill:#482C43;}
	.st760{fill:#6C7484;}
	.st761{fill:#331B34;}
	.st762{fill:#4B132D;}
	.st763{fill:#542B42;}
	.st764{fill:#457786;}
	.st765{fill:#342F46;}
	.st766{fill:#393046;}
	.st767{fill:#494559;}
	.st768{fill:#4D4458;}
	.st769{fill:#443D53;}
	.st770{fill:#20132E;}
	.st771{fill:#20132D;}
	.st772{fill:#FC624D;}
	.st773{fill:#2D3048;}
	.st774{fill:#443E51;}
	.st775{fill:#383C52;}
	.st776{fill:#2E3149;}
	.st777{fill:#1A1B34;}
	.st778{fill:#693249;}
	.st779{fill:#5C223A;}
	.st780{fill:#63596B;}
	.st781{fill:#62495D;}
	.st782{fill:#3E3E53;}
	.st783{fill:#26283F;}
	.st784{fill:#2C2038;}
	.st785{fill:#211F38;}
	.st786{fill:#FF8A79;}
	.st787{fill:#FF8C7C;}
	.st788{fill:#565163;}
	.st789{fill:#FF7A67;}
	.st790{fill:#FF9283;}
	.st791{fill:#1D263D;}
	.st792{fill:#68465A;}
	.st793{fill:#4A455A;}
	.st794{fill:#6C8390;}
	.st795{fill:#614459;}
	.st796{fill:#ABB9C1;}
	.st797{fill:#1C1E37;}
	.st798{fill:#FF5F48;}
	.st799{fill:#FF6B56;}
	.st800{fill:#FF735F;}
	.st801{fill:#A9A9B2;}
	.st802{fill:#4F152E;}
	.st803{fill:#4B4257;}
	.st804{fill:#331932;}
	.st805{fill:#FF735E;}
	.st806{fill:#FF9586;}
	.st807{fill:#FFA396;}
	.st808{fill:#FF725F;}
	.st809{fill:#FF8776;}
	.st810{fill:#FF7460;}
	.st811{fill:#FF9788;}
	.st812{fill:#FF7663;}
	.st813{fill:#20142E;}
	.st814{fill:#1D142D;}
	.st815{fill:#7F7282;}
	.st816{fill:#6D6C7C;}
	.st817{fill:#22132C;}
	.st818{fill:#7DD9E6;}
	.st819{fill:#6EB5C0;}
	.st820{fill:#795767;}
	.st821{fill:#171731;}
	.st822{fill:#202038;}
	.st823{fill:#535367;}
	.st824{fill:#303047;}
	.st825{fill:#4F4F63;}
	.st826{fill:#575769;}
	.st827{fill:#505064;}
	.st828{fill:#5B5C6D;}
	.st829{fill:#48485D;}
	.st830{fill:#767684;}
	.st831{fill:#636374;}
	.st832{fill:#2E2E46;}
	.st833{fill:#6E6E7E;}
	.st834{fill:#E5E4E7;}
	.st835{fill:#666576;}
	.st836{fill:#5A5A6C;}
	.st837{fill:#656475;}
	.st838{fill:#424257;}
	.st839{fill:#636373;}
	.st840{fill:#AAAAB3;}
	.st841{fill:#59596B;}
	.st842{fill:#656575;}
	.st843{fill:#2C2D44;}
	.st844{fill:#4A4A5F;}
	.st845{fill:#616172;}
	.st846{fill:#37374E;}
	.st847{fill:#5C5C6F;}
	.st848{fill:#9494A0;}
	.st849{fill:#3B3A50;}
	.st850{fill:#828290;}
	.st851{fill:#7D7D8B;}
	.st852{fill:#4B4C60;}
	.st853{fill:#717180;}
	.st854{fill:#36364C;}
	.st855{fill:#7B7B89;}
	.st856{fill:#7B7B88;}
	.st857{fill:#2E2F46;}
	.st858{fill:#737381;}
	.st859{fill:#A6A5AF;}
	.st860{fill:#47485C;}
	.st861{fill:#45455A;}
	.st862{fill:#39394F;}
	.st863{fill:#5E5E6E;}
	.st864{fill:#2A2B42;}
	.st865{fill:#616071;}
	.st866{fill:#2F3047;}
	.st867{fill:#2E2E45;}
	.st868{fill:#404056;}
	.st869{fill:#FFCFC8;}
	.st870{fill:#434258;}
	.st871{fill:#46455A;}
	.st872{fill:#6F6F7F;}
	.st873{fill:#AFAFB8;}
	.st874{fill:#5F5F70;}
	.st875{fill:#9F9FAA;}
	.st876{fill:#7C7B89;}
</style>
<g id="Layer_1">
	<path class="st15" d="M208.3,142.7c-0.9,4.4-1.8,8.8-4.4,12.4c-0.3,0.3-0.5,0.7-0.7,1c-1.1,1.7-0.8,3.6,0.7,4.5
		c1.6,1,3.4,0.9,5.2,0.6c0.4-0.1,0.8-0.2,1.2-0.3c0.3,0.4,0.1,0.7-0.2,1.1c-0.4,0.7-1,1.2-1.6,1.6c-2.4,1.5-5.7,0.7-7.3-1.6
		c-1.4-2.1-1.3-5.5,0.7-7c2.8-2.1,3.7-5.3,4.7-8.6c0.5-1.6,0.9-3.3,1.5-4.8C208.8,141.8,208.4,142.2,208.3,142.7z"/>
	<g>
		<path class="st5" d="M147.8,147.2c-0.1,0.8-0.2,1.6-0.3,2.4c-1.7,11.3-1.6,22.8-0.2,34.2c0.7,5,1.6,9.9,3,14.8
			c3.5,12.5,9.5,23.4,19.2,32.1c5.2,4.6,11.2,7.9,17.9,9.7c9.4,2.5,18.6,1.7,27.6-1.6c11.4-4.2,20.5-11.4,28.5-20.3
			c7.1-8,12.7-16.9,17.2-26.6c1.9-4.1,3.5-8.3,5-12.5c1.4-4.1,2.6-8.4,3.7-12.7c1-4.2,2.1-8.6,2.6-12.9c0.4-3.2,0.6-6.4,0.8-9.6
			c0.3-4.8,0.2-9.5-0.1-14.2c-0.3-4.6-0.9-9.2-1.8-13.7c-1.1-5.5-2.6-10.9-4.6-16.1c-0.1-0.2-0.3-0.5-0.3-0.7
			c-0.1-0.6-0.5-0.6-1-0.5c-6.4,2.2-12.7,1.7-18.9-0.4c-4.4-1.5-8.7-3.1-12.7-5.3c-1.7-0.9-3.3-1.9-4.9-2.9c-0.2,0-0.2-0.1-0.3-0.2
			c0-0.1-0.1-0.1-0.1-0.1c-0.1,0,0,0.1,0,0.1c0,0,0.1,0,0.2,0c0.1,0.1,0.2,0.2,0.3,0.4c3.2,3.4,6.6,6.3,10.5,8.7
			c2.6,1.5,5.2,3.2,8.2,4.3c1.2,0.4,2.3,0.8,3.5,1.2c0.1,0.2,0.1,0.3-0.1,0.5c-3.5-0.1-6.6-1.4-9.7-2.9c-7.1-3.3-13-8.2-18-14.2
			c-2.8-3.3-4.6-7-6.1-11c-0.2-0.7-0.3-1.3-0.3-2c0-0.4,0.2-0.7,0.5-0.9c0.4-0.1,0.7,0,1,0.3c0.4,0.5,0.7,1,0.9,1.7
			c0.3,1,0.9,2,1.4,2.9c1.2,2.6,3,4.5,5.4,6c4.1,2.6,8.1,5.4,12.6,7.2c3.2,1.3,6.4,2.7,9.8,3.6c5.2,1.5,10.5,1.6,15.7-0.1
			c2.2-0.7,4.3-1.5,6.4-2.3c1.2-0.5,2.4-0.7,3.7-0.8c0.5,0,0.7,0.2,0.4,0.6c-0.6,1-1.5,1.7-2.4,2.3c-1,0.6-2.1,1.1-3.1,1.7
			c-0.5,0.2-0.6,0.5-0.4,1c0.6,1.7,1.5,3.2,2.1,4.9c1,3,1.8,6.1,2.5,9.3c0.9,3.9,1.5,7.8,2,11.7c0.3,2.6,0.4,5.1,0.6,7.7
			c0.1,2.6,0.2,5.1,0.1,7.7c-0.2,9.1-0.8,13-1.5,17c-0.1,0.4-0.3,0.9-0.1,1.4c1.3-0.4,2.6-0.9,4.1-1.1c0.6,0,1.3,0,1.9,0.1
			c3.2,0.4,4.9,2.8,4.4,6c-0.1,0.8-0.3,1.6-0.8,2.3c-2,3.7-5,6.3-9.2,7.4c-0.3,0.1-0.7,0.2-1.1,0.1c-0.1-0.5,0.4-0.7,0.7-0.9
			c1.6-1.4,3-2.7,4.4-4.3c0.8-0.9,1.5-1.9,2-3c0.3-0.7,0.5-1.5,0.5-2.2c0-1-0.4-1.6-1.5-1.8c-0.6-0.1-1.3,0-1.9,0.1
			c-1.4,0.3-2.6,0.9-3.9,1.6c-0.7,0.4-1.1,1-1.3,1.8c-0.6,5.2-2.6,10-4,14.9c-1.2,4.2-2.9,8.1-4.7,12.1c-2,4.6-4.4,9.1-7,13.4
			c-4.4,7.3-9.6,13.9-15.7,19.9c-6,5.8-12.7,10.8-20.3,14.4c-4.5,2.1-9.2,3.6-14.1,4.5c-7.1,1.3-14.2,0.7-21.1-1.3
			c-4.4-1.3-8.4-3.3-12.1-5.8c-8.1-5.5-14.2-12.8-18.8-21.4c-1.4-2.6-2.7-5.4-3.8-8.2c-1.5-3.8-2.8-7.6-4-11.5
			c-0.6-1.9-0.9-4-1.3-5.9c-0.3-1.5-0.7-3-1.1-4.5c-0.5-2.2-0.6-4.5-0.9-6.7c-0.3-3.1-0.4-6.1-0.4-9.2c0-4.4-0.1-8.9,0.8-13.3
			c0-0.3,0.1-0.6,0.1-0.9c-0.1-4,0.8-7.9,1.3-11.7c0.2-1.3,0.5-2.7,0.7-4c0.2-1.2-0.9-2.7-2.1-2.7c-2.3-0.2-3.7,0.7-4.5,2.9
			c-1,2.9-0.9,5.8,0.4,8.6c0.6,1.2,1.2,2.3,1.8,3.5c0.1,0.3,0.4,0.5,0.3,0.9c-1,0.1-1.7-0.4-2.3-1c-1.4-1.3-2.6-3-3.3-4.8
			c-1.6-4.1-1.4-8.1,1.1-11.8c1.9-2.6,4.4-3.8,7.6-3.3c0.9,0.1,1.6,0.5,2.4,1c0.4-0.5,0.7-1,0.9-1.6c1.4-4.4,2.8-8.9,4.6-13.2
			c1.1-2.6,2.2-5.2,3.5-7.6c0.4-0.6,0.8-1.2,1.3-1.8c0.7-0.8,1.4-1.5,2.1-2.3c-0.1-0.4-0.5-0.4-0.7-0.5c-1.3-0.6-2.7-1.1-3.8-2.1
			c-0.8-0.6-1.3-1.4-1.5-2.4c-0.1-0.4,0-0.6,0.5-0.5c2.2,0.7,4.5,1,6.6,2.1c1.7,0.9,3.5,0.7,5.3,0.8c4.2,0.3,8.4-0.2,12.6-1.1
			c1-0.2,2-0.4,2.9-0.6c2.2-0.4,4.3-1,6.3-2c0.5-0.2,1-0.4,1.5-0.6c4.6-1.7,8.5-4.4,12-7.6c4.8-4.4,8.4-9.8,10.6-16.1
			c0.2-0.5,0.3-1,0.5-1.4c0.2-0.5,0.5-1,1.1-0.8c0.7,0.1,0.6,0.7,0.5,1.2c-0.1,0.9-0.4,1.7-0.8,2.5c-2.2,5.4-5.2,10.4-9.3,14.6
			c-3.6,3.7-7.7,6.7-12.4,9c-0.9,0.5-1.9,0.7-2.6,1.4c-0.2,0.1-0.4,0-0.6,0.1c-0.8,0.5-1.7,0.8-2.6,1.1c-0.3,0.4-0.8,0.1-1.2,0.4
			c-0.6,0.3-1.3,0.5-2,0.6c-0.5,0.3-1,0.2-1.5,0.3c-5.6,1.6-11.3,2.4-17.1,2.1c-2.7-0.2-2-0.5-3.3,1.8c-1.6,2.9-3,5.8-4.3,8.9
			c-1.4,3.4-2.8,6.9-3.9,10.5c-0.6,1.9-1.2,3.7-1.7,5.6c-0.7,2.5-1.4,4.9-1.9,7.5C148.4,142.8,148.1,145,147.8,147.2z"/>
		<path class="st5" d="M294.7,70.7c1.7,0.4,3.3,0.8,4.7,1.4c1.1-2.2,1-4.3,0.1-6.3c-1.4-3.1-3.6-5.5-6.5-7.3c-2-1.2-4.3-1.2-6.6-1.4
			c-0.6,0-0.8,0.3-0.9,0.9c-0.1,1.1-0.3,2.2-0.5,3.2c-0.3,1-0.7,2-1.3,2.8c-0.5,0.8-1.2,0.9-1.9,0.6c-0.6-0.3-0.9-1-0.6-1.8
			c1.8-5,1.2-10.2,0.9-15.3c0-0.3-0.1-0.6-0.2-0.9c-1.7-5.5-3.8-10.9-8.3-14.8c-3.4-3-7.1-5.6-11.3-7.4c-4-1.6-8-2-12-0.4
			c-1.1,0.4-2.2,0.8-3.3,1.2c-4.4,1.6-8.1,4.2-11.1,7.7c-0.1,0.1-0.2,0.2-0.3,0.3c0,0.1-0.1,0-0.2,0.1c-0.3-0.6,0.1-1.1,0.3-1.6
			c1.2-2,2.6-3.9,4.5-5.2c4.1-3,8.7-4.9,13.6-5.8c3-0.6,5.8,0.1,8.7,1.1c5.5,2.2,10.5,5.3,14.8,9.6c1.8,1.8,3.3,3.8,4.4,6.2
			c0.2,0.4,0.4,0.8,0.6,1.2c2.4,4.7,3.5,9.7,3.3,14.9c0,0.2,0,0.4,0,0.5c0.3,0.3,0.6,0.1,0.9,0.1c4.9-0.4,9,1,12.1,4.9
			c0.6,0.8,1.2,1.6,1.8,2.4c2.1,3.1,2.4,6.4,0.9,9.8c-0.6,1.3-0.5,1.3,0.7,2c1.8,1.2,3.3,2.5,4.6,4.2c1.6,2.2,2.3,4.7,2,7.4
			c-0.8,6.7-3.8,12.1-9.2,16.2c-0.9,0.7-2,1.3-3.3,1.9c0.5,0.3,0.8,0.5,1.1,0.6c2.7,1.6,5.1,3.7,6.9,6.2c5.1,7,7.4,14.9,7.1,23.5
			c-0.2,5.6-2.3,10.6-5.2,15.4c-3.1,5-7.5,8.4-12.7,11c-1.6,0.8-3.3,1.3-5,1.8c-0.5,0.1-1.1,0.3-1.6,0c-0.5-0.2-0.8-0.5-0.8-1.1
			c0-0.6,0.3-0.9,0.8-1.1c1.1-0.4,2.1-0.8,3.2-1.1c3.1-1,5.9-2.6,8.3-4.8c5.3-4.8,8.5-10.9,9.7-17.9c0.4-1.9,0.3-3.9,0.1-5.8
			c-0.5-6.2-2-12.1-5.5-17.4c-3-4.5-7.1-7.5-12.3-9.1c-2-0.6-4-1.1-6.1-1.4c-0.7-0.1-1.8-0.1-1.7-0.9c0.1-0.7,1.2-0.6,1.9-0.6
			c2.6,0.1,5.3,0.5,7.7,1.4c0.6,0.2,1.1,0.2,1.7,0c2.5-0.9,4.5-2.4,6.2-4.3c3.2-3.3,5.1-7.2,5.8-11.7c0.3-2-0.1-3.8-1.2-5.4
			c-1.4-2.2-3.3-3.8-5.4-5.3c-1.2-0.9-2.4-1.7-3.5-2.6C295.4,71.9,294.9,71.5,294.7,70.7z"/>
		<path class="st5" d="M138.4,50.2c-2.3-1.2-4.6-2.3-7.1-3.1c-2.6-0.8-5.2-0.8-7.8-0.2c-4.4,1.1-8.5,2.9-12.1,5.6
			c-2.6,2-4.8,4.3-5.9,7.4c-1.4,3.9-1.4,7.9,0,11.9c1,2.8,2.4,5.5,4.2,7.9c0.8,1.2,0.8,1.1,2.1,0.5c2.9-1.5,5.7-3.1,8.9-3.9
			c0.3-0.1,0.4,0.1,0.3,0.4c-1.1,0.8-2.4,1.5-3.6,2.2c-3.5,1.9-6.7,4.2-9.8,6.6c-4.4,3.4-7,8-8.9,13.1c-1.6,4.3-2,8.6-1.5,13.1
			c0.8,6.5,3.7,12,8.5,16.4c6.3,5.7,13.7,9,22.1,9.9c1.1,0.1,2.1,0.3,3.3,0.5c0,0.5-0.3,1-0.3,1.4c0,1.4-0.9,1.8-2.1,2
			c-3.1,0.4-6.1,0.1-9.2-0.5c-7.3-1.7-13.4-5.4-18.5-10.8c-5.4-5.8-8-12.7-7.8-20.7c0.1-7.4,2.6-13.9,6.9-19.8
			c1.6-2.3,3.7-4.2,6-5.8c0.6-0.5,1.3-0.9,2.1-1.5c-2.2-1.8-3.7-4.2-5.2-6.4c-4.8-7-4.9-18.4,2.9-25.4c5.5-5,11.9-7.6,19.4-7.6
			c1.7,0,3.3,0.4,4.9,1c2.2,0.8,4.2,2,6.1,3.2c1,0.7,2,1.5,2.6,2.5C138.8,50.2,138.6,50.3,138.4,50.2z"/>
		<path class="st5" d="M136.2,46.6c-0.7-1.8-1-3.5-1.2-5.1c-0.5-4.4,0.3-8.8,1.7-13c1.1-3.4,2.6-6.7,4.3-9.8
			c2.5-4.5,5.8-8.1,10-11.1c7.9-5.5,16.6-7.4,26-6.2c5.8,0.8,11.5,2.1,17,4.2c8.1,3.1,14.4,8.4,19.1,15.7c0.2,0.3,0.4,0.8,0.8,1.1
			c0.5-0.7,0.9-1.4,1.5-2.1c3.2-3.7,7.1-4.9,11.8-3.8c3.7,0.9,6.2,3.8,6.6,7.6c0.3,3-0.2,6-1.2,8.8c-0.4,1.1-1.1,2.1-1.9,2.9
			c-0.3,0.4-0.6,0.8-1.2,0.8c-0.3-0.3-0.2-0.6-0.2-0.9c0.1-2.5,0.4-5.1,0.4-7.6c0-0.9-0.1-1.8-0.4-2.7c-0.7-3.3-2.7-4.9-6.1-4.9
			c-3.4,0-5.7,2-7.6,4.6c-0.3,0.4-0.1,0.8,0.1,1.1c0.6,1.4,1.2,2.6,1.6,4c0.3,1,0.5,2.1,0.3,3.2c-0.1,0.4,0,0.9-0.5,1
			s-0.7-0.4-0.9-0.7c-1.2-1.9-2.2-3.8-3.1-5.9c-1.5-3.2-3.6-6.1-5.8-8.8c-4.2-5.2-9.6-8.8-15.8-11C185,6,178.4,4.4,171.5,4
			c-5.5-0.3-10.7,0.8-15.7,3.2c-8.9,4.4-14.3,11.6-17.4,20.7c-1.8,5.4-2.5,11-2.3,16.7C136.3,45.2,136.3,45.8,136.2,46.6z"/>
		<path class="st20" d="M234.1,115.7c0.1-0.8,0.2-1.7,0.4-2.5c0.2-0.8,0.6-1.2,1.3-1.1c0.5,0.1,0.9,0.6,0.9,1.3
			c-0.2,1.8-0.4,3.7-0.8,5.5c0,0.2-0.2,0.4-0.3,0.6c-0.2,0.3-0.5,0.6-0.9,0.5c-0.5-0.1-0.7-0.4-0.8-0.8c-0.1-0.4-0.1-0.8,0-1.2
			C233.8,117.2,233.9,116.4,234.1,115.7C234,115.7,234.1,115.7,234.1,115.7z"/>
		<path class="st821" d="M188.5,112.4c-0.2,0.9-0.4,1.8-0.6,2.7c-0.1,0.4-0.3,0.8-0.8,0.8c-0.5,0-0.7-0.4-0.8-0.8
			c-0.2-1.9,0-3.8,0.6-5.6c0.2-0.5,0.6-0.7,1.1-0.6c0.5,0.1,0.8,0.5,0.8,1C188.8,110.6,188.7,111.5,188.5,112.4z"/>
		<path class="st822" d="M273,167.6c0.3-1.3,0.9-2.3,1.8-3.2c0.4-0.3,0.8-0.5,1.2-0.1c0.4,0.3,0.3,0.7,0.1,1.1
			C275.3,166.4,274.3,167.1,273,167.6z"/>
		<path class="st41" d="M142.9,142.5c0,0.1,0,0.3-0.1,0.5c-0.2,0.3-0.4,0.4-0.6,0.1c-0.4-0.4-0.6-0.9-0.7-1.4
			c-0.1-0.4,0-0.8,0.5-0.9c0.5-0.1,0.8,0.2,0.9,0.6C143,141.7,143,142.1,142.9,142.5z"/>
		<path class="st823" d="M237.2,106.7c0.1,1-0.5,1.9-0.7,2.8c-0.2-1,0.1-1.9,0.5-2.8C237.1,106.5,237.2,106.6,237.2,106.7z"/>
		<path class="st824" d="M181,104.2c0.4-0.3,0.9-0.3,1.5-0.3c-0.3,0.2-0.5,0.5-0.3,0.9c0.1,0.3,0.2,0.7,0.3,1
			c-0.1,0.1-0.2,0.1-0.2,0c-0.3-0.3-0.3-0.6-0.4-1C181.7,104.3,181.4,104.2,181,104.2z"/>
		<path class="st825" d="M192,103.8c-0.3,0.8-0.6,1.7-1.2,2.3c0.1-0.9,0.4-1.7,0.9-2.4C191.8,103.7,191.9,103.7,192,103.8z"/>
		<path class="st255" d="M184.4,103.3c0.3-0.4,0.8-0.3,1.2-0.4c-0.1,0.6-0.2,1.2-0.3,1.8c0.1,0.3,0,0.3-0.3,0.3c0-0.4,0-0.7,0-1
			C185.2,103.4,184.9,103.3,184.4,103.3z"/>
		<path class="st826" d="M237.2,105.3c0.1-0.8,0.4-1.5,0.7-2.3c0.1,0.8-0.1,1.6-0.5,2.3C237.4,105.5,237.3,105.5,237.2,105.3z"/>
		<path class="st827" d="M188.2,101.9c0.1-0.3,0.4-0.2,0.6-0.1c-0.1,0.7-0.1,1.4-0.4,2.1c-0.1,0.1-0.2,0.1-0.3,0
			C188.1,103.2,188.7,102.5,188.2,101.9z"/>
		<path class="st828" d="M196.2,103.6c-0.3,0.5-0.6,1.1-1,1.5c-0.1-0.1-0.1-0.2-0.2-0.3c0.2-0.5,0.5-1,0.9-1.3
			C196,103.5,196.1,103.5,196.2,103.6z"/>
		<path class="st829" d="M233.4,107c-0.2-0.7-0.2-1.3,0-1.9c0.1-0.1,0.2-0.1,0.3,0c0,0.6,0,1.3,0,1.9
			C233.5,107.1,233.4,107.1,233.4,107z"/>
		<path class="st830" d="M244.5,108c0.2-0.4,0.5-0.8,0.9-1c0.1,0.1,0.2,0.2,0.2,0.3c-0.3,0.4-0.5,0.8-0.9,1
			C244.6,108.2,244.5,108.2,244.5,108z"/>
		<path class="st829" d="M233.4,107c0.1,0,0.2,0,0.3,0c0,0.5,0.2,0.9,0.1,1.4c-0.1,0.1-0.2,0.1-0.3,0
			C233.3,107.9,233.2,107.5,233.4,107z"/>
		<path class="st831" d="M185.1,105.1c0.1-0.1,0.2-0.2,0.3-0.3c0.3,0.5,0.1,1-0.1,1.6C185,105.9,185.1,105.4,185.1,105.1z"/>
		<path class="st832" d="M243.2,109.7c0.2-0.4,0.4-0.8,0.8-1c0.1-0.1,0.2-0.1,0.2,0c-0.2,0.4-0.4,0.8-0.8,1
			C243.3,109.9,243.2,109.9,243.2,109.7z"/>
		<path class="st833" d="M230.2,109.8c-0.4-0.3-0.3-0.7-0.4-1.1c0.1-0.1,0.1-0.3,0.3-0.3c0.3,0.4,0.2,0.8,0.3,1.2
			C230.4,109.7,230.3,109.7,230.2,109.8z"/>
		<path class="st834" d="M271.9,42.7c-0.1,0.6-0.5,0.7-0.9,0.9C271.1,43,271.4,42.9,271.9,42.7z"/>
		<path class="st835" d="M229.6,106.4c0.3,0.3,0.3,0.6,0.3,0.9c-0.1,0.1-0.1,0.2-0.3,0.2c-0.3-0.4-0.4-0.7-0.4-1.2
			C229.4,106.3,229.5,106.3,229.6,106.4z"/>
		<path class="st836" d="M233.6,105.1l-0.1,0l-0.1,0c-0.4-0.5-0.1-0.9-0.1-1.4c0.1-0.1,0.2-0.1,0.3,0
			C233.5,104.2,233.5,104.6,233.6,105.1z"/>
		<path class="st837" d="M194.7,105.9c-0.2,0.4-0.2,0.8-0.7,1c-0.1-0.1-0.1-0.1-0.2-0.2c0.1-0.3,0.2-0.7,0.5-0.8
			C194.6,105.7,194.7,105.7,194.7,105.9z"/>
		<path class="st838" d="M237.2,105.3c0.1,0,0.2,0,0.2,0c0,0.5-0.1,0.9-0.2,1.3c-0.1,0-0.2,0-0.3,0
			C236.9,106.2,237.1,105.7,237.2,105.3z"/>
		<path class="st839" d="M229.1,104.7c0.2,0.2,0.3,0.6,0.3,0.9c-0.1,0.1-0.2,0.1-0.3,0c-0.3-0.3-0.2-0.6-0.3-0.9
			C228.9,104.6,229,104.6,229.1,104.7z"/>
		<path class="st840" d="M193.1,100.5c0-0.3,0.2-0.6,0.4-0.4c0.4,0.3,0.1,0.5-0.2,0.7C193.2,100.7,193.2,100.6,193.1,100.5z"/>
		<path class="st229" d="M193.1,100.5c0.2,0,0.2,0.2,0.3,0.3c0,0.3-0.2,0.6-0.4,0.7c-0.1,0.1-0.2,0.1-0.3,0
			C192.8,101.2,193,100.8,193.1,100.5z"/>
		<path class="st841" d="M250.4,105.3c0-0.2,0-0.3,0.1-0.5c0.3,0,0.7,0.1,0.6,0.5C251,105.5,250.6,105.3,250.4,105.3z"/>
		<path class="st842" d="M241.3,105.6c0.2-0.4,0.2-0.8,0.6-1.1c0,0.1,0,0.1,0.1,0.1c-0.1,0.4-0.1,0.7-0.5,1
			C241.4,105.8,241.3,105.8,241.3,105.6z"/>
		<path class="st843" d="M188.2,103.9c0.1,0,0.2,0,0.3,0c0,0.5-0.1,0.9-0.2,1.3c-0.1,0.1-0.2,0.1-0.2,0
			C188,104.7,188.1,104.3,188.2,103.9z"/>
		<path class="st844" d="M192.6,102.3c0,0.4-0.1,0.8-0.5,1c-0.1,0.1-0.2,0.1-0.3,0c0.2-0.3,0.3-0.7,0.5-1
			C192.4,102.2,192.5,102.2,192.6,102.3z"/>
		<path class="st845" d="M239.8,109.3c0,0.3-0.2,0.5-0.4,0.6c-0.1-0.5-0.1-0.5,0.2-1C239.8,109,239.8,109.1,239.8,109.3z"/>
		<path class="st824" d="M243.3,110c-0.1,0.3-0.2,0.5-0.7,0.7c0.2-0.3,0.1-0.6,0.5-0.7C243.2,109.9,243.2,109.9,243.3,110z"/>
		<path class="st846" d="M230.2,108.4c-0.1,0.1-0.2,0.2-0.3,0.3c-0.1-0.3-0.1-0.5-0.1-0.8c0.1-0.1,0.2-0.1,0.3,0
			C230.2,108,230.2,108.2,230.2,108.4z"/>
		<path class="st225" d="M245.6,107.3c-0.1-0.1-0.1-0.2-0.2-0.3c0.1-0.2,0.3-0.4,0.5-0.5c0,0.1,0.1,0.1,0.1,0.2
			C246.1,107,245.8,107.1,245.6,107.3z"/>
		<path class="st847" d="M120.9,76.8c-0.1-0.1-0.2-0.2-0.3-0.4c0.2-0.2,0.5-0.4,0.7-0.1C121.6,76.6,121.2,76.7,120.9,76.8z"/>
		<path class="st383" d="M240.1,107.9c0.1-0.2,0.2-0.5,0.4-0.8c0.1-0.1,0.2-0.1,0.3,0c0,0.3,0,0.6-0.4,0.8
			C240.3,108.1,240.2,108.1,240.1,107.9z"/>
		<path class="st848" d="M228.5,103.8c0-0.1,0-0.1-0.1-0.1c-0.1-0.2-0.3-0.5,0-0.6c0.2-0.1,0.3,0.3,0.4,0.5
			C228.8,103.7,228.7,103.9,228.5,103.8z"/>
		<path class="st849" d="M240.1,107.9c0.1,0,0.2,0,0.3,0c0,0.3-0.1,0.6-0.4,0.8c-0.1,0.1-0.2,0.1-0.3,0
			C239.9,108.5,240,108.2,240.1,107.9z"/>
		<path class="st850" d="M182.6,106.4c0,0.1,0,0.1,0.1,0.1c0.1,0.2,0.2,0.5,0,0.6c-0.4,0.2-0.3-0.2-0.4-0.5
			C182.4,106.5,182.5,106.4,182.6,106.4z"/>
		<path class="st177" d="M241.3,105.6c0.1,0,0.2,0,0.3,0c0,0.3-0.1,0.6-0.4,0.8c-0.1,0.1-0.2,0.1-0.3,0
			C241,106.1,241.2,105.9,241.3,105.6z"/>
		<path class="st851" d="M228.5,103.8c0.1-0.1,0.2-0.2,0.3-0.3c0,0.2,0.1,0.4,0.1,0.6c-0.1,0.1-0.1,0.2-0.2,0.2
			C228.6,104.3,228.5,104.1,228.5,103.8z"/>
		<path class="st852" d="M192.6,102.3c-0.1,0-0.2,0-0.3,0c0.1-0.2,0.2-0.5,0.4-0.8c0.1,0,0.2,0,0.3,0
			C192.9,101.8,192.9,102.1,192.6,102.3z"/>
		<path class="st87" d="M240.9,106.4c0.1,0,0.2,0,0.3,0c0,0.3,0,0.6-0.4,0.8c-0.1,0-0.2,0-0.3,0
			C240.6,106.9,240.8,106.6,240.9,106.4z"/>
		<path class="st383" d="M195,104.8c0,0.1,0.1,0.2,0.2,0.3c0,0.2-0.1,0.4-0.3,0.5c-0.1,0.1-0.2,0.1-0.2,0
			C194.7,105.3,194.8,105.1,195,104.8z"/>
		<path class="st853" d="M247,105.9c-0.1,0.3-0.2,0.4-0.5,0.5c-0.1,0.1-0.2,0.1-0.3,0c0.1-0.3,0.3-0.4,0.5-0.5
			C246.8,105.8,246.9,105.8,247,105.9z"/>
		<path class="st825" d="M188,105.2c0.1,0,0.2,0,0.2,0c0,0.1,0,0.2,0,0.3c-0.1,0.1,0,0.5-0.3,0.4c-0.2,0-0.1-0.3,0-0.4
			C187.9,105.4,188,105.3,188,105.2z"/>
		<path class="st428" d="M229.1,105.6c0.1,0,0.2,0,0.3,0c0,0.2,0.1,0.4,0.1,0.5c-0.1,0.1-0.2,0.1-0.2,0
			C229.1,106,229.1,105.8,229.1,105.6z"/>
		<path class="st833" d="M138.4,50.2c0.1-0.1,0.2-0.2,0.4-0.3c0.2,0.1,0.3,0.3,0.1,0.5C138.7,50.5,138.5,50.3,138.4,50.2z"/>
		<path class="st854" d="M182.6,106.4c-0.1,0.1-0.2,0.1-0.3,0.2c0-0.2-0.1-0.4-0.1-0.5c0.1-0.1,0.2-0.1,0.2,0
			C182.6,106.1,182.6,106.2,182.6,106.4z"/>
		<path class="st855" d="M233.7,108.9c0.1,0.1,0.2,0.4,0,0.4c-0.4,0.1-0.3-0.2-0.4-0.5C233.5,108.8,233.6,108.8,233.7,108.9z"/>
		<path class="st856" d="M233.5,103.7c-0.1,0-0.2,0-0.3,0c-0.1-0.1-0.2-0.4-0.1-0.4C233.5,103.1,233.5,103.4,233.5,103.7z"/>
		<path class="st857" d="M244.5,108c0,0.1,0.1,0.2,0.2,0.3c-0.1,0.1-0.1,0.2-0.3,0.2c-0.1,0.1-0.2,0.1-0.2,0
			C244.3,108.4,244.4,108.2,244.5,108z"/>
		<path class="st858" d="M196,103.4c0.1-0.1,0.1-0.1,0.1-0.2c0.1-0.1,0.2-0.4,0.4-0.2c0.2,0.2,0,0.4-0.2,0.5
			C196.2,103.4,196.1,103.4,196,103.4z"/>
		<path class="st859" d="M228.2,90.6c-0.3,0-0.3-0.3-0.5-0.4c-0.1-0.1-0.1-0.2-0.1-0.2c0-0.1,0.1-0.1,0.1-0.1
			c0.2,0.1,0.5,0.1,0.5,0.4C228.3,90.4,228.3,90.5,228.2,90.6z"/>
		<path class="st860" d="M233.7,108.9c-0.1,0-0.2,0-0.3,0c0-0.2,0-0.4,0-0.5c0.1,0,0.2,0,0.3,0C233.7,108.6,233.7,108.8,233.7,108.9
			z"/>
		<path class="st854" d="M230,107.9c-0.1,0-0.2,0-0.3,0c0-0.1-0.1-0.2-0.1-0.3c0.1-0.1,0.2-0.2,0.3-0.2
			C230,107.5,230,107.7,230,107.9z"/>
		<path class="st861" d="M191.9,103.3c0.1,0,0.2,0,0.3,0c0,0.2-0.1,0.4-0.1,0.5c-0.1,0-0.2,0-0.3,0
			C191.8,103.6,191.9,103.4,191.9,103.3z"/>
		<path class="st862" d="M239.8,108.7c0.1,0,0.2,0,0.3,0c-0.1,0.1-0.1,0.4-0.2,0.5c0-0.1-0.1-0.2-0.2-0.3
			C239.6,108.9,239.7,108.8,239.8,108.7z"/>
		<path class="st863" d="M241.9,104.6c0.1-0.1,0.1-0.4,0.3-0.3c0.1,0.1,0.1,0.3-0.2,0.4C242,104.6,241.9,104.6,241.9,104.6z"/>
		<path class="st185" d="M228.8,104.4c0.1-0.1,0.2-0.1,0.2-0.2c0,0.2,0.1,0.3,0.1,0.5c-0.1,0-0.2,0-0.3,0
			C228.7,104.6,228.7,104.5,228.8,104.4z"/>
		<path class="st65" d="M246.1,106.3c0.1,0,0.2,0,0.3,0c-0.1,0.1-0.1,0.3-0.4,0.3c0-0.1,0-0.1-0.1-0.1
			C246,106.4,246,106.4,246.1,106.3z"/>
		<path class="st864" d="M229.4,106.1c0.1,0,0.2,0,0.2,0c0,0.1,0,0.2,0.1,0.3c-0.1,0-0.2,0-0.3,0
			C229.3,106.3,229.3,106.2,229.4,106.1z"/>
		<path class="st865" d="M247,105.6c0.1,0,0.1-0.1,0.1-0.2c0,0.1,0.1,0.1,0.1,0.1C247.2,105.6,247.1,105.6,247,105.6
			C247.1,105.6,247,105.6,247,105.6z"/>
		<path class="st74" d="M243.3,110c-0.1,0-0.2,0-0.2,0c0.1-0.1,0.1-0.1,0.1-0.2c0.1,0,0.2,0,0.2,0C243.4,109.9,243.3,110,243.3,110z
			"/>
		<path class="st866" d="M182.4,106.1c-0.1,0-0.2,0-0.2,0c0-0.1,0-0.2,0-0.3c0.1,0,0.2,0,0.2,0C182.4,105.9,182.4,106,182.4,106.1z"
			/>
		<path class="st825" d="M193.9,106.6c0,0.1,0.1,0.2,0.2,0.2C193.9,106.9,193.9,106.8,193.9,106.6z"/>
		<path class="st110" d="M247,105.9c-0.1,0-0.2,0-0.3,0c0.1-0.1,0.1-0.3,0.4-0.3l0,0.1C247,105.7,247,105.8,247,105.9z"/>
		<path class="st867" d="M244.2,108.5c0.1,0,0.2,0,0.2,0c-0.1,0.1-0.1,0.1-0.1,0.2c-0.1,0-0.2,0-0.2,0
			C244.1,108.6,244.2,108.6,244.2,108.5z"/>
		<path class="st305" d="M194.6,105.6c0.1,0,0.2,0,0.2,0c0,0.1,0,0.2-0.1,0.3c-0.1,0-0.2,0-0.3,0
			C194.5,105.8,194.6,105.7,194.6,105.6z"/>
		<path class="st868" d="M196,103.4c0.1,0,0.2,0,0.3,0c-0.1,0.1-0.1,0.1-0.1,0.2l-0.1,0l-0.1,0C195.9,103.5,195.9,103.4,196,103.4z"
			/>
		<path class="st611" d="M230.2,109.8c0.1,0,0.2-0.1,0.2-0.2C230.5,109.8,230.4,109.9,230.2,109.8z"/>
		<path class="st869" d="M147.3,152.1l-0.1,0l-0.1,0c0-0.1,0-0.3,0.1-0.4C147.4,151.8,147.3,152,147.3,152.1z"/>
		<path class="st836" d="M227.8,89.9c0,0.1,0,0.2,0,0.3c-0.2-0.1-0.4-0.2-0.3-0.5C227.5,89.6,227.7,89.7,227.8,89.9z"/>
	</g>
	<g>
		<path class="st1" d="M274.2,148.6c0,0,0.1-0.7,0.2-1.5c0.1-0.9,0.3-2.4,0.3-2.4c-1,0.7-0.9,2.5-1.3,2.8c-1.6,1.3,0.4-1.4-1,0.1
			c-4.1,4.5-8.1,9-11.8,13.8c-3.7,4.9-8.2,9-11.9,13.8c-0.1,0.2-0.2,0.4-0.3,0.6c-0.1,0-0.1,0.1-0.2,0.2c-0.1,0-0.1,0-0.1,0
			c0,0.2-0.1,0,0-0.1c0.1-0.1,0.2-0.2,0.3-0.3c0.1-0.2,0.2-0.3,0.2-0.5c0.1-0.4,0.3-0.7,0.4-0.9c1.3-3.2,2.5-6.5,2.9-9.9
			c0.3-2.8,0.8-5.5,1.2-8.3c0.1-1,0.6-1.6,1.5-2.1c3.3-1.8,6.6-3.4,9.7-5.4c0.8-0.5,1.6-0.9,2.3-1.4c0.8-0.5,1.5-1,2.3-1.5
			s1.5-1,2.3-1.5c0.8-0.5,1.5-1,2.3-1.5s0.2,0.1,1.1-0.4c0.8-0.5-0.8,0.6,0,0.1c0.2-0.1,0.4-0.3,0.5-0.4l0.2-2.9
			c-4.5,2.7-6.2,3.1-10.1,5.4c-4.1,2.5-8.3,4.9-12.4,7.4c-0.9,0.6-0.9,0.5-1.6-0.4c-3.2-4.1-7.4-5.9-12.6-5.5
			c-1.5,0.1-3.1,0.4-4.6,0.6c-3.8,0.5-7.4,1.6-10.8,3.2c-4,1.8-7.9,3.9-11.7,6.1c-2,1.2-3.8,2.5-5.7,3.8c-0.5,0.4-0.8,0.4-1.3-0.1
			c-0.9-1.1-2-2.1-2.9-3.1c-4-4.1-8.2-7.9-12.9-11.2c-2.3-1.5-4.7-2.7-7.3-3.3c-3-0.6-6-0.1-8.8,1.1c-0.9,0.4-0.9,0.4-1.4-0.4
			c-0.7-1.1-1.3-2.2-2-3.2c-1.6-2.5-2.9-5.2-4.6-7.7c-2.8-4.1-5.5-8.3-7.9-12.7c-0.8-1.4-1.4-2.6-2.3-3.9l-0.8,2.8
			c2.2,4.9,3.6,7.6,6.5,12.2c3,4.6,5.3,9.5,8.5,14c0.4,0.6,0.6,1.2,0,1.8c-1.5,1.5-2.2,3.4-3.2,5.2c-2.1,3.9-2.5,8-2.1,12.2
			c-0.5-1.7-1-3.4-1.6-5c-1.3-4.2-2.6-8.3-3.9-12.5c-2.4-7.8-4.6-15.5-6.7-22.7c0-0.4-0.1-0.9-0.2-1.3c-0.1-0.3-0.1-0.6-0.3-0.7
			c-0.1-0.5-0.3-1-0.5-1.6c-2.4-8.8-7.6-14.3-16.2-17.3c-11.9-4.2-22.8-2.6-30.8,4.4c-2.1,1.8-3.9,3.9-5.6,5.9
			c-2.8,3.2-5.5,6.3-9.2,8.3c-0.1,0.1-0.2,0.2-0.4,0.3c-9.5,3.8-22.7-1.5-35.7-8.2c8.2-2.2,15.9-4.7,21.8-6.6c5.5-1.8,9.3-3,10.1-3
			c0.8,0,1.5-0.7,1.5-1.5c0-0.8-0.7-1.5-1.5-1.5c-1.2,0-5.3,1.3-11,3.1c-6.6,2.1-15.5,5-24.7,7.4c-2-1.1-4-2.1-5.9-3.2
			c-8-4.3-15.5-8.4-21.8-10.4c-2.1-16.9-4.7-34-7.4-51.1c-1.4-9-2.7-17.9-3.9-26.2c-0.1-0.8-0.9-1.4-1.7-1.3
			c-0.9,0.1-1.4,0.9-1.3,1.7c0.8,8.4,1.6,17.3,2.4,26.3c1.5,16.4,2.9,32.9,4.9,49.2c-5.1-0.1-8.6,2.4-10.1,8.7
			c-1.9,7.9,1.8,11.9,8.5,13.4c8.5,2,22.5-0.5,36-4c14.6,7.7,30,14.5,41.2,9.8c0.2,0,0.4-0.1,0.6-0.2c0.4-0.2,0.8-0.5,1.2-0.7
			c1.9-1.1,3.7-2.5,5.3-4.4c1.3-1.3,2.5-2.7,3.6-4c1.7-1.9,3.4-3.9,5.3-5.6c4.1-3.6,13.1-8.9,27.5-3.8c7.6,2.7,12,7.3,14.2,15.1
			c1.5,5.4,3.1,11.1,4.8,16.9c1.3,5.8,3.1,11.5,4.7,17.2c0.8,3.1,2,6,3,9c0.9,2.7,1.8,5.3,2.8,8c0,0.1,0.1,0.2,0.1,0.3
			c0,0.1,0.1,0.2,0.1,0.3c3.7,10.3,7.7,20.5,14.1,29.5c2.7,3.9,11.9,18.2,17.3,17.6c23.9-2.7,39.9-17.9,52.7-37.5
			c2.7-4.1,6.4-7.4,9.7-11c0.2-0.2,0.3-0.4,0.5-0.6c0.6-0.7,1.3-1.4,1.8-2.2c0.6-0.7,1.2-1.4,1.8-2.2c0.6-0.7,1.2-1.5,1.8-2.2
			c0.6-0.7,1.2-1.5,1.8-2.2c0.6-0.7,1.2-1.5,1.8-2.2c0.6-0.7,1.2-1.5,1.8-2.2c0.6-0.7,1.3-1.4,1.8-2.2s1.3-1.4,1.9-2.1
			c0.5-0.5,0.9-1.1,1.4-1.6c0.3-0.5,0.6-1,0.6-1C274,150,274.2,149.2,274.2,148.6z M17.8,99.6l0.1,0.4c0.3,1.9,0.4,3.6,0.4,4.9
			c-0.1,0.5,0,0.9-0.1,0.9c0,0-0.2-0.4-0.3-1c-0.3-1.3-0.6-3.1-0.8-5.2l0-0.1l0-0.1l0-0.1l0.3,0.1C17.4,99.5,17.6,99.5,17.8,99.6z
			 M13.9,70.7c1.3,8.6,2.5,17.2,3.5,25.7c-0.3-0.1-0.6-0.1-0.8-0.2C15.6,87.8,14.8,79.3,13.9,70.7z M12.7,115.1
			c-5-1.2-7.6-4.1-6.2-9.9c1-4.6,3.7-6.3,7.5-6.3l0,0.1l0.1,0.8l0,0.1c0.3,2.2,0.5,4.2,0.9,5.7c0.7,2.1,1.7,3.4,3.6,3.1
			c1.8-0.2,2.5-1.5,2.7-3.6c0.1-1.3-0.1-2.8-0.3-4.5c5.8,2,12.7,5.8,20,9.7c1,0.6,2.1,1.1,3.1,1.7C32.1,114.9,20.1,116.8,12.7,115.1
			z"/>
		<path class="st1" d="M274.2,150.4c-0.7,0.7-0.1-0.3-0.7,0.4c-0.1,0.2-0.3,0.3-0.4,0.5c-0.6,1.1-1.1,2.2,0.9-0.4
			C274.2,150.6,274.5,150.1,274.2,150.4z"/>
	</g>
</g>
<g id="Layer_2">
</g>
</svg>
