<svg id="Layer_1" data-name="Layer 1" xmlns="http://www.w3.org/2000/svg" viewBox="0 0 324.92 247.1"><defs><style>.cls-1{fill:#14142e;}.cls-2{fill:#13132d;}.cls-3{fill:#15152e;}.cls-4{fill:#171731;}.cls-5{fill:#25253d;}.cls-6{fill:#545466;}.cls-7{fill:#434258;}.cls-8{fill:#46455a;}.cls-9{fill:#4f4f63;}.cls-10{fill:#1a1a33;}.cls-11{fill:#39394f;}.cls-12{fill:#6f6f7f;}.cls-13{fill:#afafb8;}.cls-14{fill:#5f5f70;}.cls-15{fill:#9f9faa;}.cls-16{fill:#7c7b89;}.cls-17{fill:#4b4b5f;}.cls-18{fill:#ff5d47;}.cls-19{fill:#ff5f48;}</style></defs><path class="cls-1" d="M243.38,160.61a2.92,2.92,0,0,1-4.69,1.43,8,8,0,0,1-2.59-3.32,25.4,25.4,0,0,1-1.5-5.85c-.34-2.43-.7-4.91-.95-7.37s-.24-5.05-.38-7.54c0-1.22-.11-2.38-.15-3.61,0-.34,0-.72,0-1.06a1,1,0,0,1,1.92-.19c.12.41,0,.89.13,1.37.44,2.17.65,4.36.94,6.58.27,1.83.4,3.71.52,5.59a77.42,77.42,0,0,0,.86,8.74,8.13,8.13,0,0,0,1.31,3.37,3.78,3.78,0,0,0,4,1.83C243,160.51,243.09,160.59,243.38,160.61Z"/><path class="cls-2" d="M316.06,93.37c.67-3.35,1.38-6.72,2-10.06a50.09,50.09,0,0,0,.73-9.8c0-3.64-.24-7.24-.55-10.86a44.19,44.19,0,0,0-3.13-13.24,44,44,0,0,0-3.19-5.67,80.84,80.84,0,0,0-5.19-7.42c-3.53-4.39-7.2-8.67-11.78-12.06-2.41-1.8-4.62-3.89-7.17-5.59a73.73,73.73,0,0,0-16.65-8.1,77.77,77.77,0,0,0-13.42-4c-4.09-.67-8.16-1.62-12.35-1.92a44.58,44.58,0,0,0-5.42,0c-2.82.18-5.65.31-8.47.67a66.56,66.56,0,0,0-15.15,4.22,105.21,105.21,0,0,0-11.39,4.93,78.79,78.79,0,0,0-9.25,5.47c-2.31,1.66-4.67,3.16-6.91,4.86-4,3.08-8.25,6-11.58,9.84a38.84,38.84,0,0,0-6.74,11.51,52.47,52.47,0,0,0-2.72,9.55,13.5,13.5,0,0,0,0,2.54c0,.51.09,1.21-.56,1.47s-1.12-.17-1.55-.66a4.33,4.33,0,0,1-1-2.89,22.8,22.8,0,0,1,1.14-7.89,43.39,43.39,0,0,1,8.68-16.21,55.33,55.33,0,0,1,8.22-8c3-2.25,5.78-4.68,8.83-6.85a87,87,0,0,1,10.72-6.76,115.88,115.88,0,0,1,18.78-7.64A51.68,51.68,0,0,1,235.08.33c2.06-.06,4.14-.25,6.21-.31a48.15,48.15,0,0,1,10.36,1c3.46.63,7,1.2,10.38,1.9a92.46,92.46,0,0,1,12.5,3.91A72.62,72.62,0,0,1,292.42,16c2.73,1.93,5.07,4.26,7.63,6.4,3.64,3.06,6.54,6.85,9.46,10.52a66.29,66.29,0,0,1,7,11.26,46.1,46.1,0,0,1,4.62,13.11,74.59,74.59,0,0,1,1,15.35c-.21,5.41-.76,10.81-2.78,16a23.32,23.32,0,0,1-2.76,5.17C316.27,93.87,316.12,93.75,316.06,93.37Z"/><path class="cls-2" d="M150.11,147a38,38,0,0,1-5.88-5.81,74.45,74.45,0,0,1-5.78-7c-1.51-2.18-2.71-4.46-4-6.71-2.26-3.93-3.43-8.3-4.47-12.66a44.37,44.37,0,0,1-1.07-12,49.81,49.81,0,0,1,3.57-16.74,45.93,45.93,0,0,1,8.29-12.88,34.05,34.05,0,0,1,6-5.54,17,17,0,0,1,3.56-2c.5-.21.73-.39.61-1a20.84,20.84,0,0,1-.18-5.58c0-2-.12-3.9.06-5.87a37.33,37.33,0,0,1,2.28-10.1,71.11,71.11,0,0,1,3.86-7.65c.28-.54.56-1.47,1.34-1.14.59.27.11,1.09-.06,1.65a71,71,0,0,0-2.84,12.3A21.93,21.93,0,0,0,156,57c.9,2.77,1.71,5.61,2.82,8.32a2.18,2.18,0,0,1-1.29,3.15c-1.9.8-3.61,2-5.58,2.77a6.2,6.2,0,0,0-1.63,1.28A45.94,45.94,0,0,0,137.78,88a40.63,40.63,0,0,0-4.54,17.26,32.08,32.08,0,0,0,.67,8.29c.56,2.59,1,5.17,1.67,7.71a33.77,33.77,0,0,0,2.56,6.94c.82,1.55,1.44,3.22,2.35,4.74a68.7,68.7,0,0,0,5.27,7.51c1.57,2,3.3,3.79,4.67,5.9C150.54,146.73,150.43,146.93,150.11,147Z"/><path class="cls-2" d="M249.22,33.63a7.17,7.17,0,0,1-3.61-.2c-2.27-.43-4.5-1.1-6.77-1.53a55,55,0,0,0-10.77-1.17c-2.32,0-4.63-.05-6.95.09a32.52,32.52,0,0,0-5.56.79,86.44,86.44,0,0,0-11.93,3.53,61.84,61.84,0,0,0-9,4.7,53.76,53.76,0,0,0-9.08,7C181.16,51,177,55.4,174.32,60.9A22.75,22.75,0,0,1,171.81,65c-.28.37-.49,1.16-1.26.84a1.49,1.49,0,0,1-.8-1.51,15.29,15.29,0,0,1,.85-5.15,30.43,30.43,0,0,1,6.78-10.46,76.7,76.7,0,0,1,9.31-8.8,82.67,82.67,0,0,1,10.44-7,63.93,63.93,0,0,1,17.23-6.44,44.68,44.68,0,0,1,11.71-.92,38.25,38.25,0,0,1,10.55,1.74,47.94,47.94,0,0,1,11.2,5.15A2.66,2.66,0,0,1,249.22,33.63Z"/><path class="cls-2" d="M212.66,115a8.38,8.38,0,0,1-.12,5.89c-1.32,2.88-2.54,2.74-4.66,1.14a7.84,7.84,0,0,1-2.24-8.27c0-.07,0-.12.07-.14.63-1.26,1.32-2.48,2.89-2.51a3.73,3.73,0,0,1,3.37,2.18A12,12,0,0,1,212.66,115Z"/><path class="cls-2" d="M250.28,97.71c2.37-1.29,4.23-.9,5.45,1.44a8.63,8.63,0,0,1,0,8.77,1.58,1.58,0,0,1-2.5.65c-2.67-1.55-3.87-4-4.35-6.89-.08-.43-.05-.89-.09-1.39.12-.37.18-.72.3-1s.17-.56.4-.74S250,98,250.28,97.71Z"/><path class="cls-1" d="M146.78,112c-.5-1.09-.25-2.29-.27-3.47a31.29,31.29,0,0,1,.52-8.09,41.77,41.77,0,0,1,6.68-15.21,16.57,16.57,0,0,1,4.74-4.77,3.12,3.12,0,0,1,2.11-.64c.76.1.94.5.52,1.14a18.83,18.83,0,0,1-2.46,2.66c-4.91,5.32-8.72,11.27-10.43,18.43a30.42,30.42,0,0,0-.72,6.87c0,1.41,0,2.81,0,4.2C146.63,113.19,146.87,112.5,146.78,112Z"/><path class="cls-3" d="M193.5,114.78c-.8-.77-.46-1.49-.56-2.19a24,24,0,0,1,0-8.23,14.5,14.5,0,0,1,3.14-7.26,4.29,4.29,0,0,1,3.75-1.54c.24,0,.53.07.6.33a.65.65,0,0,1-.25.64c-.14.09-.25.3-.44.41-2,1.12-2.86,3.18-3.66,5.17a43.91,43.91,0,0,0-2.3,10.38A15.72,15.72,0,0,1,193.5,114.78Z"/><path class="cls-4" d="M265.7,91a25.85,25.85,0,0,0-6.44-7.27,17,17,0,0,0-2.65-1.67,5.66,5.66,0,0,0-3.42-.87c-.42.07-.95,0-1-.59a1.1,1.1,0,0,1,.71-1.18,4.27,4.27,0,0,1,3.52.28,15.17,15.17,0,0,1,5.09,4,28.39,28.39,0,0,1,4.16,6.05C265.77,90.17,266.34,90.56,265.7,91Z"/><path class="cls-5" d="M146.78,112c.22.38.18,1,.73,1.12.42,2.86.52,5.76,1.21,8.59,0,.1-.05.18-.09.25-.57.17-.61-.15-.57-.56A42.56,42.56,0,0,1,146.78,112Z"/><path class="cls-6" d="M149.27,125.56a2.48,2.48,0,0,1,.2,2,7.4,7.4,0,0,1-1-3.62C149.05,124.27,148.85,125.12,149.27,125.56Z"/><path class="cls-7" d="M300.8,71.17c.33-1.11-.45-2-.59-3,1,1.15,1.06,2.55,1.29,4A1.18,1.18,0,0,1,300.8,71.17Z"/><path class="cls-8" d="M150.11,147l.29-.54c.7.29,1,.88,1.38,1.6C150.85,148.1,150.47,147.43,150.11,147Z"/><path class="cls-9" d="M148.08,121.47c.18.23.22.55.57.56,0,.5.41,1,.18,1.52-.06.19-.21.24-.36.11A3.85,3.85,0,0,1,148.08,121.47Z"/><path class="cls-10" d="M265.7,91c.25-.47-.05-.89-.12-1.31a4.45,4.45,0,0,1,.95,2c0,.07-.09.09-.12.15s-.12,0-.19,0C265.85,91.73,265.81,91.4,265.7,91Z"/><path class="cls-11" d="M148.45,123.61l.36-.11a8.84,8.84,0,0,1,.51,2c-.62-.37-.52-1.14-.81-1.72C148.45,123.78,148.43,123.73,148.45,123.61Z"/><path class="cls-12" d="M266.55,91.8a1.68,1.68,0,0,1,.66,1.26c-.46,0-.6-.33-.75-.62a2.13,2.13,0,0,0,0-.66l.05,0Z"/><path class="cls-13" d="M276.19,65.44a.21.21,0,0,1-.17,0c-.27-.14-.62-.37-.47-.64s.59-.07.81.26A1.59,1.59,0,0,1,276.19,65.44Z"/><path class="cls-14" d="M316.06,93.37a.83.83,0,0,0,.54.29c-.08.3-.21.62-.59.46S315.75,93.64,316.06,93.37Z"/><path class="cls-15" d="M249.13,99.3a1.1,1.1,0,0,1-.3,1A.79.79,0,0,1,249.13,99.3Z"/><path class="cls-16" d="M250.28,97.71a.83.83,0,0,1-.72.78A.85.85,0,0,1,250.28,97.71Z"/><path class="cls-17" d="M266.43,91.78a.6.6,0,0,1,0,.66c-.06-.21-.16-.34-.22-.55S266.33,91.81,266.43,91.78Z"/><path class="cls-13" d="M276.75,66.17a.55.55,0,0,1-.43-.49C276.61,65.7,276.76,65.83,276.75,66.17Z"/><path class="cls-13" d="M276.41,65a.36.36,0,0,1,.39.17C276.59,65.26,276.47,65.24,276.41,65Z"/><path class="cls-18" d="M306.63,131.88c0-.22-.2-.45,0-.66"/><path class="cls-2" d="M320.88,112.9a6.61,6.61,0,0,0-8.06-.41,13.47,13.47,0,0,0-4.58,5.84c-.43,1-.8,2-1.2,3.07a4.17,4.17,0,0,1-.68-1.65,152.76,152.76,0,0,0-5.42-15.58A124.41,124.41,0,0,0,295.2,92a128.65,128.65,0,0,0-8.29-13.35,124.53,124.53,0,0,0-10.17-12.49c-.26-.1-.23-.38-.43-.49s-.1-.14-.17-.18c-.13-.24-.24-.43.22-.4h0a.74.74,0,0,1,.38.16,28,28,0,0,1,5.34,3.11A21.46,21.46,0,0,0,286,70.84c.2.1.52.4.77-.07-.1-.14-.15-.29-.23-.38-4.92-3.57-9.6-7.49-15.06-10.27-.74-.39-1.46-.91-2.17-1.37-.43-.32-.28-.76.23-.91a2.63,2.63,0,0,1,.89-.05c1.82-.1,3.6-.19,5.44-.25,4.21,0,8.33,0,12.32,1.65,3.44,1.49,6.68,3.26,9,6.38,1.33,1.79,2.42,3.71,3.7,5.52.66-1.16-.28-2-.58-3a31.9,31.9,0,0,0-4.07-6.87c-2-2.44-4.08-4.72-7.05-6a22.1,22.1,0,0,0-7.2-2,83.34,83.34,0,0,0-9.08-.05,29.8,29.8,0,0,0-6.86,1c-5.15,1.57-10.37,3.1-15.47,4.83-8.4,2.89-17,5.23-25.55,7.61a8.83,8.83,0,0,1-1.16.24c-3.34.51-6.63,1.35-10,2-5.74,1.13-11.5,2.38-17.26,3.4-1.13.18-2.28.47-3.39.7a52.7,52.7,0,0,1-10,.22,7.07,7.07,0,0,1-3.81-1.26c-.94-.67-1.35-.55-1.76.53a1.92,1.92,0,0,0,.18,1.87,7.14,7.14,0,0,0,4.39,3.16,35.3,35.3,0,0,0,6.18.48,63.51,63.51,0,0,0,13.91-2c6.45-1.4,12.8-2.88,19.2-4.44,6.25-1.45,12.4-3.27,18.59-4.93.41-.13.86-.32,1.27-.44,7.46-2.33,14.86-4.64,22.3-7a1.88,1.88,0,0,1,1.93.42c2.09,1.68,4.08,3.43,6,5.2a98.28,98.28,0,0,1,10.15,11.15c2.21,2.82,4.23,5.75,6.16,8.77,1.3,2,2.5,4.13,3.71,6.24q2.37,4.17,4.48,8.6c1.69,3.54,3.15,7.2,4.5,10.9,1.26,3.39,2.46,6.79,3.41,10.28a179.7,179.7,0,0,1,3.82,19.72c.31,2.16.6,4.38.81,6.56a125.16,125.16,0,0,1,.67,13.09,118.49,118.49,0,0,1-4.87,35c-3.89,12.73-9.73,24.41-19.21,34a49.94,49.94,0,0,1-27.17,14.64,49.14,49.14,0,0,1-22.66-1.38c-13.94-4.19-25.16-12.37-34.57-23.3A110.93,110.93,0,0,1,191,205.4a137.14,137.14,0,0,1-9.17-16.8c-1.39-3.07-2.6-6.13-3.78-9.26-.89-2.38-2.08-4.61-2.76-7-.36-1.36-.73-2.77-1.09-4.12-.45-1.66-.9-3.33-1.51-5-1.05-2.71-1.15-5.27-1.68-8.1-.58-3-.95-6.07-1.38-9.15-.54-4.17-.84-8.3-1-12.53a112.29,112.29,0,0,1,.32-13.72,13.22,13.22,0,0,1,.61-4.29c2.08-4.8,3.53-9.86,5.24-14.77a71.51,71.51,0,0,0,2.57-11.31,31.26,31.26,0,0,0,.35-10.52,19,19,0,0,0-3.46-8c-.38-.51-.89-1.25-1.77-.82s-.54,1.18-.33,1.85l1.94,6.39a15.93,15.93,0,0,1,.68,5.37,61.68,61.68,0,0,1-2.22,14c-.74,2.76-1.89,5.42-2.82,8.12a43.33,43.33,0,0,1-3.91,9c-1.26,2-2.69,3.75-3.95,5.71a10.93,10.93,0,0,0-1.94,4.7c-.06.18-.1.42,0,.54a.59.59,0,0,0,.67,0c.17-.16.43-.24.6-.41a39.89,39.89,0,0,0,4.15-3.4,147.09,147.09,0,0,0,1.6,30.58,17.52,17.52,0,0,0-2.95-1c-2.68-.31-5.22.41-5.89,3.6a13.56,13.56,0,0,0-.26,3.57,32.5,32.5,0,0,0,1.33,7.13,24.79,24.79,0,0,0,3,6.91,21.5,21.5,0,0,0,6.5,6,3.75,3.75,0,0,0,3.22.2c.51-.16.85-.71,1.6-.66.75,1.91,1.45,3.84,2.2,5.75,1.11,2.92,2.39,5.8,3.74,8.6,1.54,3.19,3.11,6.31,4.94,9.36a56.91,56.91,0,0,0,4,6.22c1.09,1.35,2.16,2.66,3.2,4,1.38,1.78,2.59,3.72,4.11,5.39,3,3.37,6.15,6.68,9.44,9.73a78.65,78.65,0,0,0,7.72,6.49c8.73,6.46,18.28,11,29.11,12.75a48.21,48.21,0,0,0,15.07.14,53.38,53.38,0,0,0,16.63-5.46,58.6,58.6,0,0,0,12.1-8.7,72.28,72.28,0,0,0,14.58-19.59A96.5,96.5,0,0,0,308.53,191a110.78,110.78,0,0,0,3.08-18.72c.3-3.81.54-7.65.5-11.47,0-3.61-.07-7.24-.33-10.88-.07-1.33-.31-2.66-.3-4.13a12.26,12.26,0,0,0,1.92-.53,12.4,12.4,0,0,0,3.78-2.73,21.66,21.66,0,0,0,5-6c2.95-5.85,3.33-12,2.09-18.25A10.13,10.13,0,0,0,320.88,112.9Zm-149,63.36a2.1,2.1,0,0,1-2.5.31,12.24,12.24,0,0,1-2.54-1.87,12.81,12.81,0,0,1-3.27-4.63c-.37-.85-.82-1.61-1.19-2.45a23.5,23.5,0,0,1-1.75-10.34,4.05,4.05,0,0,1,.13-.88c.26-1,.4-1.08,1.47-1.07,2.7,0,4.05,1.64,5.05,3.81a60.7,60.7,0,0,1,3,8.89l1.9,6.23C172.31,174.94,172.68,175.62,171.87,176.26Zm149.62-49.19a27.69,27.69,0,0,1-.54,3.6,15.88,15.88,0,0,1-4.59,7.48,20,20,0,0,1-4,3.37c-.38.23-.78.4-1.24.72-.25-1.73-.5-3.29-.7-4.86-.26-2.17-.51-4.29-.73-6.48a18.37,18.37,0,0,1,4.11-14,4.94,4.94,0,0,1,1.95-1.38,3.2,3.2,0,0,1,4,1.83A17.22,17.22,0,0,1,321.49,127.07Z"/><path class="cls-19" d="M169.6,146.27l0-1.7c1.39.87,3.31,1.07,4.63,2.08"/><path class="cls-18" d="M301.76,114.06a13.57,13.57,0,0,0-1.06,2.63,36.77,36.77,0,0,0-2.12,5.43c-1.94,6.16-3.77,12.35-5.13,18.62s-3.85,12.32-5.25,18.6c0,.24-.08.47-.11.76,0,.12,0,.19-.07.31s-.06,0,0,.07-.07.13,0-.11.09-.25.11-.37,0-.39,0-.61a6.83,6.83,0,0,1-.05-1.11,39.38,39.38,0,0,0-1.63-10.88c-.91-2.82-1.74-5.72-2.61-8.55a2.65,2.65,0,0,1,.55-2.64c2.36-3.14,4.78-6.3,7-9.56.54-.79,1.08-1.63,1.57-2.4s1-1.66,1.5-2.48,1-1.66,1.49-2.48,1-1.66,1.5-2.49,1-1.66,1.56-2.44,1.08-1.63,1.63-2.41a5.47,5.47,0,0,0,.38-.62l-1.1-2.88c-3.09,4.66-6.85,9-9.58,13.84-2.52,4.48-5.81,8.47-8.66,12.77-.62.92-.64.87-1.77.32a14.79,14.79,0,0,0-14.6.28c-1.45.78-2.79,1.75-4.19,2.68a40.36,40.36,0,0,0-9,8,124,124,0,0,0-8.47,11.19,66.56,66.56,0,0,0-3.72,6.26c-.32.61-.67.77-1.27.45a43.93,43.93,0,0,0-4.22-1.65A96.15,96.15,0,0,0,217,157.62a21.1,21.1,0,0,0-8.56.19,15.76,15.76,0,0,0-7.93,5c-.72.78-.65.81-1.56.25-1.12-.73-2.26-1.51-3.43-2.22-2.67-1.73-5.19-3.72-7.87-5.32-4.55-2.72-9-5.53-13.28-8.67-1.32-1-3.71-2.76-5.11-3.63l.43,3.25A97.07,97.07,0,0,0,182.53,156c4.93,3.06,9.43,6.76,14.43,9.68.67.36,1.12.9.81,1.72-.77,2.1-.62,4.25-.75,6.42a20.54,20.54,0,0,0,1.88,9.68L171.67,152.9c-5.87-7.27-13.09-14.53-22.08-13.54-2.94.34-9,2.46-11.33,4.75-.26.25-.47.48-.68.72-3.64,3.58-5.05,5.42-8,16.89,0,.12-.08.31-.14.66a26.13,26.13,0,0,1-1.17,4.47,1.45,1.45,0,0,0-.24.52c-.05.19-.12.32-.18.51a30.75,30.75,0,0,1-3.52,6.19.79.79,0,0,0-.2.46c-7.43,7.95-22.56,8.73-38.11,8.12,6.83-5.85,13.16-11.67,18-16.12,4.54-4.15,7.64-7.06,8.38-7.4a1.61,1.61,0,0,0-1.38-2.9c-1.18.58-4.48,3.62-9.17,8-5.4,5-12.69,11.75-20.46,18.23-2.4-.12-4.81-.28-7.16-.41-9.64-.61-18.71-1.17-25.65-.29C39,166.31,28.73,151,18.53,135.84c-5.38-8-10.74-16-15.59-23.46a1.7,1.7,0,0,0-2.22-.45,1.6,1.6,0,0,0-.45,2.22c4.54,7.68,9.31,16,14.16,24.29,8.78,15.17,17.59,30.39,26.71,45.17-4.85,2.21-7.25,6.15-5.81,12.92,1.79,8.46,7.1,10.72,14.23,9.17,9.14-1.94,21.48-10.6,32.87-20,17.6.89,35.47.57,44.17-9.12a3.14,3.14,0,0,0,.54-.45,29.71,29.71,0,0,0,5.76-13.23l.06-.36c2.78-11.21,4-12.3,7-15.32.21-.23.47-.48.73-.73,1.56-1.54,6.71-3.51,9.27-3.78,7.34-.83,13.52,5.39,19.06,12.32a.05.05,0,0,0,.07,0l1.89,2.13a1,1,0,0,0,.16.35c1.2,1.54,2.54,3,3.71,4.61,4.66,6.4,10,12.32,15.16,18.35,2.2,2.59,4.66,4.94,7,7.33,10.35,10.7,20.52,21.56,33.55,29,4.36,2.5,19.6,12.21,24.58,9.17,21.83-13.35,30.39-35.15,34-59.78.75-5.12,2.87-10,4.33-15,.09-.26.13-.49.22-.75.27-1,.55-1.91.81-2.89s.54-1.91.81-2.89.54-1.91.81-2.89.52-2,.8-2.9.53-2,.81-2.89.54-1.91.81-2.89.54-1.91.81-2.89.54-1.91.86-2.91.59-1.93.87-2.86.6-1.92.93-2.87c.14-.44.33-.94.48-1.38a4.81,4.81,0,0,1,.22-.75c.18-.5.57-1.07.42-1.59l-.48-1.54ZM46.92,185.23l.28.36a30.29,30.29,0,0,1,2.49,4.48c.17.56.39.89.34.91a10.27,10.27,0,0,1-.77-.84,38.67,38.67,0,0,1-3.15-4.61v-.05l-.07,0,0-.05.28,0A2.61,2.61,0,0,1,46.92,185.23Zm-16.7-26c5.05,7.69,10.11,15.44,14.94,23.15a5.19,5.19,0,0,0-.9.21C39.49,174.88,34.86,167.06,30.22,159.24Zm18.65,43.29c-5.24,1.09-9.17-.52-10.43-6.72-1.07-5,.71-7.82,4.43-9.46l0,.05.44.71v0a45.26,45.26,0,0,0,3.47,5.08c1.55,1.78,3.12,2.48,4.82,1.4s1.77-2.67,1-4.74a32,32,0,0,0-2.23-4.16c6.53-.58,14.84-.08,23.6.41,1.21.08,2.47.15,3.73.21C67.43,193.61,56.74,200.81,48.87,202.53Z"/></svg>