<?xml version="1.0" encoding="utf-8"?>
<!-- Generator: Adobe Illustrator 24.1.0, SVG Export Plug-In . SVG Version: 6.00 Build 0)  -->
<svg version="1.1" id="Layer_1" xmlns="http://www.w3.org/2000/svg" xmlns:xlink="http://www.w3.org/1999/xlink" x="0px" y="0px"
	 viewBox="0 0 134.2 118.1" style="enable-background:new 0 0 134.2 118.1;" xml:space="preserve">
<style type="text/css">
	.st0{fill:#13132D;}
	.st1{fill:#FFFEFE;}
	.st2{fill:#FF5D47;}
</style>
<path class="st0" d="M25.6,82.1c2.1,1.7,4.5,2.9,7.1,3.6c-3.8,4.2-3.9,10.6-0.3,14.9l10.8,13.3c4,4.9,11.2,5.7,16.2,1.6l9.5-7.7
	c4.9,0.6,9.7-0.9,13.5-4l29.9-24.4c1.8-1.4,2.7-3.7,2.4-6s-1.7-4.3-3.7-5.3l2.6-2.2c1.8-1.5,2.7-3.7,2.4-6s-1.7-4.3-3.8-5.3
	c2.2-2.7,2-6.6-0.4-9c-2.4-2.5-6.3-2.7-9-0.5l-0.8,0.7c-0.6-2.2-2.2-4-4.4-4.7s-4.6-0.3-6.3,1.2l-10.1,8.2c0.2-2.9-0.8-5.8-2.7-8.1
	c-1.4-1.7-3.9-2-5.6-0.6l-2.5,2h-0.9c2-2.1,3.1-4.9,3-7.9c0-1.1-0.4-2.1-1.2-2.8c-0.7-0.7-1.8-1.1-2.8-1.1H34.8
	c-5.8,0-11.2,3.1-14.2,8.1h-9.2C5.1,40.1,0,45.4,0,51.7v17.2c0,3,1.2,5.9,3.3,8.1c2.1,2.1,5,3.3,8.1,3.3h12.2
	C24.4,81.2,25,81.6,25.6,82.1z M75.4,45C75.5,45,75.5,45,75.4,45C75.5,45,75.5,45,75.4,45c2.8,3.4,2.3,8.4-1.1,11.2l-8.8,7.2
	c-0.5,0.4-0.8,1.1-0.7,1.8s0.6,1.3,1.2,1.5c0.7,0.2,1.4,0.1,1.9-0.3l8.8-7.2l0,0l16.9-13.8c0.8-0.6,1.8-0.8,2.8-0.5
	c0.9,0.4,1.6,1.2,1.8,2.2s-0.2,2-1,2.6l-22,17.9c-0.6,0.4-0.8,1.1-0.7,1.8s0.6,1.3,1.3,1.5s1.4,0.1,1.9-0.3l22-17.9l5.5-4.5
	c1.2-1,2.9-0.8,3.9,0.4s0.8,2.9-0.4,3.9l-3.7,3l0,0L99.5,60l0,0L81.2,74.9c-0.5,0.4-0.8,1.1-0.7,1.8s0.6,1.3,1.2,1.5
	c0.7,0.2,1.4,0.1,1.9-0.3L101.9,63l5.5-4.5c1.2-1,3-0.8,3.9,0.4c1,1.2,0.8,3-0.4,3.9l-6.5,5.3c-0.1,0.1-0.2,0.2-0.3,0.3
	c-0.2,0.1-0.4,0.3-0.6,0.5L90.8,79.3c-0.6,0.4-0.8,1.1-0.7,1.8s0.6,1.3,1.3,1.5s1.4,0.1,2-0.3l12.7-10.4c0.8-0.6,1.8-0.8,2.8-0.5
	c0.9,0.4,1.6,1.2,1.8,2.2s-0.2,2-1,2.6l-29.9,24.4c-3.1,2.5-7.1,3.6-11,3c-0.6-0.2-1.3,0-1.8,0.4l-10.2,8.3c-3.2,2.6-8,2.2-10.6-1.1
	L35.4,97.9c-2.6-3.2-2.2-8,1.1-10.6l6.2-5l0.1-0.1l1.8-1.7c0.5-0.5,0.7-1.2,0.6-1.9c-1.1-4.6,0.5-9.5,4.2-12.5L75.4,45z M11.6,76.4
	c-2,0-3.9-0.8-5.3-2.1C4.9,72.9,4.1,71,4.1,69V51.8c0-4.2,3.3-7.7,7.5-7.7h7.6c-0.3,1.3-0.5,2.7-0.5,4.1c0,5.3,2.1,10.3,5.8,14l1,1
	c0.8,0.8,2,0.8,2.8,0s0.8-2,0-2.8l-1-1c-3-3-4.7-7-4.6-11.2c0-6.8,5.5-12.3,12.3-12.3h33.7h0.1c0,2.1-0.8,4.1-2.3,5.6
	s-3.5,2.3-5.6,2.3H47.2c-1.1,0-2,0.9-2,2c0,3.8-3.1,6.9-6.8,6.9c-1.1,0-2,0.9-2,2c0,0.5,0.2,1,0.6,1.4c0.4,0.4,0.9,0.6,1.4,0.6
	c5.2,0,9.7-3.7,10.6-8.8h16.8l-6.9,5.6c-0.1,0-0.1,0-0.2,0h-4.3c-1,0-1.9,0.8-2,1.9c-0.1,1,0.7,1.9,1.7,2.1l-7.2,5.9
	c-4.5,3.7-6.7,9.6-5.8,15.3l-1,0.9l-3.5,2.9c-6.4-0.2-12.2-5-13.6-11.2c-0.2-1.1-1.3-1.7-2.4-1.5c-0.5,0.1-0.9,0.4-1.2,0.8
	c-0.3,0.4-0.4,1-0.2,1.5c0.4,1.6,1,3.1,1.8,4.5L11.6,76.4z"/>
<path class="st1" d="M98,20.8l-7.6-12c-0.4-0.6-1-0.9-1.7-0.9S87.4,8.2,87,8.8l-7.6,12c0,0.1-0.1,0.1-0.1,0.2
	c-2.1,4.4-0.9,9.6,2.9,12.6c3.8,3,9.2,3,13,0s5-8.3,2.9-12.6C98.1,20.9,98,20.9,98,20.8z M93.3,30.1c-2.5,2.5-6.6,2.5-9.1,0
	l-1.4,1.4l1.4-1.4c-1.9-1.9-2.4-4.8-1.3-7.3l5.8-9.3l5.9,9.3C95.7,25.3,95.2,28.2,93.3,30.1L93.3,30.1z"/>
<path class="st1" d="M111.9,0c-0.7,0-1.3,0.3-1.7,0.9l-5,8c0,0.1-0.1,0.1-0.1,0.2c-1.4,2.9-0.8,6.4,1.5,8.7c2.6,2.6,6.7,3,9.8,0.8
	c3-2.1,4-6.2,2.4-9.5c0-0.1-0.1-0.1-0.1-0.2l-5-8C113.2,0.3,112.6,0,111.9,0z M114.5,15c-1.4,1.4-3.7,1.4-5.2,0
	c-1.1-1.1-1.4-2.7-0.7-4.1l3.3-5.3l3.3,5.3C115.8,12.3,115.5,13.9,114.5,15z"/>
<path class="st2" d="M132.4,33.2c-3.5-0.3-6.3-3.1-6.6-6.6c-0.1-1-0.9-1.8-2-1.8c-1,0-1.9,0.8-2,1.8c-0.3,3.5-3.1,6.3-6.6,6.6
	c-1,0.1-1.8,0.9-1.8,2c0,1,0.8,1.9,1.8,2c3.5,0.3,6.3,3.1,6.6,6.6c0.1,1,0.9,1.8,2,1.8s1.9-0.8,2-1.8c0.3-3.5,3.1-6.3,6.6-6.6
	c1-0.1,1.8-0.9,1.8-2C134.2,34.2,133.4,33.3,132.4,33.2z M123.8,38c-0.8-1.1-1.7-2.1-2.8-2.8c1.1-0.8,2.1-1.7,2.8-2.8
	c0.8,1.1,1.7,2.1,2.8,2.8C125.6,36,124.6,36.9,123.8,38z"/>
<path class="st2" d="M129.3,96.7c-3.5-0.3-6.3-3.1-6.6-6.6c-0.1-1-0.9-1.8-2-1.8c-1,0-1.9,0.8-2,1.8c-0.3,3.5-3.1,6.3-6.6,6.6
	c-1,0.1-1.8,0.9-1.8,2c0,1,0.8,1.9,1.8,2c3.5,0.3,6.3,3.1,6.6,6.6c0.1,1,0.9,1.8,2,1.8c1,0,1.9-0.8,2-1.8c0.3-3.5,3.1-6.3,6.6-6.6
	c1-0.1,1.8-0.9,1.8-2S130.3,96.7,129.3,96.7z M120.7,101.5c-0.8-1.1-1.7-2.1-2.8-2.8c1.1-0.8,2.1-1.7,2.8-2.8
	c0.8,1.1,1.7,2.1,2.8,2.8C122.4,99.4,121.5,100.3,120.7,101.5z"/>
</svg>
