<?xml version="1.0" encoding="utf-8"?>
<!-- Generator: Adobe Illustrator 24.1.0, SVG Export Plug-In . SVG Version: 6.00 Build 0)  -->
<svg version="1.1" id="Layer_1" xmlns="http://www.w3.org/2000/svg" xmlns:xlink="http://www.w3.org/1999/xlink" x="0px" y="0px"
	 viewBox="0 0 186.3 118.8" style="enable-background:new 0 0 186.3 118.8;" xml:space="preserve">
<style type="text/css">
	.st0{fill:#13132D;}
	.st1{fill:#FFFFFF;}
	.st2{fill:#FF5D47;}
</style>
<path class="st0" d="M142.1,55l0.1-6.8c-0.1-0.9-0.2-1.7-0.4-2.5c-0.8-3.5-2.8-6.1-5.9-7.8c-3.3-1.7-7.8-2.5-13.5-2.1
	c-2.9,0.2-5.9,0.7-9.3,1.5c-5,1.2-9.4,2.3-13.3,3.4c-21.3,5.7-32.1,8.6-55.5-5.1l-7.1-0.1l-0.4,44l7.1,0.4l0,0c1.1,0,2,0.9,2,2v0.6
	c0.3-4,2.3-9.8,4.9-14.6c2.4-4.6,5.5-8.3,8.3-9.2c0.2-0.1,0.4-0.1,0.7-0.1c5.6,0,11.1-0.2,16.4-0.5c10.7-0.5,20.4-0.9,27.8,1.1
	c11.5,3.2,17.2,11.8,11.1,33.8c-0.2,0.9-1,1.6-2,1.6l-65.4-0.5c-1,0-1.9-0.8-2-1.8c-0.1,1-0.9,1.8-2,1.8L27.4,94l-0.2,19.4
	l128.8,1.1l0.1-18.1l-12.6-0.1c-1.1,0-2-0.9-2-2L142.1,55z M145.9,46.3l2,0.1c0.2-5.1,0.9-9.7,1.8-13.2c1.3-5.3,3.5-8.6,6.1-8.5
	c2.1,0,3.8,2,5,5.4l1.5-2.4c0-0.1,0-0.2,0-0.4v-5.8c0-1.1,0.9-2,2-2l20,0.2c1.1,0,2,0.9,2,2v5.8c0,1.1-0.9,2-2,2L166,29.3
	c0,0.1-0.1,0.2-0.2,0.4l-3.5,5.7c0.8,4.3,1.3,9.7,1.2,15.5c-0.1,6.8-0.8,13-1.9,17.5c-1.3,5.3-3.5,8.6-6.1,8.5c-2.7,0-4.7-3.3-6-8.6
	c-0.7-3.1-1.2-6.8-1.5-11.1h-1.9l-0.3,35.4l12.6,0.1c1.1,0,2,0.9,2,2l-0.2,22.1c0,1.1-0.9,2-2,2l-132.8-1.1c-1.1,0-2-0.9-2-2
	l0.2-23.3c0-1.1,0.9-2,2-2l16.3,0.1L42,84l-7.2-0.4c-1.1,0-1.9-0.9-1.9-2l0,0l0.4-47.9c0-1.1,0.9-2,2-2l9.6,0.1
	c0.4,0,0.8,0.1,1.1,0.4c22.2,13.1,32.5,10.4,52.8,4.9c4.1-1.1,8.6-2.3,13.4-3.4c3.6-0.8,6.9-1.4,9.9-1.6c6.5-0.5,11.8,0.4,15.7,2.6
	c4.1,2.2,6.8,5.7,7.9,10.4C145.7,45.3,145.8,45.7,145.9,46.3L145.9,46.3z M49.9,83l-0.1,7.3l61.8,0.5c4.6-18.1,0.3-25.1-8.7-27.6
	c-6.8-1.9-16.3-1.4-26.6-1C71,62.4,65.4,62.7,60,62.7c-1.7,0.6-3.8,3.5-5.7,7.2C51.9,74.2,50.1,79.5,49.9,83L49.9,83z M151.8,48.6
	v6.2c0.2,4.9,0.7,9.2,1.4,12.5c0.8,3.4,1.6,5.5,2.1,5.5c0.6,0,1.4-2.1,2.2-5.5c1.1-4.2,1.8-10.1,1.8-16.6c0.1-6.5-0.5-12.4-1.5-16.6
	c-0.8-3.4-1.6-5.5-2.1-5.5c-0.6,0-1.4,2.1-2.2,5.5C152.6,37.8,151.9,42.9,151.8,48.6L151.8,48.6z M147.7,53.1c0-0.8,0-1.6,0-2.5
	v-0.3l-1.6-0.1V53L147.7,53.1z M182.2,23.5l-16-0.1v1.8l16,0.1V23.5z M123.4,7l10,0.1c1.1,0,2,0.9,2,2l-0.2,20.1c0,1.1-0.9,2-2,2
	l-10-0.1c-1.1,0-2-0.9-2-2L121.4,9C121.4,7.9,122.3,7,123.4,7L123.4,7z M131.3,11.1h-6l-0.1,16.1h6L131.3,11.1z M129.1,49
	c3.2,0,6,1.3,8.1,3.4c2.1,2.1,3.3,5,3.3,8.1s-1.3,6-3.4,8l0,0c-2.1,2.1-5,3.3-8.1,3.3s-6-1.3-8.1-3.4c-2.1-2.1-3.3-5-3.3-8.1
	c0-3.2,1.3-6,3.4-8.1l0,0l0,0l0,0C123.1,50.2,126,48.9,129.1,49L129.1,49z M134.4,55.2c-1.3-1.4-3.2-2.2-5.3-2.2s-3.9,0.8-5.3,2.1
	l0,0c-1.4,1.3-2.2,3.2-2.2,5.3s0.8,3.9,2.1,5.3c1.3,1.4,3.2,2.2,5.3,2.2s3.9-0.8,5.3-2.1c1.4-1.3,2.2-3.2,2.2-5.3
	C136.5,58.4,135.7,56.5,134.4,55.2L134.4,55.2z"/>
<path class="st1" d="M39.7,0c-0.8,0-1.5,0.4-1.9,1l-5.7,9.1c0,0.1-0.1,0.1-0.1,0.2c-1.6,3.3-0.9,7.2,1.7,9.8c3,3,7.6,3.4,11,0.9
	c3.4-2.4,4.6-7,2.7-10.7c0-0.1-0.1-0.1-0.1-0.2L41.6,1C41.2,0.4,40.5,0,39.7,0z M42.6,17c-1.6,1.6-4.2,1.6-5.8,0
	c-1.2-1.2-1.6-3.1-0.8-4.6l3.8-6l3.8,6C44.2,13.9,43.8,15.8,42.6,17z"/>
<path class="st2" d="M21.4,34.6c-4-0.4-7.2-3.5-7.5-7.5c-0.1-1.1-1.1-2-2.2-2c-1.2,0-2.1,0.9-2.2,2c-0.4,4-3.5,7.2-7.5,7.5
	c-1.1,0.1-2,1.1-2,2.2C0,38,0.9,38.9,2,39c4,0.4,7.2,3.5,7.5,7.5c0.1,1.1,1.1,2,2.2,2c1.2,0,2.1-0.9,2.2-2c0.4-4,3.5-7.2,7.5-7.5
	c1.1-0.1,2-1.1,2-2.2C23.5,35.7,22.6,34.8,21.4,34.6z M11.7,40.1c-0.9-1.3-2-2.4-3.2-3.2c1.3-0.9,2.4-2,3.2-3.2
	c0.9,1.3,2,2.4,3.2,3.2C13.7,37.7,12.6,38.8,11.7,40.1z"/>
</svg>
