<?xml version="1.0" encoding="utf-8"?>
<!-- Generator: Adobe Illustrator 24.1.0, SVG Export Plug-In . SVG Version: 6.00 Build 0)  -->
<svg version="1.1" id="Layer_1" xmlns="http://www.w3.org/2000/svg" xmlns:xlink="http://www.w3.org/1999/xlink" x="0px" y="0px"
	 viewBox="0 0 148.2 144.8" style="enable-background:new 0 0 148.2 144.8;" xml:space="preserve">
<style type="text/css">
	.st0{fill:#13132D;}
	.st1{fill:#FFFFFF;}
</style>
<path class="st0" d="M11.7,107.7h11.9c2.3,2.6,5.1,4.1,8.2,5c-3.5,4.3-3.5,10.5,0,14.7l10.7,13.1c4.1,5,11.4,5.7,16.4,1.7l9.2-7.5
	c4.8,0.5,9.7-0.9,13.4-4L98,117.3c2.6,3.9,7,6.3,11.8,6.3h24.3c3.7,0,7.3-1.5,10-4.1c2.6-2.7,4.1-6.2,4.1-10V51.4
	c0-6.5-4.4-12.2-10.7-13.8V31c-0.1-3.7-3.1-6.7-6.8-6.7h-1v-5.2h2.1c1.3,0,2.4-1,2.4-2.2V2.2c0-1.3-1.2-2.2-2.4-2.2h-19.7
	c-0.6,0-1.2,0.2-1.6,0.7c-0.4,0.4-0.7,1-0.7,1.6v5.4c-1.9-1.3-4-2.2-6.4-2.2L86.5,5.3l0,0c-1.3,0-2.3,1.1-2.3,2.3
	c0,1.3,1,2.3,2.2,2.3l16.9,0.2c3.6,0.1,6.4,3,6.4,6.6c0,0.2,0,0.5,0.1,0.7c0.2,1.1,1.1,1.8,2.2,1.8h2v5.2h-0.9c-3.7,0-6.6,3-6.6,6.7
	v6.6c-6.2,1.5-11,7.1-11,13.8v16.7c-0.2-0.1-0.4-0.1-0.6-0.1c-1.8-0.2-3.7,0.4-5.1,1.5l-9.3,7.6c0-2.7-1-5.3-2.7-7.4
	c-0.7-0.9-1.7-1.4-2.9-1.5c-1.1-0.1-2.2,0.2-3.1,0.9L69.5,71l0,0c1.7-2.1,2.6-4.7,2.6-7.4c0-2.4-1.9-4.3-4.3-4.2H34.6
	c-5.9,0-11.4,3.2-14.2,8.4h-8.8c-3.1,0-6,1.2-8.2,3.3C1.2,73.3,0,76.2,0,79.3v16.9c0,3.1,1.2,6,3.4,8.2
	C5.6,106.5,8.6,107.7,11.7,107.7z M134.1,119h-24.3c-3.4,0-6.5-1.8-8.2-4.6l3.5-2.8H122c0.6,0,1.2-0.2,1.6-0.7
	c0.4-0.4,0.6-1,0.6-1.6V73.1h0.2c1.3,0.4,2.6,0.6,4,0.6c2.3,0,4.6-0.5,6.6-1.6c2.2-1.1,4.8-1.4,7.1-0.7l1.6,0.4v37.6
	c0,2.5-1,5-2.8,6.8C139,118,136.6,119,134.1,119z M112,96.9c-0.5-0.6-1.2-1.2-1.9-1.6l2.2-1.8c1.8-1.5,2.8-3.7,2.5-6
	c-0.2-2.3-1.6-4.4-3.6-5.5c2.1-2.8,1.7-6.8-0.8-9.2s-6.5-2.6-9.2-0.3l-0.4,0.3c-0.2-0.5-0.4-1-0.8-1.5V58.7h19.5v48.4h-9l0.4-0.3
	C114,104.3,114.5,99.9,112,96.9z M114.4,4.4h15.3v10.1h-15.3V4.4z M118.6,19h6.5v5.2h-6.5V19z M113.2,28.8h17.5c1.2,0,2.2,1,2.2,2.1
	v6.3h-21.8v-6.3C111.1,29.8,112,28.8,113.2,28.8z M109.8,41.8h24.3c2.5,0,5,1,6.7,2.8c1.8,1.8,2.8,4.2,2.8,6.8v15.8l-0.4-0.1
	c-3.5-1-7.2-0.6-10.4,1.1c-2.2,1.2-4.9,1.4-7.3,0.7l-1.4-0.4V56.6c0-1.3-0.9-2.4-2.2-2.4h-21.8v-2.8C100.1,46,104.5,41.8,109.8,41.8
	z M76,78.2c-0.2,2-1.2,3.8-2.7,5l-8.6,7c-0.6,0.5-0.9,1.3-0.8,2.1c0.1,0.8,0.7,1.5,1.4,1.8c0.8,0.3,1.6,0.1,2.3-0.4l8.6-7l16.6-13.6
	c1-0.8,2.6-0.7,3.4,0.3c0.8,1,0.7,2.6-0.3,3.4L74.3,94.4c-0.6,0.5-0.9,1.3-0.8,2.1c0.1,0.8,0.7,1.5,1.4,1.8c0.8,0.3,1.6,0.1,2.2-0.4
	l21.6-17.6l5.5-4.4c1-0.8,2.6-0.7,3.4,0.3c0.8,1,0.7,2.6-0.3,3.4l-3.6,3l-5.6,4.6l-18,14.7c-0.6,0.5-1,1.3-0.8,2.1
	c0.1,0.8,0.7,1.5,1.4,1.8c0.8,0.3,1.6,0.1,2.3-0.4l23.2-18.9l0.3-0.2c0.7-0.6,1.6-0.7,2.4-0.4c0.8,0.3,1.4,1,1.5,1.9
	s-0.2,1.7-0.9,2.3l-6.4,5.1c-0.1,0.1-0.2,0.2-0.3,0.3c-0.2,0.1-0.4,0.3-0.6,0.4l-12.5,10.2c-0.6,0.5-0.9,1.3-0.8,2.1
	c0.1,0.8,0.7,1.5,1.4,1.8s1.6,0.1,2.3-0.4l12.5-10.2c1-0.8,2.6-0.7,3.4,0.3c0.8,1,0.7,2.6-0.3,3.4l-29.5,24c-3,2.4-6.8,3.5-10.6,2.9
	c-0.7-0.2-1.5,0-2.1,0.4l-10,8.1c-3,2.5-7.5,2-10-1l-10.7-13.1c-2.5-3-2-7.5,1-10l6.1-4.9l0.1-0.1l1.8-1.7c0.6-0.6,0.9-1.4,0.7-2.2
	c-1.1-4.4,0.5-9.1,4-12l25.5-20.8C75.6,74.4,76.2,76.3,76,78.2z M4.6,79.3c0-1.9,0.7-3.6,2-5c1.3-1.3,3.1-2,5-2h7
	c-0.3,1.2-0.4,2.3-0.4,3.5c0,5.2,2.1,10.3,5.8,14l1,0.9c0.9,0.9,2.3,0.9,3.2,0c0.9-0.9,0.9-2.3,0-3.2l-1-1
	c-2.9-2.9-4.5-6.8-4.5-10.9c0-6.5,5.3-11.8,11.8-11.8h32.9c-0.1,4.2-3.4,7.1-7.5,7.1H46.4c-1.3,0-2.3,1.1-2.3,2.3
	c0,3.5-2.9,6.4-6.4,6.4c-1.3,0-2.3,1-2.3,2.3c0,0.6,0.2,1.2,0.7,1.6c0.4,0.4,1,0.6,1.6,0.6c5.2,0.1,9.7-3.6,10.7-8.7h15.3l-5.9,4.9
	h-4.4c-1.1,0-2,0.8-2.2,1.8c-0.2,1.1,0.3,2.1,1.3,2.6l-6.4,5.5c-4.5,3.7-6.7,9.5-5.8,15.2l-0.8,0.7l-3.4,2.8
	c-6-0.3-11.5-4.9-12.9-10.8c-0.3-1.2-1.5-2-2.7-1.7c-0.6,0.1-1.1,0.5-1.4,1s-0.4,1.1-0.3,1.7c0.3,1.4,0.8,2.8,1.5,4h-8.6
	c-1.9,0-3.7-0.7-5-2s-2.1-3.1-2-5L4.6,79.3L4.6,79.3z"/>
<path class="st1" d="M83.2,41.1c3.4-3.4,4.2-8.5,2.1-12.7c0-0.1-0.1-0.2-0.1-0.2l-7.8-12.4c-0.4-0.7-1.2-1.1-2-1.1s-1.6,0.4-2,1.1
	l-7.8,12.4c0,0.1-0.1,0.2-0.1,0.2c-2.4,4.9-0.9,10.8,3.6,13.9C73.3,45.4,79.3,44.9,83.2,41.1L83.2,41.1z M70.8,37.7
	c-1.9-1.9-2.4-4.7-1.3-7.1l5.7-9.1l5.7,9.1c1.3,2.8,0.4,6.1-2.1,7.8C76.4,40.1,73,39.8,70.8,37.7L70.8,37.7z"/>
</svg>
