<svg xmlns="http://www.w3.org/2000/svg" viewBox="0 0 677.78 403.37"><defs><style>.cls-1,.cls-3{fill:#ff5d47;}.cls-2{fill:#a5d6d7;}.cls-3{opacity:0.28;}</style></defs><g id="Layer_1" data-name="Layer 1"><path class="cls-1" d="M564.79,276.75c-7.76,7.65-18.31,12.82-29.2,13.24a12.16,12.16,0,0,1-6.74-1.28c-1.67-1-2.63-2.8-4-4.17-7.35-7.39-14-30.53-14.25-39.45-1.13-7.52,1.48-13.39,5.85-16.39,4.64-3.17,11.27-3.1,17.56,1.7,4.36,3.33,7.62,7.85,10.79,12.33a56.06,56.06,0,0,1,26-9.08c10.6-.94,14.14,5.73,12.3,15.08C580.88,259.76,572.54,269.13,564.79,276.75Z"/></g><g id="Layer_2" data-name="Layer 2"><path d="M138.37,72.75q.31-16.74.62-33.46a36.65,36.65,0,0,0-.17-3.78c-.25-3,0-3.59,3.12-4a104.35,104.35,0,0,1,17.42-.61c11.13.48,22.3.28,33.45.23,5.83,0,11.66-.53,17.48-.49a17.33,17.33,0,0,0,11.14-4.15c5.09-4,10.22-7.92,15.34-11.86A76,76,0,0,1,257.13,3a58.59,58.59,0,0,1,11-2.68,22,22,0,0,1,17.77,4.91c5.23,4.2,10.74,8.06,16,12.19,7.48,5.84,16.18,8.86,25.25,10.89,11.71,2.63,23.58,2.91,35.55,2.46A192.63,192.63,0,0,0,396,26.93a27,27,0,0,1,7.56,0c1.8.13,2.94,1.68,3.2,4.13.48,4.54.86,9.08,1.25,13.63q2.16,25.18,4.3,50.38c.16,1.9.49,3.78.56,5.67.12,3-.47,3.58-3.4,3.77-2.52.17-5.05.15-7.57.34-10.35.81-20.7,1.77-31.06,2.47-6.7.45-13.41.52-20.12.79-7.48.3-14.34,2.92-21.19,5.64-9.18,3.66-17.05,9.41-24.8,15.36-2.61,2-5.24,4-7.95,5.88-12.76,8.82-26.06,9.75-39.77,2.43-11.29-6-22.45-12.3-33.75-18.3a37.53,37.53,0,0,0-18.53-4.86c-20.28.39-40.56.6-60.83.9a19.17,19.17,0,0,0-2.24.32c-2.7.36-4.05-.85-4-3.58q.44-19.58.88-39.14ZM402.83,32.62c-3.19.5-5.69.82-8.15,1.3-22.65,4.4-45.31,4.94-68,.34-7.72-1.57-15.31-3.94-22-8.11-8.16-5.09-15.93-10.8-23.75-16.43a16,16,0,0,0-9.85-3.37c-6,.07-11.89,1.09-17.13,4.26-4.66,2.81-9.27,5.71-13.75,8.8-5.53,3.81-10.88,7.88-16.34,11.79a20.27,20.27,0,0,1-11.24,4.15c-4.18.14-8.35.33-12.53.43-15.07.38-30.13,1.43-45.21.12-4.22-.36-8.51.23-13.05.39,0,1.67,0,2.79,0,3.91q.54,33.27,1.11,66.54a48,48,0,0,0,.57,4.87c4.26-.47,8.13-1.06,12-1.28,5.44-.31,10.9-.29,16.35-.5,11.52-.44,23-1,34.56-1.4a26.68,26.68,0,0,1,11.88,2.15c5.09,2.25,10.15,4.58,15.1,7.13,9.35,4.81,18.45,10.12,27.93,14.65,10.88,5.2,21.6,4.72,31.55-2.72q3.49-2.61,7-5.27c8.45-6.48,16.91-12.89,26.92-17,8.75-3.56,17.61-6.21,27.17-6.51,11.78-.36,23.55-1.06,35.3-1.83,4.75-.31,9.47-1.17,14.46-1.82C403.45,75.71,403.14,54.46,402.83,32.62Z"/><path class="cls-2" d="M266.59,58.65c1.56-1.34,3.07-2.67,4.61-4a37.7,37.7,0,0,1,16-8.38,22.18,22.18,0,0,1,4.13-.56c8.34-.22,13.28,4.88,12.91,13.27a30.22,30.22,0,0,1-3.46,12.35A61.73,61.73,0,0,1,274.88,97.9c-8,4.45-16.22,3.84-23.85-.84a46.82,46.82,0,0,1-22-31,27.21,27.21,0,0,1-.31-8.31c.9-9.05,8-14.14,16.92-12.36a29.85,29.85,0,0,1,13.21,6.42C261.45,53.92,263.92,56.26,266.59,58.65Z"/><path d="M407.91,240.15q2.67-16.52,5.33-33a36.72,36.72,0,0,0,.37-3.77c.17-3,.53-3.54,3.64-3.49a103.66,103.66,0,0,1,17.34,1.86c11,2,22,3.42,33.08,4.94,5.77.79,11.61,1.12,17.37,2a17.32,17.32,0,0,0,11.61-2.54q8.42-4.83,16.87-9.58a75.63,75.63,0,0,1,21.8-8.71,59.45,59.45,0,0,1,11.3-1.1,22,22,0,0,1,16.9,7.37c4.59,4.9,9.5,9.5,14.16,14.33,6.58,6.83,14.77,11.05,23.46,14.35,11.22,4.25,22.93,6.2,34.85,7.44a190.94,190.94,0,0,0,33.38.92c2.47-.18,5,.52,7.49,1.06,1.76.38,2.67,2.08,2.59,4.54-.17,4.56-.43,9.11-.69,13.67q-1.43,25.25-2.86,50.49c-.1,1.89,0,3.8-.23,5.69-.31,2.94-1,3.47-3.91,3.25-2.51-.19-5-.57-7.53-.73-10.37-.66-20.75-1.17-31.11-1.94-6.69-.5-13.35-1.38-20-2.06-7.44-.76-14.6.87-21.77,2.6-9.6,2.33-18.2,6.91-26.72,11.71-2.87,1.62-5.75,3.22-8.7,4.69-13.87,6.94-27.17,6-39.72-3.2-10.33-7.55-20.48-15.35-30.83-22.88a37.43,37.43,0,0,0-17.66-7.42c-20.12-2.48-40.23-5.13-60.34-7.69a18.93,18.93,0,0,0-2.26,0c-2.73,0-3.89-1.42-3.45-4.11L408,240.17Zm267.48-2.41c-3.23,0-5.75,0-8.26.14-23,1.16-45.56-1.5-67.35-9.26-7.43-2.64-14.61-6.06-20.64-11.13-7.35-6.19-14.25-12.94-21.19-19.61a16,16,0,0,0-9.27-4.74c-6-.77-11.93-.6-17.57,1.8-5,2.13-10,4.35-14.85,6.78-6,3-11.88,6.26-17.84,9.37a20.23,20.23,0,0,1-11.71,2.52c-4.16-.45-8.32-.86-12.47-1.34-15-1.75-30-2.83-44.77-6.26-4.12-1-8.46-1-13-1.45-.23,1.64-.41,2.75-.55,3.87q-4.15,33-8.29,66a46.6,46.6,0,0,0-.12,4.91c4.29.13,8.2.1,12.08.43,5.43.46,10.83,1.24,16.25,1.8,11.47,1.19,22.95,2.31,34.42,3.5a26.57,26.57,0,0,1,11.46,3.8c4.72,2.95,9.41,6,13.94,9.19,8.58,6.08,16.84,12.62,25.59,18.44,10,6.69,20.71,7.72,31.61,1.76q3.84-2.08,7.65-4.23c9.28-5.23,18.57-10.37,29.05-13,9.17-2.3,18.31-3.67,27.82-2.62,11.71,1.3,23.46,2.27,35.21,3.18,4.74.36,9.53.17,14.57.23C669.91,280.48,672.61,259.4,675.39,237.74Z"/><path d="M11.31,362.45q-4-16.24-7.93-32.51a35.88,35.88,0,0,0-1.13-3.61c-1-2.84-.89-3.47,2-4.63a104.06,104.06,0,0,1,16.7-5c10.88-2.38,21.63-5.41,32.39-8.31,5.63-1.52,11.14-3.49,16.78-4.93a17.31,17.31,0,0,0,9.71-6.85c3.92-5.15,7.87-10.26,11.81-15.39a76,76,0,0,1,16.71-16.5,58.6,58.6,0,0,1,10-5.4,22,22,0,0,1,18.43.21c6.14,2.73,12.45,5.06,18.62,7.7,8.73,3.73,17.91,4.44,27.2,4.1,12-.45,23.53-3.21,35-6.7a191.27,191.27,0,0,0,31.12-12.13,27,27,0,0,1,7.31-1.94c1.77-.33,3.27.88,4.15,3.18,1.62,4.26,3.15,8.56,4.68,12.86q8.51,23.81,17,47.62c.64,1.79,1.44,3.53,2,5.34.87,2.83.46,3.58-2.33,4.52-2.39.8-4.84,1.42-7.22,2.25-9.81,3.42-19.57,7-29.41,10.31-6.36,2.14-12.84,3.92-19.26,5.89-7.15,2.2-13.12,6.48-19,10.86-7.95,5.88-14.09,13.45-20.07,21.18-2,2.61-4.05,5.2-6.19,7.7-10.08,11.79-22.71,16.08-37.84,12.5-12.45-2.94-24.84-6.17-37.3-9.09a37.55,37.55,0,0,0-19.15,0C66.5,391.22,47,396.6,27.42,402.06a18.77,18.77,0,0,0-2.08.88c-2.53,1-4.14.21-4.78-2.45q-4.56-19-9.13-38.07ZM256.8,256.22c-3,1.3-5.29,2.24-7.56,3.34-20.77,10-42.55,16.33-65.65,17.66-7.87.45-15.81.1-23.33-2.23-9.19-2.85-18.16-6.39-27.15-9.83a16.1,16.1,0,0,0-10.39-.76c-5.82,1.62-11.22,4.09-15.48,8.49-3.79,3.91-7.51,7.89-11,12C91.82,290,87.68,295.3,83.4,300.48a20.17,20.17,0,0,1-9.81,6.87c-4,1.2-8,2.45-12,3.62C47.11,315.18,32.82,320,17.9,322.61c-4.17.72-8.18,2.39-12.52,3.71.42,1.61.69,2.7,1,3.78q9,32,18,64c.44,1.54,1.17,3,1.8,4.57,4-1.54,7.59-3.1,11.3-4.3,5.18-1.69,10.46-3.07,15.67-4.66,11-3.36,22-6.79,33.07-10.16a26.53,26.53,0,0,1,12-1c5.5.88,11,1.83,16.42,3,10.27,2.27,20.42,5.07,30.75,7,11.84,2.26,22.08-1,29.81-10.67,1.81-2.28,3.62-4.57,5.4-6.87,6.52-8.43,13.07-16.78,21.7-23.28,7.56-5.68,15.45-10.5,24.62-13.23,11.29-3.35,22.49-7,33.67-10.76,4.51-1.51,8.85-3.56,13.51-5.45C268.38,297.72,262.67,277.26,256.8,256.22Z"/><path class="cls-3" d="M131.7,316.12c1.16-1.69,2.28-3.36,3.44-5a37.78,37.78,0,0,1,13.35-12.18,20.82,20.82,0,0,1,3.85-1.59c8-2.34,14.08,1.33,15.87,9.53a30.49,30.49,0,0,1-.2,12.83A61.78,61.78,0,0,1,149.72,352c-6.63,6.36-14.7,7.85-23.28,5.27a46.79,46.79,0,0,1-29.2-24.4,26.81,26.81,0,0,1-2.42-8c-1.45-9,4.11-15.71,13.21-16.26a29.79,29.79,0,0,1,14.4,2.83C125.52,312.86,128.5,314.5,131.7,316.12Z"/></g></svg>