<?xml version="1.0" encoding="utf-8"?>
<!-- Generator: Adobe Illustrator 24.1.0, SVG Export Plug-In . SVG Version: 6.00 Build 0)  -->
<svg version="1.1" id="Layer_1" xmlns="http://www.w3.org/2000/svg" xmlns:xlink="http://www.w3.org/1999/xlink" x="0px" y="0px"
	 viewBox="0 0 102.7 123.3" style="enable-background:new 0 0 102.7 123.3;" xml:space="preserve">
<style type="text/css">
	.st0{fill:#13132D;}
</style>
<g>
	<path class="st0" d="M76,0H22.6c-5.7,0-10.3,4.6-10.3,10.3v2.1c0,0,0,0.1-0.1,0.1C5.2,13.6,0,19.6,0,26.7v21c0,3.7,1.5,7.4,4.1,10
		c0,0,0,0,0,0.1v16.6c0,1.3,0.3,2.6,0.7,3.8l1.4,3.6c1.3,3.5,4.4,5.9,8.2,6.4c0,0,0.1,0,0.1,0.1c1.1,20.3,18.4,36,38.8,34.9
		c18.9-1,34-16.1,34.9-34.9c0,0,0-0.1,0.1-0.1c3.6-0.5,6.7-2.9,8.2-6.4l1.4-3.6c0.5-1.2,0.7-2.5,0.7-3.8V57.8c0,0,0,0,0-0.1
		c2.7-2.7,4.1-6.3,4.1-10v-21C102.7,11.9,90.9,0,76,0z M4.2,26.7c0-4.9,3.4-9,8.2-10c0,0,0.1,0,0.1,0.1v3.8c0,5.8,2.2,11.3,6.1,15.4
		v0.1c-2.5,1.4-4.1,4.2-4.1,7.1v13.7c0,1.2-0.9,2-2,2c-0.5,0-1-0.2-1.3-0.5l-3.3-2.8c-2.3-2-3.5-4.8-3.5-7.8L4.2,26.7L4.2,26.7z
		 M84.3,62.9l-11,12.9h-0.1c-0.4-0.3-0.9-0.4-1.3-0.6l-14.5-4.8c-0.6-0.2-1.2-0.4-1.9-0.4c0,0-0.1,0-0.1-0.1V57.5
		c0-3.4,2.7-6.1,6.1-6.1h14.4c1.2,0,2-0.9,2-2l0,0c0-1.2-0.9-2-2-2H61.6c-5.7,0-10.3,4.6-10.3,10.3v12.2c0,0,0,0.1-0.1,0.1h-2.7
		c-1.1,0-2.2,0.2-3.3,0.5l-14.5,4.8c-0.4,0.2-0.9,0.4-1.3,0.6h-0.1l-10.7-13l0,0V43.1c0-2,1.5-3.7,3.5-4.1c0,0,0,0,0.1,0
		c3.8,2.7,8.2,4.1,12.9,4.1h36.8c3.3,0,6.5-1.2,9-3.2l0.2-0.1c0.6-0.5,1.5-0.7,2.2-0.4c0.8,0.4,1.2,1.1,1.2,1.9L84.3,62.9L84.3,62.9
		z M10.2,80.3l-1.4-3.6c-0.3-0.7-0.4-1.5-0.4-2.3v-13l0.1,0.1c1.2,1,2.5,1.5,4,1.5c0.7,0,1.3-0.2,2-0.4c0,0,0.1,0,0.1,0.1V84
		c0,0.1,0,0.1-0.1,0.1C12.5,83.5,11,82.2,10.2,80.3z M18.6,86.3V69.5c0-0.1,0.1-0.1,0.1,0l8.3,9.8c0,0,0,0,0,0.1
		c-0.2,0.6-0.3,1.2-0.3,1.9v26.8c0,0.1-0.1,0.1-0.1,0.1C21.4,101.9,18.6,94.1,18.6,86.3z M30.9,111.9L30.9,111.9V81
		c0-0.9,0.5-1.7,1.4-2l14.4-4.8c0.6-0.2,1.3-0.4,2-0.4h5.5c0.6,0,1.3,0.1,2,0.4L70.7,79c0.8,0.3,1.4,1.1,1.4,2v30.9c0,0,0,0,0,0.1
		C60,121.6,42.9,121.6,30.9,111.9z M76.2,107.8C76.2,107.9,76.1,107.8,76.2,107.8l-0.1-26.9c0-0.6-0.1-1.2-0.3-1.9v-0.1l8.3-9.8
		c0-0.1,0.1,0,0.1,0v17C84.3,94.1,81.5,101.9,76.2,107.8z M94.1,76.7l-1.4,3.6c-0.7,1.9-2.3,3.2-4.2,3.6c0,0-0.1,0-0.1-0.1V62.5
		c0-0.1,0.1-0.1,0.1-0.1c2,0.8,4.3,0.4,5.9-1.2l0.1-0.1v13C94.6,75.2,94.4,76,94.1,76.7z M98.7,47.7c0,3-1.3,5.9-3.5,7.8l-3.3,2.8
		C91,59,89.8,58.9,89,58.1c-0.4-0.4-0.5-0.9-0.5-1.3V41.4c0-2.4-1.3-4.5-3.5-5.6c-2.1-1.1-4.7-0.7-6.6,0.7l-0.2,0.2
		c-1.9,1.4-4.1,2.2-6.4,2.2H35c-10.2,0-18.4-8.2-18.4-18.4V10.2c0-3.4,2.7-6.1,6.1-6.1h53.4c12.5,0,22.6,10.1,22.6,22.6L98.7,47.7
		L98.7,47.7z"/>
	<path class="st0" d="M32.9,55.5h8.2c1.2,0,2,0.9,2,2l0,0c0,1.2-0.9,2-2,2h-8.2c-1.2,0-2-0.9-2-2l0,0C30.9,56.4,31.8,55.5,32.9,55.5
		z"/>
	<path class="st0" d="M63.7,55.5h8.2c1.2,0,2,0.9,2,2l0,0c0,1.2-0.9,2-2,2h-8.2c-1.2,0-2-0.9-2-2l0,0C61.7,56.4,62.7,55.5,63.7,55.5
		z"/>
	<path class="st0" d="M28.9,47.2h12.3c1.2,0,2,0.9,2,2l0,0c0,1.2-0.9,2-2,2H28.9c-1.2,0-2-0.9-2-2l0,0
		C26.7,48.1,27.7,47.2,28.9,47.2z"/>
</g>
</svg>
