<?xml version="1.0" encoding="utf-8"?>
<!-- Generator: Adobe Illustrator 24.0.1, SVG Export Plug-In . SVG Version: 6.00 Build 0)  -->
<svg version="1.1" id="Layer_1" xmlns="http://www.w3.org/2000/svg" xmlns:xlink="http://www.w3.org/1999/xlink" x="0px" y="0px"
	 viewBox="0 0 350 350" style="enable-background:new 0 0 350 350;" xml:space="preserve">
<style type="text/css">
	.st0{fill:#13132D;}
	.st1{fill:#A5D6D7;}
	.st2{fill:#FF5D47;}
</style>
<path class="st0" d="M129.3,196.5c2.1,1.7,4.5,2.9,7.1,3.6c-3.8,4.2-3.9,10.6-0.3,14.9l10.8,13.3c4,4.9,11.2,5.7,16.2,1.6l9.5-7.7
	c4.9,0.6,9.7-0.9,13.5-4l29.9-24.4c1.8-1.4,2.7-3.7,2.4-6c-0.3-2.3-1.7-4.3-3.7-5.3l2.6-2.2c1.8-1.5,2.7-3.7,2.4-6
	c-0.3-2.3-1.7-4.3-3.8-5.3c2.2-2.7,2-6.6-0.4-9c-2.4-2.5-6.3-2.7-9-0.5l-0.8,0.7c-0.6-2.2-2.2-4-4.4-4.7c-2.2-0.7-4.6-0.3-6.3,1.2
	l-10.1,8.2c0.2-2.9-0.8-5.8-2.7-8.1c-1.4-1.7-3.9-2-5.6-0.6l-2.5,2h-0.9c2-2.1,3.1-4.9,3-7.9c0-1.1-0.4-2.1-1.2-2.8
	c-0.7-0.7-1.8-1.1-2.8-1.1l-33.7,0c-5.8,0-11.2,3.1-14.2,8.1l-9.2,0c-6.3,0-11.4,5.3-11.4,11.6l0,17.2c0,3,1.2,5.9,3.3,8.1
	c2.1,2.1,5,3.3,8.1,3.3l12.2,0C128.1,195.6,128.7,196,129.3,196.5z M179.1,159.4C179.2,159.4,179.2,159.4,179.1,159.4
	C179.2,159.4,179.2,159.4,179.1,159.4c2.8,3.4,2.3,8.4-1.1,11.2l-8.8,7.2c-0.5,0.4-0.8,1.1-0.7,1.8c0.1,0.7,0.6,1.3,1.2,1.5
	c0.7,0.2,1.4,0.1,1.9-0.3l8.8-7.2l0,0l16.9-13.8c0.8-0.6,1.8-0.8,2.8-0.5c0.9,0.4,1.6,1.2,1.8,2.2c0.2,1-0.2,2-1,2.6l-22,17.9
	c-0.6,0.4-0.8,1.1-0.7,1.8c0.1,0.7,0.6,1.3,1.3,1.5c0.7,0.2,1.4,0.1,1.9-0.3l22-17.9l5.5-4.5c1.2-1,2.9-0.8,3.9,0.4
	c1,1.2,0.8,2.9-0.4,3.9l-3.7,3l0,0l-5.5,4.5l0,0l-18.3,14.9c-0.5,0.4-0.8,1.1-0.7,1.8c0.1,0.7,0.6,1.3,1.2,1.5
	c0.7,0.2,1.4,0.1,1.9-0.3l18.3-14.9l5.5-4.5c1.2-1,3-0.8,3.9,0.4c1,1.2,0.8,3-0.4,3.9l-6.5,5.3c-0.1,0.1-0.2,0.2-0.3,0.3
	c-0.2,0.1-0.4,0.3-0.6,0.5l-12.7,10.4c-0.6,0.4-0.8,1.1-0.7,1.8c0.1,0.7,0.6,1.3,1.3,1.5c0.7,0.2,1.4,0.1,2-0.3l12.7-10.4
	c0.8-0.6,1.8-0.8,2.8-0.5c0.9,0.4,1.6,1.2,1.8,2.2c0.2,1-0.2,2-1,2.6l-29.9,24.4c-3.1,2.5-7.1,3.6-11,3c-0.6-0.2-1.3,0-1.8,0.4
	l-10.2,8.3c-3.2,2.6-8,2.2-10.6-1.1l-10.8-13.3c-2.6-3.2-2.2-8,1.1-10.6l6.2-5c0,0,0.1-0.1,0.1-0.1l1.8-1.7c0.5-0.5,0.7-1.2,0.6-1.9
	c-1.1-4.6,0.5-9.5,4.2-12.5L179.1,159.4z M115.3,190.8c-2,0-3.9-0.8-5.3-2.1c-1.4-1.4-2.2-3.3-2.2-5.3l0-17.2c0-4.2,3.3-7.7,7.5-7.7
	l7.6,0c-0.3,1.3-0.5,2.7-0.5,4.1c0,5.3,2.1,10.3,5.8,14l1,1c0.8,0.8,2,0.8,2.8,0c0.8-0.8,0.8-2,0-2.8l-1-1c-3-3-4.7-7-4.6-11.2
	c0-6.8,5.5-12.3,12.3-12.3l33.7,0c0,0,0.1,0,0.1,0c0,2.1-0.8,4.1-2.3,5.6c-1.5,1.5-3.5,2.3-5.6,2.3l-13.7,0c-1.1,0-2,0.9-2,2
	c0,3.8-3.1,6.9-6.8,6.9c-1.1,0-2,0.9-2,2c0,0.5,0.2,1,0.6,1.4c0.4,0.4,0.9,0.6,1.4,0.6c5.2,0,9.7-3.7,10.6-8.8l16.8,0l-6.9,5.6
	c-0.1,0-0.1,0-0.2,0l-4.3,0c-1,0-1.9,0.8-2,1.9c-0.1,1,0.7,1.9,1.7,2.1l-7.2,5.9c-4.5,3.7-6.7,9.6-5.8,15.3l-1,0.9l-3.5,2.9
	c-6.4-0.2-12.2-5-13.6-11.2c-0.2-1.1-1.3-1.7-2.4-1.5c-0.5,0.1-0.9,0.4-1.2,0.8c-0.3,0.4-0.4,1-0.2,1.5c0.4,1.6,1,3.1,1.8,4.5
	L115.3,190.8z"/>
<path class="st1" d="M201.7,135.2l-7.6-12c-0.4-0.6-1-0.9-1.7-0.9c-0.7,0-1.3,0.3-1.7,0.9l-7.6,12c0,0.1-0.1,0.1-0.1,0.2
	c-2.1,4.4-0.9,9.6,2.9,12.6c3.8,3,9.2,3,13,0c3.8-3,5-8.3,2.9-12.6C201.8,135.3,201.7,135.3,201.7,135.2z M197,144.5
	c-2.5,2.5-6.6,2.5-9.1,0l-1.4,1.4l1.4-1.4c-1.9-1.9-2.4-4.8-1.3-7.3l5.8-9.3l5.9,9.3C199.4,139.7,198.9,142.6,197,144.5L197,144.5z"
	/>
<path class="st1" d="M215.6,114.4c-0.7,0-1.3,0.3-1.7,0.9l-5,8c0,0.1-0.1,0.1-0.1,0.2c-1.4,2.9-0.8,6.4,1.5,8.7
	c2.6,2.6,6.7,3,9.8,0.8c3-2.1,4-6.2,2.4-9.5c0-0.1-0.1-0.1-0.1-0.2l-5-8C216.9,114.7,216.3,114.4,215.6,114.4z M218.2,129.4
	c-1.4,1.4-3.7,1.4-5.2,0c-1.1-1.1-1.4-2.7-0.7-4.1l3.3-5.3l3.3,5.3C219.5,126.7,219.2,128.3,218.2,129.4z"/>
<path class="st2" d="M236.1,147.6c-3.5-0.3-6.3-3.1-6.6-6.6c-0.1-1-0.9-1.8-2-1.8c-1,0-1.9,0.8-2,1.8c-0.3,3.5-3.1,6.3-6.6,6.6
	c-1,0.1-1.8,0.9-1.8,2c0,1,0.8,1.9,1.8,2c3.5,0.3,6.3,3.1,6.6,6.6c0.1,1,0.9,1.8,2,1.8s1.9-0.8,2-1.8c0.3-3.5,3.1-6.3,6.6-6.6
	c1-0.1,1.8-0.9,1.8-2C237.9,148.6,237.1,147.7,236.1,147.6z M227.5,152.4c-0.8-1.1-1.7-2.1-2.8-2.8c1.1-0.8,2.1-1.7,2.8-2.8
	c0.8,1.1,1.7,2.1,2.8,2.8C229.3,150.4,228.3,151.3,227.5,152.4z"/>
<path class="st2" d="M233,211.1c-3.5-0.3-6.3-3.1-6.6-6.6c-0.1-1-0.9-1.8-2-1.8c-1,0-1.9,0.8-2,1.8c-0.3,3.5-3.1,6.3-6.6,6.6
	c-1,0.1-1.8,0.9-1.8,2c0,1,0.8,1.9,1.8,2c3.5,0.3,6.3,3.1,6.6,6.6c0.1,1,0.9,1.8,2,1.8c1,0,1.9-0.8,2-1.8c0.3-3.5,3.1-6.3,6.6-6.6
	c1-0.1,1.8-0.9,1.8-2C234.8,212,234,211.1,233,211.1z M224.4,215.9c-0.8-1.1-1.7-2.1-2.8-2.8c1.1-0.8,2.1-1.7,2.8-2.8
	c0.8,1.1,1.7,2.1,2.8,2.8C226.1,213.8,225.2,214.7,224.4,215.9z"/>
</svg>
