<?xml version="1.0" encoding="utf-8"?>
<!-- Generator: Adobe Illustrator 24.0.1, SVG Export Plug-In . SVG Version: 6.00 Build 0)  -->
<svg version="1.1" id="Layer_1" xmlns="http://www.w3.org/2000/svg" xmlns:xlink="http://www.w3.org/1999/xlink" x="0px" y="0px"
	 viewBox="0 0 331.3 330.5" style="enable-background:new 0 0 331.3 330.5;" xml:space="preserve">
<style type="text/css">
	.st0{fill:#FF5D47;}
	.st1{fill:#13132D;}
	.st2{fill:#14142E;}
	.st3{fill:#15152E;}
	.st4{fill:#171731;}
	.st5{fill:#25253D;}
	.st6{fill:#545466;}
	.st7{fill:#434258;}
	.st8{fill:#46455A;}
	.st9{fill:#4F4F63;}
	.st10{fill:#1A1A33;}
	.st11{fill:#39394F;}
	.st12{fill:#6F6F7F;}
	.st13{fill:#AFAFB8;}
	.st14{fill:#5F5F70;}
	.st15{fill:#9F9FAA;}
	.st16{fill:#7C7B89;}
	.st17{fill:#4B4B5F;}
	.st18{fill:#FFF7F3;}
	.st19{fill:#FFA396;}
	.st20{fill:#FFCDC5;}
	.st21{fill:#FFDAD6;}
	.st22{fill:#FFCFC8;}
	.st23{fill:#FF5F48;}
	.st24{fill:#A5D6D7;}
	.st25{fill:none;stroke:#FFF7F3;stroke-width:6.4;stroke-linecap:round;stroke-linejoin:round;stroke-miterlimit:10;}
	.st26{fill:none;stroke:#FF5D47;stroke-width:6.4;stroke-linecap:round;stroke-linejoin:round;stroke-miterlimit:10;}
	.st27{fill:#161630;}
	.st28{fill:#202038;}
	.st29{fill:#535367;}
	.st30{fill:#303047;}
	.st31{fill:#1B1B34;}
	.st32{fill:#434358;}
	.st33{fill:#575769;}
	.st34{fill:#505064;}
	.st35{fill:#5B5C6D;}
	.st36{fill:#48485D;}
	.st37{fill:#767684;}
	.st38{fill:#636374;}
	.st39{fill:#2E2E46;}
	.st40{fill:#6E6E7E;}
	.st41{fill:#E5E4E7;}
	.st42{fill:#666576;}
	.st43{fill:#5A5A6C;}
	.st44{fill:#656475;}
	.st45{fill:#424257;}
	.st46{fill:#636373;}
	.st47{fill:#AAAAB3;}
	.st48{fill:#545568;}
	.st49{fill:#59596B;}
	.st50{fill:#656575;}
	.st51{fill:#2C2D44;}
	.st52{fill:#4A4A5F;}
	.st53{fill:#616172;}
	.st54{fill:#37374E;}
	.st55{fill:#4C4D61;}
	.st56{fill:#5C5C6F;}
	.st57{fill:#3B3B51;}
	.st58{fill:#9494A0;}
	.st59{fill:#3B3A50;}
	.st60{fill:#828290;}
	.st61{fill:#4C4C60;}
	.st62{fill:#7D7D8B;}
	.st63{fill:#4B4C60;}
	.st64{fill:#3F3F54;}
	.st65{fill:#717180;}
	.st66{fill:#2D2D44;}
	.st67{fill:#36364C;}
	.st68{fill:#7B7B89;}
	.st69{fill:#7B7B88;}
	.st70{fill:#2E2F46;}
	.st71{fill:#737381;}
	.st72{fill:#A6A5AF;}
	.st73{fill:#47485C;}
	.st74{fill:#45455A;}
	.st75{fill:#5E5E6E;}
	.st76{fill:#4A4B5F;}
	.st77{fill:#37374D;}
	.st78{fill:#2A2B42;}
	.st79{fill:#616071;}
	.st80{fill:#2C2C44;}
	.st81{fill:#2F3047;}
	.st82{fill:#404055;}
	.st83{fill:#2E2E45;}
	.st84{fill:#2E2D45;}
	.st85{fill:#404056;}
	.st86{fill:#48495D;}
	.st87{fill:none;stroke:#FF5D47;stroke-width:9.7348;stroke-linecap:round;stroke-linejoin:round;stroke-miterlimit:10;}
	.st88{clip-path:url(#SVGID_2_);}
	.st89{fill:#FEFEFE;}
	.st90{fill:#C30034;}
	.st91{fill:#C71041;}
	.st92{fill:#D65375;}
	.st93{fill:#D96081;}
	.st94{fill:#D75779;}
	.st95{fill:#3E7300;}
	.st96{fill:#437607;}
	.st97{fill:#45780A;}
	.st98{fill:#46790B;}
	.st99{fill:#46780B;}
	.st100{fill:#437606;}
	.st101{fill:#447708;}
	.st102{fill:#417504;}
	.st103{fill:#447709;}
	.st104{fill:#427505;}
	.st105{fill:#F9FAF8;}
	.st106{fill:#407403;}
	.st107{fill:#427606;}
	.st108{fill:#457809;}
	.st109{fill:#457709;}
	.st110{fill:#4B7C12;}
	.st111{fill:#4A7B10;}
	.st112{fill:#487A0D;}
	.st113{fill:#487A0E;}
	.st114{fill:#497B0F;}
	.st115{fill:#47790C;}
	.st116{fill:#508019;}
	.st117{fill:#4E7E16;}
	.st118{fill:#4C7D12;}
	.st119{fill:#4F7F16;}
	.st120{fill:#568420;}
	.st121{fill:#55841F;}
	.st122{fill:#52811A;}
	.st123{fill:#618D2F;}
	.st124{fill:#F9FBF8;}
	.st125{fill:#5C8827;}
	.st126{fill:#638D31;}
	.st127{fill:#B2C79A;}
	.st128{fill:#EFF3EA;}
	.st129{fill:#3F7402;}
	.st130{fill:#3F7301;}
	.st131{fill:#EEF3E9;}
	.st132{fill:#52811B;}
	.st133{fill:#F2F5EE;}
	.st134{fill:#E2E9D8;}
	.st135{fill:#4D7D14;}
	.st136{fill:#5B8827;}
	.st137{fill:#5F8B2C;}
	.st138{fill:#5C8828;}
	.st139{fill:#D8E2CC;}
	.st140{fill:#5A8726;}
	.st141{fill:#4D7E15;}
	.st142{fill:#4B7C11;}
	.st143{fill:#54831E;}
	.st144{fill:#4D7E14;}
	.st145{fill:#588522;}
	.st146{fill:#F5F8F2;}
	.st147{fill:#5C8929;}
	.st148{fill:#5A8725;}
	.st149{fill:#417404;}
	.st150{fill:#5D892A;}
	.st151{fill:#53821C;}
	.st152{fill:#5E8A2A;}
	.st153{fill:#6B933B;}
	.st154{fill:#658F34;}
	.st155{fill:#578522;}
	.st156{fill:#5E8A2B;}
	.st157{fill:#598624;}
	.st158{fill:#608C2D;}
	.st159{fill:#F5F7F2;}
	.st160{fill:#6D943D;}
	.st161{fill:#4A7C10;}
	.st162{fill:#6A933A;}
	.st163{fill:#588623;}
	.st164{fill:#6A923A;}
	.st165{fill:#709742;}
	.st166{fill:#578421;}
	.st167{fill:#719844;}
	.st168{fill:#DC6B89;}
	.st169{fill:#5A8625;}
	.st170{fill:#6E953F;}
	.st171{fill:#638E31;}
	.st172{fill:#52821B;}
	.st173{fill:#3E7301;}
	.st174{fill:#6C943D;}
	.st175{fill:#DAE4CF;}
	.st176{fill:#508018;}
	.st177{fill:#B1C697;}
	.st178{fill:#F8FAF6;}
	.st179{fill:#FAFBF9;}
	.st180{fill:#E9EFE2;}
	.st181{fill:#ECF1E6;}
	.st182{fill:#427605;}
	.st183{fill:#F5F8F3;}
	.st184{fill:#FCFCFB;}
	.st185{fill:#6B943C;}
	.st186{fill:#E8EEE2;}
	.st187{fill:#EAF0E4;}
	.st188{fill:#E0E8D6;}
	.st189{fill:#F1F5ED;}
</style>
<g>
	<path class="st1" d="M15,141.7c6.8,0.5,11.2,5.7,10.7,13c-0.5,7.7-6.7,12.8-13.8,12.3C4.8,166.4-0.5,160.4,0,153
		c0.3-4.7,3-8.5,6.6-10.4l1.8,3.6c-2.4,1.1-4.2,3.7-4.4,7c-0.4,5.2,3.2,9.2,8.3,9.5c5,0.4,9.1-3,9.5-8.5c0.3-4.5-1.8-7.4-5.1-8.4
		l-0.6,8.3l-3.6-0.3l0.9-12.4L15,141.7z"/>
	<path class="st1" d="M18.2,138.2c-5.1-1.3-8-6.3-6.8-11.3c1.3-5.1,6.2-8.1,11.3-6.8c5.1,1.3,8,6.3,6.8,11.3
		C28.2,136.4,23.2,139.5,18.2,138.2z M21.8,123.7c-3.1-0.8-6,1-6.8,4c-0.8,3,1,5.9,4.1,6.7c3.1,0.8,6-1,6.8-4
		C26.6,127.4,24.9,124.5,21.8,123.7z"/>
	<path class="st1" d="M32.9,109.9c0.8-2,0.5-3.8-0.3-5.1l2.9-2.2c1.6,2.4,1.9,5.4,0.6,8.6c-2.2,5.4-7.4,7.4-12.3,5.3
		c-4.8-2-7.2-7.1-5-12.2c2-4.9,7.3-6.6,12-4.6c0.5,0.2,1,0.5,1.4,0.7l-5.4,13C29.7,114,31.8,112.5,32.9,109.9z M28,102.7
		c-3-0.7-5.1,0.9-6,3c-1.1,2.7-0.3,5.1,2,6.6L28,102.7z"/>
	<path class="st1" d="M28.5,72.2l21.2,12.8l-2,3.3L45.5,87c0.9,2.1,0.8,4.5-0.6,6.9c-2.5,4.1-8.1,5.4-12.5,2.7
		c-4.5-2.7-5.9-8.3-3.4-12.4c1.4-2.4,3.5-3.6,5.8-3.8l-8.2-5L28.5,72.2z M40.1,83.8c-2.8-1.7-6.1-0.9-7.8,1.9c-1.7,2.7-0.9,6,2,7.7
		c2.8,1.7,6.1,0.9,7.8-1.9C43.7,88.8,43,85.5,40.1,83.8z"/>
	<path class="st1" d="M50.2,56.5l12.9,10.9c4.4,3.7,3.5,8.8,0.5,12.4c-2.5,3-5.6,4.3-8.7,3.7l0.7-3.8c1.7,0.4,3.4,0.2,5.4-2.2
		c2.1-2.5,2-5.2-0.3-7.2L59,68.9c0.6,2.3,0.1,4.6-1.6,6.7c-3.2,3.8-8.9,4.2-12.7,0.9s-4.5-8.9-1.2-12.7c1.8-2.1,4-2.9,6.3-2.7
		l-2-1.7L50.2,56.5z M54.4,65c-2.4-2.1-5.8-1.7-7.9,0.7c-2.1,2.5-1.8,5.8,0.6,7.9c2.4,2.1,5.8,1.7,7.9-0.7
		C57.1,70.4,56.8,67.1,54.4,65z"/>
	<path class="st1" d="M71.3,56.9c1.6-1.4,2.2-3.2,2-4.7l3.6-0.7c0.4,2.9-0.7,5.7-3.3,8c-4.4,3.9-9.9,3.3-13.4-0.7
		c-3.5-3.9-3.3-9.5,0.9-13.2c4-3.5,9.5-2.7,12.9,1.2c0.4,0.4,0.7,0.9,0.9,1.3l-10.6,9.3C66.5,59.2,69.2,58.8,71.3,56.9z M70,48.3
		c-2.4-1.9-5-1.5-6.7,0.1c-2.2,1.9-2.5,4.5-1.2,6.8L70,48.3z"/>
	<path class="st1" d="M91.7,45.6l-10.6-2.9l4.5,6.8l-3.2,2.1L68.8,31l3.2-2.1l8.2,12.5l1.4-10.3l3.9-2.6L83.8,40l11.7,3.1L91.7,45.6
		z"/>
	<path class="st1" d="M103,36.1c1.9-0.9,2.9-2.5,3.2-4l3.6,0.3c-0.4,2.9-2.2,5.3-5.3,6.9c-5.3,2.6-10.4,0.6-12.7-4.2
		c-2.3-4.7-0.7-10,4.3-12.5c4.7-2.3,9.9-0.1,12.1,4.5c0.2,0.5,0.4,1,0.6,1.5l-12.7,6.2C97.8,37,100.5,37.3,103,36.1z M104.1,27.5
		c-1.8-2.5-4.4-2.7-6.5-1.7C95,27,94,29.4,94.7,32L104.1,27.5z"/>
	<path class="st1" d="M124.8,12.3l5.4,16.9l-3.6,1.2l-0.7-2.2c-0.6,2.1-2.1,3.5-4.4,4.3c-3.8,1.2-7.3-0.5-8.7-4.9l-3.3-10.4l3.6-1.2
		l3.2,10c0.8,2.6,2.7,3.4,5,2.7c2.4-0.8,3.8-2.8,2.7-6.2l-2.9-9.1L124.8,12.3z"/>
	<path class="st1" d="M140.2,8.8l0.8,4.1c-2.5,0.3-5.2,2-4.4,5.9l1.7,8.8l-3.8,0.7l-3.4-17.4l3.8-0.7l0.6,2.9
		C136.1,10.5,138,9.3,140.2,8.8z"/>
	<path class="st1" d="M161.6,0l1.9,24.7l-3.8,0.3l-0.2-2.5c-1.2,2-3.2,3.3-6,3.5c-4.8,0.4-9.1-3.4-9.5-8.6c-0.4-5.3,3.3-9.6,8.1-10
		c2.8-0.2,4.9,0.8,6.4,2.5l-0.7-9.6L161.6,0z M159,16.2c-0.2-3.3-2.8-5.5-6-5.2c-3.2,0.2-5.4,2.8-5.2,6.1c0.2,3.3,2.8,5.5,6,5.2
		C157,22,159.2,19.5,159,16.2z"/>
	<path class="st1" d="M198.2,3.3l-3.6,24.5l-3.8-0.6l0.4-2.5c-1.6,1.7-3.8,2.5-6.6,2.1c-4.8-0.7-8.1-5.3-7.4-10.5
		c0.8-5.2,5.3-8.6,10.1-7.9c2.7,0.4,4.6,1.8,5.7,3.8l1.4-9.5L198.2,3.3z M192.1,18.5c0.5-3.3-1.6-6-4.7-6.4
		c-3.2-0.5-5.9,1.5-6.4,4.8s1.6,6,4.7,6.4C188.9,23.7,191.6,21.7,192.1,18.5z"/>
	<path class="st1" d="M200.4,20c1.6-5,6.8-7.7,11.7-6.1c5,1.5,7.7,6.6,6.2,11.7c-1.6,5-6.7,7.7-11.7,6.1
		C201.7,30.2,198.9,25,200.4,20z M214.6,24.5c1-3.1-0.6-6.1-3.6-7c-3-0.9-6,0.6-6.9,3.7c-1,3.1,0.6,6.1,3.6,7
		C210.7,29.1,213.7,27.5,214.6,24.5z"/>
	<path class="st1" d="M221.7,26.9c2.3-4.8,7.8-6.6,12.5-4.3c4.7,2.3,6.7,7.7,4.4,12.5c-2.3,4.7-7.8,6.6-12.5,4.3
		C221.4,37.1,219.4,31.7,221.7,26.9z M235.1,33.4c1.4-2.9,0.3-6.1-2.5-7.5c-2.8-1.4-6-0.3-7.4,2.6c-1.4,2.9-0.3,6.1,2.5,7.5
		C230.5,37.4,233.7,36.3,235.1,33.4z"/>
	<path class="st1" d="M255.1,34.9l-2.2,3.5c-2-1.5-5.1-2.1-7.3,1.2l-4.8,7.5l-3.2-2.1l9.6-14.9l3.2,2.1l-1.6,2.5
		C250.9,33.3,253.2,33.7,255.1,34.9z"/>
	<path class="st1" d="M272.4,44.9l-4.7,5.1l7.4,6.8l-2.6,2.9l-7.4-6.8l-6.8,7.4l-3-2.8L272,39.3l10.7,9.8L280,52L272.4,44.9z"/>
	<path class="st1" d="M277.6,61.2c5.7-4.4,13.7-3.4,18.1,2.2c4.4,5.7,3.5,13.6-2.2,18.1c-5.7,4.4-13.6,3.5-18.1-2.2
		C270.9,73.6,271.9,65.6,277.6,61.2z M290.9,78.2c4-3.1,4.6-8.5,1.6-12.4c-3.1-3.9-8.4-4.6-12.4-1.4c-4,3.1-4.6,8.5-1.6,12.4
		C281.5,80.7,286.9,81.4,290.9,78.2z"/>
	<path class="st1" d="M306.2,105.6c-6.1,3.2-13.3,1.2-16.5-4.9l-4.5-8.7l22.1-11.4l4.5,8.7C314.9,95.4,312.4,102.4,306.2,105.6z
		 M304.4,102.1c4.4-2.3,6.1-6.8,3.9-11l-2.6-5l-15.1,7.8l2.6,5C295.3,103.1,300,104.3,304.4,102.1z"/>
	<path class="st1" d="M322.8,115.1l1.1,4.3l-17.7,11.1l20.9,1.7l1.1,4.3l-26.1-2.5l-1.2-4.8L322.8,115.1z"/>
	<path class="st1" d="M312.5,140.7c5.2-0.6,9.7,3.1,10.3,8.3c0.6,5.2-3,9.7-8.3,10.3c-5.2,0.6-9.7-3.1-10.3-8.3
		C303.7,145.9,307.3,141.3,312.5,140.7z M314.1,155.5c3.2-0.3,5.3-3,5-6.1c-0.3-3.1-3-5.2-6.2-4.9c-3.2,0.3-5.3,3-5,6.1
		S310.9,155.8,314.1,155.5z"/>
	<path class="st1" d="M331.3,163.9l0,3.8l-25.9-0.1l0-3.8L331.3,163.9z"/>
	<path class="st1" d="M304.4,183.3l8.9-6.4l-8.1-0.8l0.4-3.8l24.7,2.4l-0.4,3.8l-14.8-1.5l7.1,7.6l-0.5,4.7l-7.9-8.6l-9.8,7.2
		L304.4,183.3z"/>
	<path class="st1" d="M305.7,202.9c-3.5-0.8-4.7-4.2-3.9-7.9c0.7-3.5,2.8-5.6,5.6-6.2l1.2,3.6c-1.7,0.2-2.9,1.4-3.3,3.3
		c-0.4,1.7-0.1,3.1,1.3,3.4c3.1,0.7,3.4-9,9.6-7.7c3.3,0.7,4.7,4,3.9,7.5c-0.6,2.8-2.4,4.9-5,5.6L314,201c1.5-0.3,2.4-1.4,2.7-2.8
		c0.3-1.3,0-2.7-1.3-2.9C312.2,194.6,312.1,204.3,305.7,202.9z"/>
	<path class="st1" d="M310.7,227.5l-15.9-5.8c-5.4-1.9-6.3-7.1-4.8-11.4c1.3-3.7,3.7-6,6.9-6.4l0.7,3.8c-1.7,0.2-3.3,1-4.3,3.9
		c-1.1,3.1-0.1,5.6,2.8,6.6l2,0.7c-1.3-1.9-1.7-4.3-0.8-6.8c1.7-4.7,6.9-7,11.6-5.3c4.8,1.7,7.3,6.8,5.6,11.5
		c-0.9,2.6-2.7,4.1-5,4.7l2.5,0.9L310.7,227.5z M303.8,221c3,1.1,6.1-0.4,7.2-3.4c1.1-3-0.3-6.1-3.3-7.2s-6.1,0.4-7.2,3.4
		C299.4,216.8,300.8,219.9,303.8,221z"/>
	<path class="st1" d="M290.7,234.4c-1,1.9-0.9,3.7-0.3,5.1l-3.1,1.9c-1.3-2.6-1.3-5.6,0.3-8.7c2.8-5.1,8.1-6.5,12.8-4
		c4.6,2.5,6.4,7.8,3.7,12.7c-2.5,4.6-8,5.8-12.5,3.3c-0.5-0.3-0.9-0.6-1.3-0.9l6.8-12.4C294.4,230.6,292.1,231.9,290.7,234.4z
		 M294.9,242c2.9,1,5.2-0.3,6.3-2.4c1.4-2.5,0.8-5-1.3-6.8L294.9,242z"/>
	<path class="st1" d="M277.7,255.2l-2.9-2.1l8.1-11.2l2.1,1.5l4.5,13.5l4.6-6.4l2.9,2.1l-7.7,10.6l-2.1-1.5l-4.5-13.5L277.7,255.2z"
		/>
	<path class="st1" d="M280.4,260.4c3.9,3.6,3.9,9.4,0.4,13.2c-3.6,3.8-9.3,4.1-13.2,0.5c-3.8-3.6-4-9.4-0.4-13.2
		C270.7,257.1,276.6,256.8,280.4,260.4z M270.2,271.3c2.4,2.2,5.7,2.1,7.9-0.2c2.1-2.3,2-5.7-0.3-7.9c-2.4-2.2-5.7-2.1-7.9,0.2
		C267.8,265.7,267.9,269.1,270.2,271.3z"/>
	<path class="st1" d="M252.8,288.8l-6.8-8.5l3-2.4l6.5,8.2c1.7,2.1,3.8,2.2,5.7,0.7c2-1.6,2.6-4,0.3-6.8l-5.9-7.4l3-2.4l11,13.9
		l-3,2.4l-1.4-1.8c0.2,2.2-0.7,4.1-2.6,5.6C259.5,292.7,255.6,292.4,252.8,288.8z"/>
	<path class="st1" d="M239.6,312.9l-12.4-21.5l3.3-1.9l1.3,2.2c0.2-2.3,1.5-4.3,3.9-5.7c4.2-2.4,9.7-0.9,12.3,3.7
		c2.6,4.6,1.2,10.1-3,12.5c-2.4,1.4-4.8,1.4-6.9,0.5l4.8,8.3L239.6,312.9z M235,297.2c1.6,2.9,4.9,3.7,7.7,2.1
		c2.8-1.6,3.7-4.8,2-7.7s-4.9-3.7-7.7-2.1C234.3,291.1,233.4,294.3,235,297.2z"/>
	<path class="st1" d="M212.3,309.2l-3.9-10.1l3.6-1.4l3.8,9.8c1,2.5,2.9,3.3,5.2,2.4c2.3-0.9,3.7-3,2.3-6.4l-3.4-8.9l3.6-1.4l9,23.1
		l-3.6,1.4l-3.4-8.7c-0.4,2.1-1.9,3.7-4.1,4.5C217.6,315,213.9,313.5,212.3,309.2z"/>
	<path class="st1" d="M196.8,305.1c-2.1,0.5-3.4,1.8-4,3.2l-3.5-1.1c1-2.7,3.3-4.7,6.7-5.5c5.7-1.3,10.3,1.8,11.5,6.9
		c1.2,5.1-1.6,9.9-7,11.2c-5.1,1.2-9.6-2.2-10.8-7.1c-0.1-0.5-0.2-1.1-0.2-1.6l13.8-3.1C202,305.3,199.5,304.5,196.8,305.1z
		 M193.8,313.3c1.2,2.9,3.7,3.6,5.9,3.1c2.8-0.6,4.3-2.7,4.2-5.4L193.8,313.3z"/>
	<path class="st1" d="M186.4,321.9l-3.8,0.5l-2.2-17.6l3.8-0.5L186.4,321.9z M187.5,326.8c0.2,1.3-0.8,2.6-2.1,2.7
		c-1.3,0.2-2.6-0.8-2.7-2.1c-0.2-1.3,0.8-2.6,2.1-2.7C186.1,324.6,187.4,325.5,187.5,326.8z"/>
	<path class="st1" d="M158.5,330.5l-0.4-24.8l3.8-0.1l0,2.6c1.3-1.9,3.4-3.1,6.2-3.1c4.8-0.1,8.9,3.9,9,9.2c0.1,5.3-3.9,9.4-8.7,9.4
		c-2.8,0-4.9-1.1-6.2-2.9l0.1,9.6L158.5,330.5z M162.1,314.5c0,3.3,2.5,5.6,5.7,5.6c3.2,0,5.6-2.5,5.5-5.8c0-3.3-2.5-5.6-5.7-5.6
		C164.4,308.8,162,311.2,162.1,314.5z"/>
</g>
<g>
	<path class="st90" d="M184.2,89.7c13.3,1.3,26.2,5,37.1,10.9c11.7,6.4,16,19.4,10.3,30.7c-5.9,11.5-19.3,15.9-31.4,9.7
		c-13.6-7-27.5-8.2-41.7-2.7c-20.6,8.1-32,28.5-28.7,50.8c3.4,22.5,21,39.9,42.4,42.2c8.6,0.9,16.9,0.5,25.1-2.5
		c1.1-0.4,2.2-0.8,4.1,0.3c-10.3,6.4-21,9.5-32.6,8.9c-26-1.3-47-17.3-53.9-40.6c-7.3-24.6,1.7-52.1,22.7-67.2
		c20.8-15,43.3-16.5,66.7-6.5c1.1,0.5,2.1,1,3.2,1.6c3.5,1.8,6.6,1.6,8.6-2.1c1.9-3.6-0.3-6-3.3-7.6c-11.3-6.1-23.4-9.6-36.2-9.8
		C129,105,90.1,139,84.4,186c-0.3,2.8-0.1,5.9-1.8,8.4c0.4-0.6-0.2-3.3-0.3-4.1c-0.1-1.4-0.2-2.9-0.3-4.3c-0.2-3.7-0.1-7.4-0.1-11
		c0-3.4,0-6.8,0.5-10.2c0.9-6.6,3-13,5.8-19c2-4.5,4.4-8.8,6.9-13c8.5-14.2,21-25.2,35.3-33.2C146,91,165.5,87.9,184.2,89.7z"/>
</g>
<g>
	<path class="st95" d="M176.8,163.3c11.7-0.7,21.5,8,22,19.8c0.6,11.4-8.1,21.1-19.5,21.8c-11.6,0.8-21.7-8.1-22.4-19.6
		C156.1,173.8,164.9,164,176.8,163.3z"/>
</g>
</svg>
