<svg id="Layer_1" data-name="Layer 1" xmlns="http://www.w3.org/2000/svg" viewBox="0 0 710.59 690.65"><defs><style>.cls-1{fill:#ff5d47;}.cls-2{fill:#13132d;}.cls-3{fill:#a5d6d7;}</style></defs><path d="M99,138h9.23v3.3h-5.73v3.45h5.4V148h-5.4v6.4H99Z"/><path d="M114.36,138h3.5v16.45h-3.5Z"/><path d="M124.56,138h3.5v13.15h6.8v3.3h-10.3Z"/><path d="M142,141.27h-5V138h13.49v3.3h-5v13.15H142Z"/><path d="M155.58,138h10.1v3.3h-6.6v3.18h6.4v3.3h-6.4v3.37h6.8v3.3h-10.3Z"/><path d="M179.26,149.87a2.26,2.26,0,0,0-2.18-1.83H176v6.38h-3.5V138h5.25c3.43,0,5.45,1.85,5.45,4.53a4.13,4.13,0,0,1-3.1,4.15,3.69,3.69,0,0,1,2.6,2.49l1.95,5.28h-3.82Zm-1.65-4.77a1.92,1.92,0,0,0,2-2,1.87,1.87,0,0,0-2-1.95H176v4Z"/><path class="cls-1" d="M513.48,503.6a78.62,78.62,0,0,1-13.77-1.17c-22.89-4.06-35.87-17.76-44.62-29.25-10.77-14.14-14.33-35.36-15.41-50.66a194.3,194.3,0,0,1,.2-30l-.25-3.26A23,23,0,0,0,432,373.86l-8.48-7.58a9.55,9.55,0,0,1-3-9.3c2.19-9.1,9-15.3,11.71-17.43l-5.16-4.13a22.94,22.94,0,0,1-8.57-19.21c.85-14.69,1.9-32.09,2.24-37.79-3.62,1.72-12.83,3.7-28.48-8.05-21.4-16-7.41-41-7.27-41.29l64-113,1.74,1-64,113a39.09,39.09,0,0,0-4.24,13.79c-1.08,10.26,2.6,18.64,11,24.91,19,14.24,27.65,7.12,27.74,7.05l1.79-1.55-.14,2.36s-1.32,21.85-2.35,39.69a21,21,0,0,0,7.81,17.54l7.22,5.77-1.1.77c-.1.06-9.47,6.67-12,17.05a7.51,7.51,0,0,0,2.36,7.34l8.48,7.58a25,25,0,0,1,8.29,16.78l.26,3.44v.09c-.05.52-5.29,52.92,14.8,79.29,8.53,11.2,21.17,24.55,43.38,28.49,27.35,4.85,63.12-5.83,106.31-31.74l1,1.71C570.65,492.48,539.14,503.6,513.48,503.6Z"/><polygon class="cls-2" points="359.16 195.4 290.77 161.07 96.89 161.07 96.89 160.07 291.01 160.07 291.11 160.13 359.61 194.51 359.16 195.4"/><polygon class="cls-2" points="335.16 271.9 266.77 237.57 97.89 237.57 97.89 236.57 267.01 236.57 267.11 236.63 335.61 271.01 335.16 271.9"/><polygon class="cls-2" points="286.51 440.57 98.89 440.57 98.89 439.57 286.27 439.57 354.66 405.01 355.11 405.9 286.51 440.57"/><polygon class="cls-2" points="392.01 564.57 98.39 564.57 98.39 563.57 391.77 563.57 460.16 529.01 460.61 529.9 392.01 564.57"/><path d="M99,213h5.38l2.3,6,1.17,3.57,1.18-3.62,2.3-5.95h5.27v16.45h-3.45v-9.25l.13-3.8-1.43,3.8-2.4,6h-3.42l-2.4-6-1.45-3.82.12,3.82v9.25H99Z"/><path d="M128.68,213H132l6.55,16.45h-3.8l-1.33-3.5h-6.32l-1.33,3.5h-3.6Zm3.55,9.85-1-2.65-1-3.07-1.05,3.07-1,2.65Z"/><path d="M143.73,228.74v-3.6a8,8,0,0,0,4.6,1.38c1.38,0,2.2-.63,2.2-1.73s-.77-1.62-2.47-2.15l-.48-.14c-2.67-.85-4.05-2.55-4.05-5,0-2.85,2.1-4.85,5.38-4.85a10.49,10.49,0,0,1,4.55,1v3.6a7.88,7.88,0,0,0-4.28-1.38c-1.35,0-2.07.48-2.07,1.5s.72,1.48,2.22,1.95l.48.15c2.85.88,4.3,2.55,4.3,4.9,0,3.2-2.15,5.4-5.58,5.4A10.8,10.8,0,0,1,143.73,228.74Z"/><path d="M160.18,213h3.5v7.28l5.95-7.28h4.2l-6.55,7.8,7.2,8.65h-4.57l-6.23-7.67v7.67h-3.5Z"/><path d="M180,213h10.1v3.3h-6.6v3.18h6.4v3.3h-6.4v3.37h6.8v3.3H180Z"/><path d="M203.63,224.87a2.25,2.25,0,0,0-2.17-1.83h-1.1v6.38h-3.5V213h5.25c3.42,0,5.45,1.85,5.45,4.53a4.13,4.13,0,0,1-3.1,4.15,3.71,3.71,0,0,1,2.6,2.49l1.95,5.28h-3.83ZM202,220.1a1.92,1.92,0,0,0,2-2,1.87,1.87,0,0,0-2-1.95h-1.62v4Z"/><path d="M99,414h4.43c4,0,6.45,2.13,6.45,5.6s-2.48,5.55-6.4,5.55h-1v5.3H99Zm4.63,8a2.4,2.4,0,0,0,2.7-2.4c0-1.45-1-2.35-2.73-2.35h-1.1V422Z"/><path d="M115.91,414h3.5v13.15h6.8v3.3h-10.3Z"/><path d="M130.58,422.2a8.27,8.27,0,0,1,8.65-8.63c5.08,0,8.65,3.35,8.65,8.63s-3.37,8.62-8.65,8.62S130.58,427.29,130.58,422.2Zm13.75,0c0-3.28-2-5.38-5.1-5.38s-5.1,2.1-5.1,5.38,2,5.37,5.1,5.37S144.33,425.47,144.33,422.2Z"/><path d="M153.38,422.2a8.27,8.27,0,0,1,8.65-8.63c5.08,0,8.65,3.35,8.65,8.63s-3.37,8.62-8.65,8.62S153.38,427.29,153.38,422.2Zm13.75,0c0-3.28-2-5.38-5.1-5.38s-5.1,2.1-5.1,5.38,2,5.37,5.1,5.37S167.13,425.47,167.13,422.2Z"/><path d="M176.78,414h3.5v16.45h-3.5Z"/><path d="M190.48,417.27h-5V414H199v3.3h-5v13.15h-3.5Z"/><path d="M202.28,435.92v-3.25h.2a2.11,2.11,0,0,0,2.13-2.35V414h3.5v16.35a5.25,5.25,0,0,1-5.63,5.6Z"/><path d="M214.81,414h10.1v3.3h-6.6v3.18h6.4v3.3h-6.4v3.37h6.8v3.3h-10.3Z"/><path d="M231.43,429.74v-3.6a8,8,0,0,0,4.6,1.38c1.38,0,2.2-.63,2.2-1.73s-.77-1.62-2.47-2.15l-.48-.14c-2.67-.85-4.05-2.55-4.05-5,0-2.85,2.1-4.85,5.38-4.85a10.49,10.49,0,0,1,4.55,1v3.6a7.88,7.88,0,0,0-4.28-1.38c-1.35,0-2.07.48-2.07,1.5s.72,1.48,2.22,1.95l.48.15c2.85.88,4.3,2.55,4.3,4.9,0,3.2-2.15,5.4-5.58,5.4A10.8,10.8,0,0,1,231.43,429.74Z"/><path d="M98.43,548.2a8.27,8.27,0,0,1,8.65-8.63c5.08,0,8.65,3.35,8.65,8.63s-3.37,8.62-8.65,8.62S98.43,553.29,98.43,548.2Zm13.75,0c0-3.28-2-5.38-5.1-5.38s-5.1,2.1-5.1,5.38,2,5.37,5.1,5.37S112.18,551.47,112.18,548.2Z"/><path d="M121.83,540h5.38l2.3,6,1.17,3.57,1.18-3.62,2.3-5.95h5.27v16.45H136v-9.25l.13-3.8-1.43,3.8-2.4,6h-3.42l-2.4-6L125,543.35l.12,3.82v9.25h-3.3Z"/><path d="M145.86,555.74v-3.6a8,8,0,0,0,4.6,1.38c1.37,0,2.2-.63,2.2-1.73s-.78-1.62-2.48-2.15l-.47-.14c-2.68-.85-4.05-2.55-4.05-5,0-2.85,2.1-4.85,5.37-4.85a10.49,10.49,0,0,1,4.55,1v3.6a7.85,7.85,0,0,0-4.27-1.38c-1.35,0-2.08.48-2.08,1.5s.73,1.48,2.23,2l.47.15c2.85.88,4.3,2.55,4.3,4.9,0,3.2-2.15,5.4-5.57,5.4A10.74,10.74,0,0,1,145.86,555.74Z"/><path d="M162.31,540h3.5v13.15h6.8v3.3h-10.3Z"/><path d="M183.68,540H187l6.55,16.45h-3.8l-1.33-3.5h-6.32l-1.33,3.5h-3.6Zm3.55,9.85-1-2.65-1-3.07-1.05,3.07-1,2.65Z"/><path d="M197.51,548.1c0-5.2,3.37-8.53,8.7-8.53a14.42,14.42,0,0,1,5.47,1.1v3.38a11.43,11.43,0,0,0-5.32-1.23,5,5,0,0,0-5.3,5.28c0,3.32,2,5.47,4.87,5.47a9,9,0,0,0,3-.45v-2.65h-3.35v-3.3h6.85v8.3a14.53,14.53,0,0,1-6.25,1.35C200.81,556.82,197.51,553.42,197.51,548.1Z"/><path class="cls-2" d="M530.12,567.23a34.69,34.69,0,0,1-11.88-2.29c-12.49-4.54-36.82-18.77-57.3-36.18-.41-.4-8.5-8.62-5.27-16.15l1.83.78c-2.7,6.31,4.72,13.83,4.79,13.9,20.25,17.21,44.31,31.29,56.64,35.77,18.17,6.61,26.27-3.53,28.27-6.66-88.61-46.57-138.63-116-139.13-116.66a3.52,3.52,0,0,1,3.82-5.49c4.08,1.25,8.86,3.85,14.22,7.74a1.57,1.57,0,0,0,2.1-.15,1.62,1.62,0,0,0,.27-2.12,200.9,200.9,0,0,0-27-33.66,3.93,3.93,0,0,1,4.17-6.45,87.21,87.21,0,0,1,14.63,7.56,1.26,1.26,0,0,0,1.66-.23,1.22,1.22,0,0,0,0-1.64,200.75,200.75,0,0,0-32.4-33,4.6,4.6,0,0,1-1.46-5.29,4.55,4.55,0,0,1,4.52-3,43.84,43.84,0,0,1,11.21,2.25,1.45,1.45,0,0,0,1.77-.68,1.44,1.44,0,0,0-.3-1.87c-5.84-5.27-12.27-9.06-17.94-12.4-6.63-3.91-12.35-7.28-14.71-11.74-23.89-45.16-20.44-88.74-13.34-117.35,7.7-31,21.24-51.58,21.37-51.78l.09-.11,14-15.86c-9-2.28-19.47,7.05-19.58,7.15S361.41,175.2,350.33,203c-10.23,25.69-20.23,69.24-9.76,130.79l0,.48a116.34,116.34,0,0,1-1,22.14,200.58,200.58,0,0,0-1.46,40,1.51,1.51,0,0,0,2.92.44,43.51,43.51,0,0,1,5.2-10.16,4.65,4.65,0,0,1,8.4,2.76,200.87,200.87,0,0,0,5.7,45.81,1.21,1.21,0,0,0,1.32,1,1.26,1.26,0,0,0,1.21-1.15A86.46,86.46,0,0,1,366,419a3.92,3.92,0,0,1,7.64.74,199.83,199.83,0,0,0,9.62,42,1.63,1.63,0,0,0,1.83,1.11,1.58,1.58,0,0,0,1.41-1.56c.29-6.6,1.22-12,2.78-15.91a3.51,3.51,0,0,1,6.68.46c4.05,16.37,17.27,58,52.69,91.25.18.17,18.62,17.23,28.42,23.11,6.89,4.14,14.36,3.29,18,2.51l-13-7.79,1-1.72,16.8,10.08-2,.72c-.47.17-11.57,4.09-21.86-2.08-10-6-28-22.66-28.76-23.36-35.81-33.6-49.17-75.7-53.26-92.25a1.49,1.49,0,0,0-1.38-1.15,1.47,1.47,0,0,0-1.5.95c-1.47,3.75-2.37,8.89-2.64,15.27a3.67,3.67,0,0,1-7.13,1,202.49,202.49,0,0,1-9.72-42.4,1.92,1.92,0,0,0-3.74-.37,85.73,85.73,0,0,0-3.1,15.76,3.24,3.24,0,0,1-3.07,2.91,3.2,3.2,0,0,1-3.39-2.49,203.33,203.33,0,0,1-5.75-46.28,2.6,2.6,0,0,0-1.85-2.53,2.55,2.55,0,0,0-2.93.95,41.22,41.22,0,0,0-5,9.69,3.51,3.51,0,0,1-6.78-1,201.44,201.44,0,0,1,1.47-40.38,114,114,0,0,0,1-21.75l0-.31c-10.55-62.05-.42-106,9.93-131.93,11.24-28.19,25.23-41.88,25.37-42,.53-.48,12.61-11.28,23.07-7.1l1.31.53-15.89,18c-.77,1.19-13.66,21.3-21.07,51.18-7,28.25-10.41,71.28,13.18,115.86,2.09,4,7.59,7.19,14,11,5.75,3.39,12.27,7.23,18.26,12.63a3.5,3.5,0,0,1-3.42,5.94A42,42,0,0,0,392.61,366a2.58,2.58,0,0,0-2.57,1.71,2.61,2.61,0,0,0,.84,3,202.72,202.72,0,0,1,32.73,33.31,3.18,3.18,0,0,1-.15,4.2,3.26,3.26,0,0,1-4.2.6A85,85,0,0,0,405,401.48a1.92,1.92,0,0,0-2,3.16,203.87,203.87,0,0,1,27.23,34,3.67,3.67,0,0,1-5.23,5c-5.18-3.75-9.77-6.25-13.63-7.43a1.47,1.47,0,0,0-1.68.58,1.5,1.5,0,0,0,.05,1.8c.52.73,50.63,70.22,139.37,116.56l.87.46-.44.88a20.75,20.75,0,0,1-7.11,7.4A22.71,22.71,0,0,1,530.12,567.23Z"/><path class="cls-3" d="M521.47,553.91c-1.5-.65-4.67-2.09-9.1-4.4l.93-1.77c4.37,2.28,7.49,3.69,9,4.33Zm-17.9-9.28c-2.83-1.66-5.71-3.43-8.57-5.26l1.08-1.68c2.83,1.81,5.69,3.57,8.5,5.21Zm-16.92-10.85c-2.72-1.89-5.46-3.87-8.14-5.88l1.2-1.6c2.67,2,5.38,4,8.08,5.84Zm-16.06-12c-2.59-2.09-5.19-4.26-7.71-6.44l1.31-1.51c2.51,2.16,5.08,4.32,7.65,6.39ZM455.4,508.6c-2.44-2.26-4.89-4.59-7.26-6.93l1.4-1.42c2.36,2.32,4.79,4.64,7.21,6.88Zm-14.29-14.09c-2.29-2.41-4.58-4.89-6.8-7.38l1.5-1.33c2.2,2.47,4.47,4.94,6.75,7.33Zm-13.35-15c-2.13-2.55-4.26-5.17-6.32-7.8l1.57-1.23c2.05,2.61,4.16,5.21,6.28,7.74Zm-12.39-15.78c-2-2.68-3.93-5.43-5.82-8.17l1.64-1.13c1.88,2.72,3.83,5.45,5.79,8.11ZM404,447.25c-1.8-2.78-3.59-5.64-5.32-8.49l1.71-1c1.72,2.84,3.5,5.68,5.29,8.45ZM393.59,430.1c-1.64-2.89-3.26-5.85-4.82-8.79l1.77-.94c1.55,2.93,3.16,5.87,4.79,8.75Zm-9.38-17.72c-1.46-3-2.91-6-4.31-9.05l1.82-.83c1.39,3,2.83,6,4.29,9Zm-8.36-18.22c-1.31-3.06-2.59-6.18-3.81-9.27l1.86-.73c1.22,3.07,2.49,6.17,3.79,9.22Zm-7.37-18.64c-1.14-3.12-2.25-6.3-3.31-9.46l1.9-.63c1.05,3.13,2.16,6.3,3.29,9.41Zm-6.38-19c-1-3.16-1.93-6.4-2.84-9.62l1.93-.54c.9,3.21,1.85,6.42,2.82,9.57Zm-5.44-19.29c-.82-3.2-1.61-6.47-2.37-9.74l1.95-.45c.75,3.25,1.54,6.51,2.36,9.69Zm-4.48-19.54c-.65-3.3-1.25-6.63-1.78-9.88l2-.32c.52,3.23,1.12,6.53,1.76,9.81ZM349,297.89c-.42-3.34-.77-6.7-1.05-10l2-.17c.28,3.27.63,6.6,1.05,9.91Zm-1.72-20c-.15-3.36-.23-6.73-.25-10h2c0,3.28.1,6.63.25,10Zm1.93-20-2-.08c.13-3.36.35-6.73.63-10l2,.18C349.54,251.22,349.33,254.56,349.19,257.89Zm1.73-19.82-2-.27c.45-3.34,1-6.67,1.61-9.92l2,.37C351.91,231.46,351.37,234.76,350.92,238.07Zm3.69-19.54-1.94-.48c.8-3.27,1.69-6.54,2.66-9.69l1.91.58C356.29,212.06,355.4,215.29,354.61,218.53Zm5.82-19-1.88-.7c1.2-3.2,2.49-6.33,3.84-9.31l1.82.82C362.88,193.29,361.61,196.38,360.43,199.53Zm8.21-18.07-1.75-1a69.88,69.88,0,0,1,5.41-8.61l1.58,1.22A70.81,70.81,0,0,0,368.64,181.46Z"/></svg>