<?xml version="1.0" encoding="utf-8"?>
<!-- Generator: Adobe Illustrator 24.0.1, SVG Export Plug-In . SVG Version: 6.00 Build 0)  -->
<svg version="1.1" id="Layer_1" xmlns="http://www.w3.org/2000/svg" xmlns:xlink="http://www.w3.org/1999/xlink" x="0px" y="0px"
	 viewBox="0 0 677 502.2" style="enable-background:new 0 0 677 502.2;" xml:space="preserve">
<style type="text/css">
	.st0{fill:#14142E;}
	.st1{fill:#FF5D47;}
	.st2{fill:#13132D;}
	.st3{fill:#15152E;}
	.st4{fill:#171731;}
	.st5{fill:#25253D;}
	.st6{fill:#545466;}
	.st7{fill:#434258;}
	.st8{fill:#46455A;}
	.st9{fill:#4F4F63;}
	.st10{fill:#1A1A33;}
	.st11{fill:#39394F;}
	.st12{fill:#6F6F7F;}
	.st13{fill:#AFAFB8;}
	.st14{fill:#5F5F70;}
	.st15{fill:#9F9FAA;}
	.st16{fill:#7C7B89;}
	.st17{fill:#4B4B5F;}
	.st18{fill:#FFF7F3;}
	.st19{fill:#FFA396;}
	.st20{fill:#FFCDC5;}
	.st21{fill:#FFDAD6;}
	.st22{fill:#FFCFC8;}
	.st23{fill:#FF5F48;}
	.st24{fill:#A5D6D7;}
	.st25{fill:none;stroke:#FFF7F3;stroke-width:6.4;stroke-linecap:round;stroke-linejoin:round;stroke-miterlimit:10;}
	.st26{fill:none;stroke:#FF5D47;stroke-width:6.4;stroke-linecap:round;stroke-linejoin:round;stroke-miterlimit:10;}
	.st27{fill:#161630;}
	.st28{fill:#202038;}
	.st29{fill:#535367;}
	.st30{fill:#303047;}
	.st31{fill:#1B1B34;}
	.st32{fill:#434358;}
	.st33{fill:#575769;}
	.st34{fill:#505064;}
	.st35{fill:#5B5C6D;}
	.st36{fill:#48485D;}
	.st37{fill:#767684;}
	.st38{fill:#636374;}
	.st39{fill:#2E2E46;}
	.st40{fill:#6E6E7E;}
	.st41{fill:#E5E4E7;}
	.st42{fill:#666576;}
	.st43{fill:#5A5A6C;}
	.st44{fill:#656475;}
	.st45{fill:#424257;}
	.st46{fill:#636373;}
	.st47{fill:#AAAAB3;}
	.st48{fill:#545568;}
	.st49{fill:#59596B;}
	.st50{fill:#656575;}
	.st51{fill:#2C2D44;}
	.st52{fill:#4A4A5F;}
	.st53{fill:#616172;}
	.st54{fill:#37374E;}
	.st55{fill:#4C4D61;}
	.st56{fill:#5C5C6F;}
	.st57{fill:#3B3B51;}
	.st58{fill:#9494A0;}
	.st59{fill:#3B3A50;}
	.st60{fill:#828290;}
	.st61{fill:#4C4C60;}
	.st62{fill:#7D7D8B;}
	.st63{fill:#4B4C60;}
	.st64{fill:#3F3F54;}
	.st65{fill:#717180;}
	.st66{fill:#2D2D44;}
	.st67{fill:#36364C;}
	.st68{fill:#7B7B89;}
	.st69{fill:#7B7B88;}
	.st70{fill:#2E2F46;}
	.st71{fill:#737381;}
	.st72{fill:#A6A5AF;}
	.st73{fill:#47485C;}
	.st74{fill:#45455A;}
	.st75{fill:#5E5E6E;}
	.st76{fill:#4A4B5F;}
	.st77{fill:#37374D;}
	.st78{fill:#2A2B42;}
	.st79{fill:#616071;}
	.st80{fill:#2C2C44;}
	.st81{fill:#2F3047;}
	.st82{fill:#404055;}
	.st83{fill:#2E2E45;}
	.st84{fill:#2E2D45;}
	.st85{fill:#404056;}
	.st86{fill:#48495D;}
	.st87{fill:none;stroke:#FF5D47;stroke-width:9.7348;stroke-linecap:round;stroke-linejoin:round;stroke-miterlimit:10;}
	.st88{clip-path:url(#SVGID_2_);}
	.st89{fill:#FEFEFE;}
	.st90{fill:#C30034;}
	.st91{fill:#C71041;}
	.st92{fill:#D65375;}
	.st93{fill:#D96081;}
	.st94{fill:#D75779;}
	.st95{fill:#3E7300;}
	.st96{fill:#437607;}
	.st97{fill:#45780A;}
	.st98{fill:#46790B;}
	.st99{fill:#46780B;}
	.st100{fill:#437606;}
	.st101{fill:#447708;}
	.st102{fill:#417504;}
	.st103{fill:#447709;}
	.st104{fill:#427505;}
	.st105{fill:#F9FAF8;}
	.st106{fill:#407403;}
	.st107{fill:#427606;}
	.st108{fill:#457809;}
	.st109{fill:#457709;}
	.st110{fill:#4B7C12;}
	.st111{fill:#4A7B10;}
	.st112{fill:#487A0D;}
	.st113{fill:#487A0E;}
	.st114{fill:#497B0F;}
	.st115{fill:#47790C;}
	.st116{fill:#508019;}
	.st117{fill:#4E7E16;}
	.st118{fill:#4C7D12;}
	.st119{fill:#4F7F16;}
	.st120{fill:#568420;}
	.st121{fill:#55841F;}
	.st122{fill:#52811A;}
	.st123{fill:#618D2F;}
	.st124{fill:#F9FBF8;}
	.st125{fill:#5C8827;}
	.st126{fill:#638D31;}
	.st127{fill:#B2C79A;}
	.st128{fill:#EFF3EA;}
	.st129{fill:#3F7402;}
	.st130{fill:#3F7301;}
	.st131{fill:#EEF3E9;}
	.st132{fill:#52811B;}
	.st133{fill:#F2F5EE;}
	.st134{fill:#E2E9D8;}
	.st135{fill:#4D7D14;}
	.st136{fill:#5B8827;}
	.st137{fill:#5F8B2C;}
	.st138{fill:#5C8828;}
	.st139{fill:#D8E2CC;}
	.st140{fill:#5A8726;}
	.st141{fill:#4D7E15;}
	.st142{fill:#4B7C11;}
	.st143{fill:#54831E;}
	.st144{fill:#4D7E14;}
	.st145{fill:#588522;}
	.st146{fill:#F5F8F2;}
	.st147{fill:#5C8929;}
	.st148{fill:#5A8725;}
	.st149{fill:#417404;}
	.st150{fill:#5D892A;}
	.st151{fill:#53821C;}
	.st152{fill:#5E8A2A;}
	.st153{fill:#6B933B;}
	.st154{fill:#658F34;}
	.st155{fill:#578522;}
	.st156{fill:#5E8A2B;}
	.st157{fill:#598624;}
	.st158{fill:#608C2D;}
	.st159{fill:#F5F7F2;}
	.st160{fill:#6D943D;}
	.st161{fill:#4A7C10;}
	.st162{fill:#6A933A;}
	.st163{fill:#588623;}
	.st164{fill:#6A923A;}
	.st165{fill:#709742;}
	.st166{fill:#578421;}
	.st167{fill:#719844;}
	.st168{fill:#DC6B89;}
	.st169{fill:#5A8625;}
	.st170{fill:#6E953F;}
	.st171{fill:#638E31;}
	.st172{fill:#52821B;}
	.st173{fill:#3E7301;}
	.st174{fill:#6C943D;}
	.st175{fill:#DAE4CF;}
	.st176{fill:#508018;}
	.st177{fill:#B1C697;}
	.st178{fill:#F8FAF6;}
	.st179{fill:#FAFBF9;}
	.st180{fill:#E9EFE2;}
	.st181{fill:#ECF1E6;}
	.st182{fill:#427605;}
	.st183{fill:#F5F8F3;}
	.st184{fill:#FCFCFB;}
	.st185{fill:#6B943C;}
	.st186{fill:#E8EEE2;}
	.st187{fill:#EAF0E4;}
	.st188{fill:#E0E8D6;}
	.st189{fill:#F1F5ED;}
</style>
<path class="st0" d="M429.1,319.9c-2.6,3.3-6.7,3.3-9.1,0c-1.6-2.2-2.5-4.6-2.8-7.3c-0.3-3.7-0.1-7.5,0.5-11.2
	c0.7-4.5,1.4-9.1,2.3-13.6c1-4.6,2.3-9.1,3.4-13.6c0.6-2.2,1.1-4.3,1.7-6.5c0.2-0.6,0.3-1.3,0.5-1.9c0.4-1.1,1.2-1.4,2.2-1.2
	c1,0.2,1.3,1.1,1.3,1.9c0,0.8-0.4,1.6-0.5,2.5c-0.4,4.1-1.2,8.1-1.9,12.2c-0.5,3.4-1.3,6.8-2.1,10.2c-1.3,5.3-2.5,10.6-3.2,16
	c-0.3,2.2-0.2,4.5,0.5,6.7c1,3,2.8,5,6.1,5.4C428.4,319.5,428.6,319.7,429.1,319.9z"/>
<g>
	<path class="st2" d="M301.9,296.1c-0.1,2.6-0.2,5.2-0.3,7.9c-0.1,4.7,0.8,9.3,1.1,14c0.4,6.2,0.9,12.4,1.7,18.5
		c1.6,11.7,4.1,23.4,7.2,34.8c2.8,10.1,6.1,19.9,10.3,29.4c10.7,24.5,26.3,45.2,48.8,60.1c12,8,25.2,13,39.5,14.7
		c19.9,2.4,38.6-1.8,56.2-11.3c22-11.9,38.7-29.4,52.5-49.9c12.3-18.4,21.1-38.5,27.6-59.6c2.4-7.8,4.3-15.7,5.9-23.6
		c0.8-4,1.5-8,2.1-12.1c1.9-12.3,3.5-24.7,3.9-37.1c0.2-6.7-0.1-13.4-0.5-20.1c-0.5-7.3-1-14.6-2.1-21.8c-0.9-5.9-2-11.8-3.3-17.7
		c-1-4.4-2.1-8.7-3.2-13.1c-1.8-6.4-3.8-12.7-6.2-18.9c-3.3-8.7-7.2-17.2-12-25.3c-2.5-4.3-5.2-8.4-7.9-12.5
		c-0.8-1.2-1.7-1.8-3.2-1.8c-14.5,0.2-28.9,0.3-43.4,0.4c-0.8,0-1.7,0.1-2.5,0.1c-11.9-0.4-23.8-0.5-35.7-1.3
		c-12.2-0.8-24.3-1.5-36.5-2.5c-8.7-0.7-17.4-1.4-25.8-4c-3.7-1.1-7.3-2.4-10.7-4.2c-3.3-1.7-4.9-4.7-6.1-8
		c-0.4-1.2-0.2-2.4,0.7-3.4c1.3-1.7,2.1-1.7,3.4,0c1.6,2,3.7,3.5,6.1,4.3c5.9,1.9,11.6,4.2,17.8,5c2.1,0.3,4.3,0.4,6.4,0.6
		c10.8,1.3,21.6,2.2,32.5,3.3c6.3,0.6,12.5,1,18.8,1.9c0.7,0.1,1.5,0.2,2.2,0.2c16.5,0.4,33,0.9,49.5,0.3c10-0.4,20.1-0.2,30.1-0.2
		c4.4,0,8.6,1,12.7,2c5.5,1.3,10.8,2.9,16.1,5c4.5,1.7,8.1,4.6,11.7,7.5c4.6,3.8,7.1,9,9.3,14.4c1.9,4.6,2.8,9.5,3.5,14.4
		c0,1.9,1.2,4-0.6,5.7c-1.2-3.9-2.2-7.9-3.6-11.8c-2.4-6.8-7.1-11.6-12.5-16.2c-6.1-5.2-13.5-7.5-21-9.6c-3.2-0.9-6.5-1.7-9.8-2.5
		c-0.5-0.1-1.1-0.4-1.6-0.4c-1,0-1.4,0.7-0.9,1.5c0.9,1.3,1.9,2.5,3.1,3.6c8.2,7.9,14.4,17.4,21.2,26.4c0.2,0.2,0.2,0.5,0.2,0.8
		c-0.7,0.6-1-0.1-1.4-0.3c-2.2-1.9-3.8-4.4-5.6-6.6c-2.4-3-4.8-6-7.8-8.4c-0.2-0.2-0.4-0.4-0.6-0.5l0,0c-0.7-0.3-0.7,0.1-0.6,0.6
		c0,0.2,0.1,0.3,0.2,0.4c0.3,0.3,0.1,0.9,0.5,1.1c4.4,9,8.2,18.2,11.3,27.7c3.1,9.3,5.6,18.6,7.5,28.2c1.6,8.2,2.7,16.4,3.6,24.8
		c1,10.2,1.3,20.4,1.2,30.6c0,1-0.3,2,0.3,3.3c1.3-1.7,2.5-3.3,3.8-4.8c3.1-3.6,6.7-6.4,11.3-7.9c5.5-1.7,10.9,0.4,14.1,5.1
		c2.5,3.7,3.2,7.6,2.8,11.8c-1.2,11.8-5.2,22.5-13.6,31.3c-3.4,3.6-7.7,5.9-12.1,8c-2.6,1.2-5.2,2.5-8.2,2.8c-1.2,0.1-2.4,0-3.7-0.1
		c-0.7,2.5-1.1,5-1.7,7.5c-1.5,6.6-3.4,13-5.3,19.5c-2.1,6.8-4.5,13.5-7.1,20.1c-4.3,11-9.6,21.5-15.6,31.6
		c-7.5,12.5-16.2,24-26.3,34.4C491,454.7,479,464,465.2,470.7c-8.3,4.1-17,7.2-26.2,8.9c-10.8,2.1-21.7,2.2-32.5,0.7
		c-9.3-1.3-18.2-4.3-26.7-8.4c-18.3-8.9-32.8-22.2-44.8-38.4c-3.7-5-7-10.3-10.2-15.7c-4.2-7.2-8-14.8-11.5-22.4
		c-1.7-3.8-2.9-7.9-4.4-11.8c-1.1-3-2.3-5.9-3.5-8.9c-1.7-4.3-2.6-8.8-3.7-13.2c-1.6-6.4-2.7-12.8-3.7-19.3
		c-0.9-5.7-1.6-11.5-2-17.3c-0.3-3.8-0.5-7.7-0.8-11.4c-1.2-0.5-2.2,0.3-3.2,0.3c-2.1,0-4.1-0.5-5.6-2.1c-3.7-4.2-6.6-8.9-8.3-14.2
		c-1.5-4.5-1.7-9.2-1.6-13.9c0-4.5,0.5-9,1.5-13.4c0.5-2.2,1.3-4.2,2.4-6.2c2.9-5.2,7.8-5.1,12.4-3.2c1.7,0.7,2.9,2.3,4.7,3.4
		c2.7-18.9,7.1-37,13.7-55.2c-3.2,1.8-6.3,2.5-9.2,3.8c-0.4,0.2-0.9,0.2-1.3,0.4c-0.5,0.2-0.9,0.2-1.2-0.3c-0.3-0.4,0-0.7,0.2-1
		c1.3-3,3.5-5.3,6-7.3c3.3-2.7,6.9-5.2,10.1-8c4.6-4,8.2-8.9,11.8-13.8c3.1-4.3,6.6-8.3,9.4-12.9c4.6-7.5,8.7-15.3,11.5-23.6
		c1.1-3.2,1.7-6.5,1.7-9.9c0-4.1,0-8.3,0-12.4c0-1.3-0.1-2.9,1.6-3.1c1.7-0.3,2.3,1.3,2.7,2.4c1.8,5.2,2.4,10.6,1.8,16.1
		c-0.8,6.6-3.4,12.6-6.3,18.5c-3.1,6.5-6.5,12.9-10.7,18.7c-5.7,7.9-10.9,16.1-17.3,23.4c-1.8,2.1-2.5,4.8-3.4,7.3
		c-3.1,7.9-5.8,16-8,24.2c-2,7.5-3.7,15.1-5,22.8c-0.9,5.6-1.9,11.3-2.5,17c-0.6,5.3-1.8,9.9-1.4,15.3
		C302.1,289.7,302.1,292.9,301.9,296.1z"/>
	<path class="st2" d="M594.6,239.8c3-5.6,6.1-11.2,9-16.8c2.8-5.4,4.9-11.1,6.6-17c1.9-6.5,3.5-13,4.9-19.6
		c1.7-8.3,2.5-16.7,1.6-25.2c-0.5-4-1.5-7.9-2.6-11.8c-1.5-5.4-3.1-10.8-5.2-16c-3.9-9.7-8.1-19.3-14.4-27.8
		c-3.3-4.5-6.1-9.4-9.7-13.8c-7.3-9-15.9-16.5-25.2-23.4c-6.9-5.2-13.9-10.4-21.7-14.3C531,50.7,524.3,46.8,517,44
		c-3.1-1.2-6.4-2.2-9.6-3c-5.1-1.2-10.2-2.5-15.4-3.4c-9.7-1.6-19.5-1.4-29.2-0.7c-7.7,0.5-15.3,1.2-22.9,2.6
		c-6.5,1.2-13,2.6-19.4,4.7c-5,1.7-10,3.1-14.9,4.9c-8.8,3.3-17.9,6.2-25.9,11.2c-7.1,4.5-13,10.2-18.2,16.8
		c-3.8,4.9-7.2,10-10,15.5c-0.7,1.5-1,3-1.4,4.5c-0.3,0.9-0.5,2.2-1.8,2.3c-1.2,0.1-1.9-0.9-2.4-2c-0.9-1.9-0.8-3.8-0.3-5.7
		c1.2-4.9,3.5-9.2,6.3-13.4c6.4-9.7,14.4-17.9,24.2-24.1c6-3.8,12.2-7.2,18.9-9.7c6.5-2.4,12.8-5.2,19.4-7.4
		c7.4-2.5,15-4.8,22.7-6.2c12.4-2.3,24.9-3.3,37.5-3.4c8.9-0.1,17.8,0.8,26.5,3.2c3.7,1,7.5,1.8,11.2,2.8c6.3,1.7,12.1,4.3,17.9,7.3
		c5.8,3,11.7,5.9,17.4,9c7.2,3.9,13.6,8.9,20.1,13.7c10.2,7.4,19,16.1,26.8,26c3.8,4.9,6.7,10.3,10.1,15.5
		c4.8,7.4,7.9,15.7,11.1,23.8c3,7.7,5,15.7,6.4,23.8c1.5,8.5,2.2,17.1,1.1,25.8c-1.2,9.5-3.4,18.8-6.5,27.8
		c-3.3,9.5-7.2,18.8-13.6,26.9c-2.3,2.9-4.8,5.5-7.7,7.7C594.7,240.8,594.5,240.5,594.6,239.8z"/>
	<path class="st2" d="M270.8,245.2c-3.1-4.2-5.2-8.8-7.3-13.5c-2.3-5.1-4.8-10.1-6.5-15.5c-1.5-4.7-2.4-9.4-3.5-14.1
		c-1.9-8.2-1.6-16.6-1.1-24.9c0.5-7.5,2.1-14.8,4.6-21.9c3.5-10.2,8.7-19.4,15.4-27.8c6-7.5,13.6-13.3,21.7-18.4
		c4.3-2.7,8.8-5,13.6-6.6c2.4-0.8,4.9-1.4,7.4-1.6c1-0.1,1.5-0.3,1.6-1.4c0.2-3.5,1.6-6.7,2.7-10c1.1-3.5,1.9-7,3.3-10.4
		c2.4-6,5.5-11.5,9.5-16.7c3.3-4.3,7.3-7.7,11-11.5c0.8-0.8,1.8-2.3,3-1.3c0.9,0.8-0.4,2-1,2.9c-4.3,6.5-8.6,13.1-11.7,20.3
		c-2.1,5-3.6,10.2-3.6,15.8c0.1,5.4,0,10.9,0.5,16.3c0.2,2.9-1.1,4.6-4,4.9c-3.8,0.4-7.5,1.6-11.4,1.9c-1.4,0.1-2.4,0.9-3.6,1.4
		c-11.6,4.8-22,11.4-30.6,20.7C273,142,267,151.3,263.4,162c-1.7,4.9-2.9,9.9-3.3,15.1c-0.4,4.9-1.1,9.7-1.2,14.6
		c-0.1,4.6-0.1,9.2,0.8,13.7c0.6,3.2,0.8,6.5,1.6,9.7c1.3,5.6,3.3,10.9,5.3,16.2c1.7,4.4,3.8,8.5,5.1,13
		C271.7,245,271.4,245.3,270.8,245.2z"/>
	<path class="st2" d="M508.2,97.5c-2.5,0-4.4-1.3-6.3-2.3c-3.8-2-7.4-4.4-11.2-6.4c-5.9-3.2-12.1-5.9-18.5-7.9
		c-4.1-1.3-8.2-2.6-12.4-3.6c-3.4-0.8-6.8-1.4-10.3-1.6c-7.7-0.5-15.4-0.8-23.1-0.2c-6.3,0.6-12.4,1.9-18.5,3.5
		c-6.9,1.8-13.6,4.3-19.9,7.5c-10.1,5-19.8,10.6-27.6,18.9c-2,2.2-4.2,4.2-6.7,6c-0.7,0.5-1.5,1.8-2.7,0.8c-1-0.8-0.9-2-0.6-3.1
		c1-3.1,2.3-6.1,4.3-8.7c4.7-6.3,10.9-11,17.7-14.9c6.9-4,13.8-7.8,21.3-10.6c7.3-2.7,14.6-5.1,22.3-6.7c11.3-2.3,22.7-3.1,34.1-2.1
		c7.3,0.6,14.4,2.2,21.3,4.7c6.3,2.2,12.3,4.9,17.8,8.8c6.2,4.5,12.2,9.2,17.1,15.2C507.1,95.5,507.9,96.2,508.2,97.5z"/>
	<path class="st2" d="M399.2,222.3c-0.1,4-0.9,7.6-3.4,10.4c-3.9,4.4-6,3.5-8.9-0.5c-3.1-4.3-2.7-11.7,0.5-15.9
		c0.1-0.1,0.1-0.2,0.2-0.2c1.8-1.9,3.7-3.7,6.5-2.9c2.8,0.8,4.2,3,4.8,5.7C399.1,220.2,399.2,221.4,399.2,222.3z"/>
	<path class="st2" d="M475.4,211.9c4.9-1,8,0.7,8.9,5.5c1.2,5.9-0.2,11.3-4.7,15.6c-1.4,1.4-3,1.7-4.8-0.2c-3.9-4.2-4.7-9.2-4-14.6
		c0.1-0.8,0.4-1.6,0.6-2.5c0.4-0.6,0.7-1.2,1.1-1.7c0.4-0.4,0.6-0.9,1.1-1.1C474.2,212.6,474.8,212.2,475.4,211.9z"/>
	<path class="st0" d="M283.8,181.3c-0.3-2.2,0.8-4.2,1.4-6.3c1.3-4.9,2.8-9.7,5.3-14.1c5.1-9.2,11.9-16.9,20.1-23.4
		c3.3-2.6,6.9-4.8,11-5.9c1.4-0.4,2.8-0.6,4.1,0c1.3,0.6,1.4,1.4,0.3,2.3c-1.7,1.5-3.9,2.3-5.8,3.4c-11.6,6.8-21.6,15.3-28.5,27.1
		c-2.2,3.7-3.7,7.7-5,11.8c-0.8,2.5-1.5,5-2.2,7.5C282.9,183.3,283.7,182.2,283.8,181.3z"/>
	<path class="st3" d="M365.3,211.5c-1-1.8,0-2.9,0.2-4.2c0.6-5.1,2.2-10,4.5-14.6c2.3-4.4,5.1-8.5,9.5-11.2c2.3-1.4,4.9-1.8,7.5-0.7
		c0.4,0.2,0.9,0.4,0.9,0.9c0,0.5-0.4,0.8-0.8,1c-0.3,0.1-0.6,0.4-1,0.5c-4.2,0.9-6.8,4.1-9.3,7.2c-4.1,5.2-7,11.2-9.7,17.2
		C366.7,208.8,366.1,209.9,365.3,211.5z"/>
	<path class="st4" d="M506.4,208.4c-1.7-5.8-3.7-11.5-7.5-16.4c-1.2-1.6-2.4-3.1-3.8-4.4c-1.6-1.6-3.3-3-5.6-3.4
		c-0.8-0.1-1.7-0.5-1.5-1.6c0.2-1,0.9-1.6,1.9-1.7c2.4-0.3,4.3,0.9,6.1,2.4c3.1,2.7,5.2,6.1,6.9,9.8c1.9,4.1,3.3,8.5,4.1,13
		C507,206.9,507.8,207.9,506.4,208.4z"/>
	<path class="st5" d="M283.8,181.3c0.2,0.8-0.2,1.8,0.7,2.4c-0.8,5.3-2.2,10.5-2.5,15.9c0,0.2-0.2,0.3-0.3,0.4c-1.1,0-1-0.6-0.7-1.3
		C281.3,192.8,282.2,187,283.8,181.3z"/>
	<path class="st6" d="M280.9,206.7c0.1,2.1,0.1,2.1-0.7,3.6c-0.6-2.3-0.5-4.9,0.1-7C281.2,204.3,280.4,205.7,280.9,206.7z"/>
	<path class="st7" d="M579.5,192.1c1.2-1.8,0.3-3.8,0.6-5.7c1.2,2.6,0.5,5.1,0.1,7.9C579.4,193.5,579.4,192.8,579.5,192.1z"/>
	<path class="st8" d="M270.8,245.2c0.3-0.3,0.5-0.5,0.8-0.8c1.1,0.9,1.3,2.1,1.6,3.6C271.5,247.6,271.2,246.2,270.8,245.2z"/>
	<path class="st9" d="M281,198.8c0.2,0.5,0.1,1.1,0.7,1.3c-0.2,0.9,0.2,2-0.5,2.8c-0.2,0.3-0.5,0.3-0.7,0
		C280.4,201.5,280.3,200.1,281,198.8z"/>
	<path class="st10" d="M506.4,208.4c0.7-0.7,0.4-1.6,0.5-2.4c0.7,1.3,0.6,2.7,0.6,4.1c-0.1,0.1-0.2,0.1-0.3,0.2
		c-0.1-0.1-0.2-0.1-0.3-0.2C506.3,209.7,506.4,209.1,506.4,208.4z"/>
	<path class="st11" d="M280.5,202.8c0.2,0,0.5,0,0.7,0c0,1.3,0.1,2.6-0.2,3.9c-0.9-1-0.3-2.3-0.5-3.5
		C280.4,203.1,280.4,203,280.5,202.8z"/>
	<path class="st12" d="M507.5,210.2c0.6,0.7,0.6,1.5,0.5,2.6c-0.8-0.3-0.9-0.9-1-1.5c0.2-0.3,0.2-0.8,0.3-1.2l0.1,0L507.5,210.2z"/>
	<path class="st13" d="M538.9,168.6c-0.1,0-0.2,0-0.3-0.1c-0.4-0.4-0.9-1-0.5-1.4c0.7-0.5,1.1,0.2,1.3,0.9
		C539.3,168.2,539.1,168.4,538.9,168.6z"/>
	<path class="st14" d="M594.6,239.8c0.2,0.4,0.4,0.6,0.8,0.8c-0.3,0.5-0.7,1-1.3,0.5C593.7,240.6,593.9,240.1,594.6,239.8z"/>
	<path class="st15" d="M472.5,214.1c0,0.8-0.5,1.3-1.1,1.7C471.3,214.9,471.7,214.4,472.5,214.1z"/>
	<path class="st16" d="M475.4,211.9c-0.3,0.7-0.9,1.1-1.7,1C474,212.3,474.5,211.8,475.4,211.9z"/>
	<path class="st17" d="M507.3,210.1c0.1,0.4,0.1,0.8-0.3,1.2c0-0.4-0.1-0.7-0.1-1.1C507,210.1,507.1,210.1,507.3,210.1z"/>
	<path class="st13" d="M539.5,170.2c-0.4-0.3-0.6-0.6-0.5-1.1C539.5,169.3,539.7,169.6,539.5,170.2z"/>
	<path class="st13" d="M539.5,168c0.3,0,0.5,0.2,0.6,0.5C539.7,168.5,539.5,168.4,539.5,168z"/>
	<path class="st1" d="M557,303.1c0.1-0.4-0.1-0.9,0.3-1.2"/>
	<path class="st18" d="M559.2,323.8c0.5-3.2,0.9-6.1,1.4-9c0.7-4,1.4-7.9,2.2-11.9c1.8-9.6,6.8-17.2,14.9-22.7
		c1.3-0.9,2.7-1.2,4.2-1.4c2.9-0.3,5.5,2,6.1,5.4c1.1,6.3,0.5,12.5-2.1,18.4c-0.9,2.1-1.7,4.1-2.9,6.1c-2.9,4.9-7.3,8.2-12.2,10.8
		c-2.9,1.5-5.8,3.1-9,3.8C561.1,323.4,560.3,323.6,559.2,323.8z"/>
	<path class="st18" d="M295.1,293.4c0,4,0,8.1,0,12.1c0,1.4,0.3,2.8-1.6,3.4c-1.8,0.7-3.3,0.5-4.6-0.8c-1.4-1.4-2.5-3-3.5-4.7
		c-1.8-3.1-3-6.4-3.3-10c-0.2-1.7-0.6-3.3-0.8-5c-0.7-6.6,0.3-13.1,2.5-19.3c0.2-0.5,0.4-1.1,0.7-1.5c1-1.6,1.3-1.7,3.2-1.1
		c4.8,1.4,6.3,5.1,6.9,9.5C295.4,281.8,295.2,287.6,295.1,293.4z"/>
</g>
<path class="st23" d="M34.4,156.6c-4.1-17.4-8.1-34.7-12-50.8c-0.5-1.5,0.4-3.2,2-3.7c1.5-0.4,3.2,0.5,3.7,2
	c4.6,15.8,9.8,32.9,15,50.1c9.9,32.5,19.8,65.2,28.6,97.8c12.8,2.2,28.6,8.1,45.4,14.4c4.1,1.5,8.3,3.1,12.5,4.6
	c17.3-7.3,33.9-15.3,46.2-21.3c10.7-5.2,18.2-8.8,20.6-9.2c1.7-0.2,3.1,0.9,3.4,2.5c0.2,1.7-0.9,3.1-2.5,3.4
	c-1.5,0.2-8.6,3.7-18.9,8.6c-11,5.3-25.4,12.2-40.7,18.9c33.9,11.8,67.9,19.5,82.9-4.4c0.8-1.4,2.7-1.8,4-0.9
	c1.4,0.9,1.8,2.7,0.9,4.1c-18.3,29-57.9,18.4-95.9,4.7c-25.3,10.5-51.9,19.2-69.2,17.7c-13.5-1.1-21.7-8-20.3-24
	c1.1-12.8,7.5-18.5,17.3-19.8C49.2,220.1,41.8,188.3,34.4,156.6L34.4,156.6z M73.2,258.3c0.8,3.3,1.5,6.2,1.7,8.6
	c0.3,4.1-0.8,7-4.3,7.9c-3.6,1-6-1.1-7.8-5.1c-1.2-2.8-2.3-6.7-3.4-10.9l0,0l0,0l0,0v-0.1l-0.4-1.5l0,0l0,0v-0.1
	c-7.5,0.9-12.2,5-13,14.4c-1.1,11.7,5,16.7,14.9,17.6c14.9,1.2,37.8-5.8,60.5-14.9c-2.2-0.8-4.4-1.6-6.5-2.4
	C99.6,266.2,85.1,260.8,73.2,258.3L73.2,258.3z M63.5,251.2c0.5,0,1.1,0,1.7,0.1c-4.4-16.3-9.2-32.8-14-49.2
	C55.2,218.5,59.2,234.9,63.5,251.2L63.5,251.2z M66.8,257.3c-0.4-0.1-0.8-0.1-1.2-0.1l-0.5-0.1v0.1l0.1,0.1v0.1l0,0
	c1.1,4,2,7.6,3.1,9.9c0.5,1.2,0.9,1.9,0.9,1.9c0.1,0-0.1-0.7-0.1-1.8c-0.2-2.4-1-5.7-2-9.3l0,0L66.8,257.3z"/>
<path class="st26" d="M212.3,282c12.3-9.1,16.1-18.9,16.8-20c12.3-20.5,15-20.9,23.7-25.5c4.4-2.3,15.3-3,20.6-2
	c15.5,2.9,23.7,19.5,29.6,34.1l41.8,90.9"/>
<path class="st23" d="M302.4,274.6c0-0.4-0.2-0.7-0.2-1c0.1,0.2,0.1,0.3,0.1,0.5c0,0.5,0,0.9,0.1,1.4c1.3,3.4,2.9,6.7,4.1,10.2
	c4.8,13.9,11.1,27.3,17,40.8c2.5,5.8,5.6,11.3,8.4,16.8c12.6,24.6,24.8,49.4,43.9,69.7c6.4,6.8,28.2,32.3,38.7,29.6
	c46-11.9,73-46,92.7-87.8c4.1-8.7,10.5-16.2,15.8-24.3c0.3-0.4,0.5-0.8,0.8-1.2c1-1.6,2-3.1,3-4.7c1-1.6,2-3.1,3-4.7
	c1-1.6,2-3.1,3-4.7s2-3.2,3-4.7c1-1.6,2-3.2,3-4.7c1-1.6,2-3.1,3-4.7c1-1.6,2-3.1,3-4.7c1-1.6,2-3.1,3.1-4.7c1-1.6,2.1-3.1,3.1-4.6
	c1-1.5,2.1-3.1,3.2-4.6c0.5-0.7,1.1-1.5,1.6-2.2c0.2-0.4,0.5-0.8,0.8-1.2c0.6-0.8,1.6-1.6,1.6-2.6c0,0,0-1.4,0-3
	c0-1.7-0.2-4.7-0.2-4.7c-1.7,1.6-2.7,3.3-3.3,4.1c-2.7,3-4.5,5.2-6.7,8.5c-6.8,9.9-13.4,19.9-19.2,30.3
	c-5.9,10.5-13.5,19.8-19.4,30.2c-0.2,0.4-0.4,0.8-0.6,1.3c-0.1,0.2-0.2,0.3-0.3,0.5c0.4,0.1-0.1-0.2-0.1,0.1c0,0.4-0.2,0.2,0-0.2
	c0.1-0.2,0.3-0.4,0.4-0.6c0.1-0.4,0.2-0.7,0.3-1.1c0.1-0.7,0.3-1.3,0.5-2c1.8-6.6,3.1-13.3,3-20.2c-0.1-5.5,0-11.1,0-16.6
	c0-2,0.8-3.3,2.4-4.4c5.9-4.3,11.9-8.6,17.6-13.2c1.4-1.1,2.8-2.3,4.1-3.4c1.4-1.2,2.7-2.4,4-3.6c1.3-1.2,2.7-2.4,4-3.6
	c1.3-1.2,2.7-2.4,4-3.6c1.3-1.2,2.7-2.4,4.1-3.5c1.4-1.2,2.8-2.3,4.2-3.4c0.4-0.3,0.7-0.6,1-0.9l-0.4-5.7c-8,6.6-17,12.2-24.5,19.4
	c-6.9,6.6-14.9,11.9-22.3,18c-1.6,1.3-1.6,1.2-3.3-0.4c-7.4-7.1-16.2-9.5-26.1-7.4c-3,0.6-5.9,1.6-8.9,2.5c-7.3,2-14,5.3-20.3,9.3
	c-7.3,4.7-14.4,9.8-21.1,15.3c-3.5,2.8-6.8,5.9-10,9.1c-0.9,0.9-1.6,1-2.5,0.1c-2-1.9-4.4-3.5-6.6-5.2c-9-6.8-18.1-13.2-28.2-18.2
	c-4.8-2.4-9.9-4-15.3-4.3c-6.1-0.3-11.6,1.5-16.8,4.6c-1.7,1-1.6,1.1-2.9-0.4c-1.6-1.9-3.2-3.9-4.9-5.8c-3.8-4.5-7.2-9.4-11.1-13.7
	c-6.6-7.3-13-14.7-18.9-22.6c-1.8-2.5-5.1-6.9-7.1-9.2l-1,6c5.6,9,10.8,15.9,17.7,23.9c7.1,8.1,13.1,17.1,20.4,25
	c1,1,1.5,2.2,0.5,3.5c-2.5,3.3-3.4,7.2-4.8,11c-3.5,9.2-2.4,18.4,0,27.6c0.4,0.7,0.6,1.5,0.8,2.2c0.3,0.4,0.3,1,0.5,1.4
	c-0.3-0.2-0.2-0.6-0.4-0.9c-0.3-0.5-0.4-1-0.5-1.5c-5.6-11.6-11.6-22.9-16.8-34.7c-6.1-14.1-11.7-28.4-18.3-42.3
	c-0.8-1.6-1.1-3.4-1.7-5.1c-0.3-0.7-0.6-2-1.8-0.8"/>
<path class="st23" d="M305.8,254.5l1-3c2,2.3,5.3,3.7,7.1,6.2"/>
<path class="st1" d="M425.4,345.6c0.7-0.9,1.4-0.7,2.1-0.7c3.6,0.3,5.8-1.5,6.1-5.2c0.1-0.8,0.2-1.5,0.8-2c1.6-1.5,3-3.4,5-4.5
	c2.3-1.2,3.7-3.4,5.9-4.8c5.6-3.5,10.4-8.2,16-11.8c2.6-1.7,5.3-3.4,8.2-4.6c3.3-1.4,6.5-3.2,9.6-5.1c1.6-0.9,3.2-1.5,5-1.4
	c1.7,0,3.4,0,5.1,0c2.3,0.1,2.9,0.8,3,3.1c0.3,4.6-0.8,8.9-2,13.2c-1.7,5.8-3.8,11.6-6.4,17c-2.4,4.8-4.2,9.9-6.9,14.6
	c-2,3.3-4.2,6.6-5.8,10.2c-0.5,1.3-1.7,2-2.4,3.1c-3,4.3-5.7,8.8-8.9,12.9c-4.1,5.1-8.4,10-13.7,13.9c-2.2,1.6-4.7,3.1-6.6,5.2
	c-0.2,0.2-0.4,0.5-0.6,0.5c-4.1,1.6-7.3,4.9-11.3,6.6c-3.7,1.6-7,3.9-10.5,5.8c-0.7,0.3-1.3,0.8-1.9,1.2c-1.6,1.2-3.2,1.6-5.1,0.5
	c-1.9-1.1-4.2-1.7-6.1-2.9c-2.5-1.6-4.9-3.5-7.2-5.4c-2.5-2.1-4.7-4.5-7.1-6.7c-2.3-2.1-4.6-4.3-6.8-6.6c-3.1-3.2-6.1-6.5-9.2-9.7
	c-0.2-0.2-0.4-0.4-0.6-0.6c-4.5-3.3-8.3-7.5-11.8-11.8c-0.9-1.1-2-1.9-2.7-3.2c-0.6-1-1.5-1.6-2.6-2.1c-1.6-0.8-2.6-1.8-2.9-3.8
	c-0.3-1.9-1.4-3.6-2-5.5c-0.2-0.6-1-1.4-0.2-2c0.7-0.5,1.4,0.2,2.1,0.5c0.7,0.4,1.4,0.9,2.2,1.3c0.7,0.3,1.5,0.3,2.1-0.3
	c0.6-0.6,0.2-1.3-0.1-1.8c-1.2-2.2-0.9-4.7-2-6.9c-0.3-0.6-0.2-1.5-0.2-2.2c0-4.8,0-9.6,0-14.4c0-0.7,0.1-1.3,0.1-2
	c0.3-4.4,3.8-5.8,7-7c2.2-0.8,4.7-0.9,7.1-1.2c3.5-0.5,6.4,1.2,9.1,3c3.6,2.3,7.1,4.7,11.1,6.4c5,2.2,9.8,4.6,13.4,9
	c0.8,1,2.6,1.5,2.6,2.8c0,1.3-1.7,1.8-2.6,2.7c-2,2-3.6,4-3.4,7.1c0.2,3.2,3.2,6.8,6.4,7.3c0.7,0.1,1.5,0.1,2.2-0.3
	c0.8-0.4,1.8-0.6,2.6-1.1c1.5-1,2.5-0.5,3.7,0.5c1.8,1.5,1.9,1.4,1.3,3.6c-0.8,2.6-0.1,5.2,0.3,7.8c0,0.3,0.3,0.5,0.6,0.5
	c0.4,0,0.7-0.3,0.8-0.6c0.4-2,1.6-3.5,2.3-5.3c0.5-1.1,1-1.7,2.2-1.7c3.1,0,5-1.6,5.8-4.7C428.5,352.1,428.5,348.5,425.4,345.6z"/>
</svg>
