<?xml version="1.0" encoding="utf-8"?>
<!-- Generator: Adobe Illustrator 24.0.1, SVG Export Plug-In . SVG Version: 6.00 Build 0)  -->
<svg version="1.1" id="Layer_1" xmlns="http://www.w3.org/2000/svg" xmlns:xlink="http://www.w3.org/1999/xlink" x="0px" y="0px"
	 viewBox="0 0 350 350" style="enable-background:new 0 0 350 350;" xml:space="preserve">
<style type="text/css">
	.st0{fill:#13132D;}
	.st1{fill:#A5D6D7;}
	.st2{fill:#FF5D47;}
</style>
<path class="st0" d="M225.2,174.2l0.1-6.8c-0.1-0.9-0.2-1.7-0.4-2.5c-0.8-3.5-2.8-6.1-5.9-7.8c-3.3-1.7-7.8-2.5-13.5-2.1
	c-2.9,0.2-5.9,0.7-9.3,1.5c-5,1.2-9.4,2.3-13.3,3.4c-21.3,5.7-32.1,8.6-55.5-5.1l-7.1-0.1l-0.4,44l7.1,0.4l0,0c1.1,0,2,0.9,2,2
	l0,0.6c0.3-4,2.3-9.8,4.9-14.6c2.4-4.6,5.5-8.3,8.3-9.2c0.2-0.1,0.4-0.1,0.7-0.1c5.6,0,11.1-0.2,16.4-0.5
	c10.7-0.5,20.4-0.9,27.8,1.1c11.5,3.2,17.2,11.8,11.1,33.8c-0.2,0.9-1,1.6-2,1.6l-65.4-0.5c-1,0-1.9-0.8-2-1.8c-0.1,1-0.9,1.8-2,1.8
	l-16.3-0.1l-0.2,19.4l128.8,1.1l0.1-18.1l-12.6-0.1c-1.1,0-2-0.9-2-2L225.2,174.2z M229,165.5l2,0.1c0.2-5.1,0.9-9.7,1.8-13.2
	c1.3-5.3,3.5-8.6,6.1-8.5c2.1,0,3.8,2,5,5.4l1.5-2.4c0-0.1,0-0.2,0-0.4l0-5.8c0-1.1,0.9-2,2-2l20,0.2c1.1,0,2,0.9,2,2l0,5.8
	c0,1.1-0.9,2-2,2l-18.3-0.2c0,0.1-0.1,0.2-0.2,0.4l-3.5,5.7c0.8,4.3,1.3,9.7,1.2,15.5c-0.1,6.8-0.8,13-1.9,17.5
	c-1.3,5.3-3.5,8.6-6.1,8.5c-2.7,0-4.7-3.3-6-8.6c-0.7-3.1-1.2-6.8-1.5-11.1l-1.9,0l-0.3,35.4l12.6,0.1c1.1,0,2,0.9,2,2l-0.2,22.1
	c0,1.1-0.9,2-2,2l-132.8-1.1c-1.1,0-2-0.9-2-2l0.2-23.3c0-1.1,0.9-2,2-2l16.3,0.1l0.1-6.5l-7.2-0.4c-1.1,0-1.9-0.9-1.9-2l0,0
	l0.4-47.9c0-1.1,0.9-2,2-2l9.6,0.1c0.4,0,0.8,0.1,1.1,0.4c22.2,13.1,32.5,10.4,52.8,4.9c4.1-1.1,8.6-2.3,13.4-3.4
	c3.6-0.8,6.9-1.4,9.9-1.6c6.5-0.5,11.8,0.4,15.7,2.6c4.1,2.2,6.8,5.7,7.9,10.4C228.8,164.5,228.9,164.9,229,165.5L229,165.5z
	 M133,202.2l-0.1,7.3l61.8,0.5c4.6-18.1,0.3-25.1-8.7-27.6c-6.8-1.9-16.3-1.4-26.6-1c-5.3,0.2-10.9,0.5-16.3,0.5
	c-1.7,0.6-3.8,3.5-5.7,7.2C135,193.4,133.2,198.7,133,202.2L133,202.2z M234.9,167.8l0,6.2c0.2,4.9,0.7,9.2,1.4,12.5
	c0.8,3.4,1.6,5.5,2.1,5.5c0.6,0,1.4-2.1,2.2-5.5c1.1-4.2,1.8-10.1,1.8-16.6c0.1-6.5-0.5-12.4-1.5-16.6c-0.8-3.4-1.6-5.5-2.1-5.5
	c-0.6,0-1.4,2.1-2.2,5.5C235.7,157,235,162.1,234.9,167.8L234.9,167.8z M230.8,172.3c0-0.8,0-1.6,0-2.5l0-0.3l-1.6-0.1l0,2.8
	L230.8,172.3z M265.3,142.7l-16-0.1l0,1.8l16,0.1L265.3,142.7z M206.5,126.2l10,0.1c1.1,0,2,0.9,2,2l-0.2,20.1c0,1.1-0.9,2-2,2
	l-10-0.1c-1.1,0-2-0.9-2-2l0.2-20.1C204.5,127.1,205.4,126.2,206.5,126.2L206.5,126.2z M214.4,130.3l-6,0l-0.1,16.1l6,0L214.4,130.3
	z M212.2,168.2c3.2,0,6,1.3,8.1,3.4c2.1,2.1,3.3,5,3.3,8.1c0,3.1-1.3,6-3.4,8l0,0c-2.1,2.1-5,3.3-8.1,3.3c-3.1,0-6-1.3-8.1-3.4
	c-2.1-2.1-3.3-5-3.3-8.1c0-3.2,1.3-6,3.4-8.1l0,0l0,0l0,0C206.2,169.4,209.1,168.1,212.2,168.2L212.2,168.2z M217.5,174.4
	c-1.3-1.4-3.2-2.2-5.3-2.2c-2.1,0-3.9,0.8-5.3,2.1l0,0c-1.4,1.3-2.2,3.2-2.2,5.3c0,2.1,0.8,3.9,2.1,5.3c1.3,1.4,3.2,2.2,5.3,2.2
	s3.9-0.8,5.3-2.1c1.4-1.3,2.2-3.2,2.2-5.3C219.6,177.6,218.8,175.7,217.5,174.4L217.5,174.4z"/>
<path class="st1" d="M122.8,119.2c-0.8,0-1.5,0.4-1.9,1l-5.7,9.1c0,0.1-0.1,0.1-0.1,0.2c-1.6,3.3-0.9,7.2,1.7,9.8
	c3,3,7.6,3.4,11,0.9c3.4-2.4,4.6-7,2.7-10.7c0-0.1-0.1-0.1-0.1-0.2l-5.7-9.1C124.3,119.6,123.6,119.2,122.8,119.2z M125.7,136.2
	c-1.6,1.6-4.2,1.6-5.8,0c-1.2-1.2-1.6-3.1-0.8-4.6l3.8-6l3.8,6C127.3,133.1,126.9,135,125.7,136.2z"/>
<path class="st2" d="M104.5,153.8c-4-0.4-7.2-3.5-7.5-7.5c-0.1-1.1-1.1-2-2.2-2c-1.2,0-2.1,0.9-2.2,2c-0.4,4-3.5,7.2-7.5,7.5
	c-1.1,0.1-2,1.1-2,2.2c0,1.2,0.9,2.1,2,2.2c4,0.4,7.2,3.5,7.5,7.5c0.1,1.1,1.1,2,2.2,2c1.2,0,2.1-0.9,2.2-2c0.4-4,3.5-7.2,7.5-7.5
	c1.1-0.1,2-1.1,2-2.2C106.6,154.9,105.7,154,104.5,153.8z M94.8,159.3c-0.9-1.3-2-2.4-3.2-3.2c1.3-0.9,2.4-2,3.2-3.2
	c0.9,1.3,2,2.4,3.2,3.2C96.8,156.9,95.7,158,94.8,159.3z"/>
</svg>
