<?xml version="1.0" encoding="utf-8"?>
<!-- Generator: Adobe Illustrator 24.0.1, SVG Export Plug-In . SVG Version: 6.00 Build 0)  -->
<svg version="1.1" id="Layer_1" xmlns="http://www.w3.org/2000/svg" xmlns:xlink="http://www.w3.org/1999/xlink" x="0px" y="0px"
	 viewBox="0 0 677 502.2" style="enable-background:new 0 0 677 502.2;" xml:space="preserve">
<style type="text/css">
	.st0{fill:#15152E;}
	.st1{fill:#14142E;}
	.st2{fill:#FF5D47;}
	.st3{fill:#13132D;}
	.st4{fill:#171731;}
	.st5{fill:#25253D;}
	.st6{fill:#545466;}
	.st7{fill:#434258;}
	.st8{fill:#46455A;}
	.st9{fill:#4F4F63;}
	.st10{fill:#1A1A33;}
	.st11{fill:#39394F;}
	.st12{fill:#6F6F7F;}
	.st13{fill:#AFAFB8;}
	.st14{fill:#5F5F70;}
	.st15{fill:#9F9FAA;}
	.st16{fill:#7C7B89;}
	.st17{fill:#4B4B5F;}
	.st18{fill:#FFF7F3;}
	.st19{fill:#FFA396;}
	.st20{fill:#FFCDC5;}
	.st21{fill:#FFDAD6;}
	.st22{fill:#FFCFC8;}
	.st23{fill:#FF5F48;}
	.st24{fill:#A5D6D7;}
	.st25{fill:none;stroke:#FFF7F3;stroke-width:6.4;stroke-linecap:round;stroke-linejoin:round;stroke-miterlimit:10;}
	.st26{fill:none;stroke:#FF5D47;stroke-width:6.4;stroke-linecap:round;stroke-linejoin:round;stroke-miterlimit:10;}
	.st27{fill:#161630;}
	.st28{fill:#202038;}
	.st29{fill:#535367;}
	.st30{fill:#303047;}
	.st31{fill:#1B1B34;}
	.st32{fill:#434358;}
	.st33{fill:#575769;}
	.st34{fill:#505064;}
	.st35{fill:#5B5C6D;}
	.st36{fill:#48485D;}
	.st37{fill:#767684;}
	.st38{fill:#636374;}
	.st39{fill:#2E2E46;}
	.st40{fill:#6E6E7E;}
	.st41{fill:#E5E4E7;}
	.st42{fill:#666576;}
	.st43{fill:#5A5A6C;}
	.st44{fill:#656475;}
	.st45{fill:#424257;}
	.st46{fill:#636373;}
	.st47{fill:#AAAAB3;}
	.st48{fill:#545568;}
	.st49{fill:#59596B;}
	.st50{fill:#656575;}
	.st51{fill:#2C2D44;}
	.st52{fill:#4A4A5F;}
	.st53{fill:#616172;}
	.st54{fill:#37374E;}
	.st55{fill:#4C4D61;}
	.st56{fill:#5C5C6F;}
	.st57{fill:#3B3B51;}
	.st58{fill:#9494A0;}
	.st59{fill:#3B3A50;}
	.st60{fill:#828290;}
	.st61{fill:#4C4C60;}
	.st62{fill:#7D7D8B;}
	.st63{fill:#4B4C60;}
	.st64{fill:#3F3F54;}
	.st65{fill:#717180;}
	.st66{fill:#2D2D44;}
	.st67{fill:#36364C;}
	.st68{fill:#7B7B89;}
	.st69{fill:#7B7B88;}
	.st70{fill:#2E2F46;}
	.st71{fill:#737381;}
	.st72{fill:#A6A5AF;}
	.st73{fill:#47485C;}
	.st74{fill:#45455A;}
	.st75{fill:#5E5E6E;}
	.st76{fill:#4A4B5F;}
	.st77{fill:#37374D;}
	.st78{fill:#2A2B42;}
	.st79{fill:#616071;}
	.st80{fill:#2C2C44;}
	.st81{fill:#2F3047;}
	.st82{fill:#404055;}
	.st83{fill:#2E2E45;}
	.st84{fill:#2E2D45;}
	.st85{fill:#404056;}
	.st86{fill:#48495D;}
	.st87{fill:none;stroke:#FF5D47;stroke-width:9.7348;stroke-linecap:round;stroke-linejoin:round;stroke-miterlimit:10;}
	.st88{clip-path:url(#SVGID_2_);}
	.st89{fill:#FEFEFE;}
	.st90{fill:#C30034;}
	.st91{fill:#C71041;}
	.st92{fill:#D65375;}
	.st93{fill:#D96081;}
	.st94{fill:#D75779;}
	.st95{fill:#3E7300;}
	.st96{fill:#437607;}
	.st97{fill:#45780A;}
	.st98{fill:#46790B;}
	.st99{fill:#46780B;}
	.st100{fill:#437606;}
	.st101{fill:#447708;}
	.st102{fill:#417504;}
	.st103{fill:#447709;}
	.st104{fill:#427505;}
	.st105{fill:#F9FAF8;}
	.st106{fill:#407403;}
	.st107{fill:#427606;}
	.st108{fill:#457809;}
	.st109{fill:#457709;}
	.st110{fill:#4B7C12;}
	.st111{fill:#4A7B10;}
	.st112{fill:#487A0D;}
	.st113{fill:#487A0E;}
	.st114{fill:#497B0F;}
	.st115{fill:#47790C;}
	.st116{fill:#508019;}
	.st117{fill:#4E7E16;}
	.st118{fill:#4C7D12;}
	.st119{fill:#4F7F16;}
	.st120{fill:#568420;}
	.st121{fill:#55841F;}
	.st122{fill:#52811A;}
	.st123{fill:#618D2F;}
	.st124{fill:#F9FBF8;}
	.st125{fill:#5C8827;}
	.st126{fill:#638D31;}
	.st127{fill:#B2C79A;}
	.st128{fill:#EFF3EA;}
	.st129{fill:#3F7402;}
	.st130{fill:#3F7301;}
	.st131{fill:#EEF3E9;}
	.st132{fill:#52811B;}
	.st133{fill:#F2F5EE;}
	.st134{fill:#E2E9D8;}
	.st135{fill:#4D7D14;}
	.st136{fill:#5B8827;}
	.st137{fill:#5F8B2C;}
	.st138{fill:#5C8828;}
	.st139{fill:#D8E2CC;}
	.st140{fill:#5A8726;}
	.st141{fill:#4D7E15;}
	.st142{fill:#4B7C11;}
	.st143{fill:#54831E;}
	.st144{fill:#4D7E14;}
	.st145{fill:#588522;}
	.st146{fill:#F5F8F2;}
	.st147{fill:#5C8929;}
	.st148{fill:#5A8725;}
	.st149{fill:#417404;}
	.st150{fill:#5D892A;}
	.st151{fill:#53821C;}
	.st152{fill:#5E8A2A;}
	.st153{fill:#6B933B;}
	.st154{fill:#658F34;}
	.st155{fill:#578522;}
	.st156{fill:#5E8A2B;}
	.st157{fill:#598624;}
	.st158{fill:#608C2D;}
	.st159{fill:#F5F7F2;}
	.st160{fill:#6D943D;}
	.st161{fill:#4A7C10;}
	.st162{fill:#6A933A;}
	.st163{fill:#588623;}
	.st164{fill:#6A923A;}
	.st165{fill:#709742;}
	.st166{fill:#578421;}
	.st167{fill:#719844;}
	.st168{fill:#DC6B89;}
	.st169{fill:#5A8625;}
	.st170{fill:#6E953F;}
	.st171{fill:#638E31;}
	.st172{fill:#52821B;}
	.st173{fill:#3E7301;}
	.st174{fill:#6C943D;}
	.st175{fill:#DAE4CF;}
	.st176{fill:#508018;}
	.st177{fill:#B1C697;}
	.st178{fill:#F8FAF6;}
	.st179{fill:#FAFBF9;}
	.st180{fill:#E9EFE2;}
	.st181{fill:#ECF1E6;}
	.st182{fill:#427605;}
	.st183{fill:#F5F8F3;}
	.st184{fill:#FCFCFB;}
	.st185{fill:#6B943C;}
	.st186{fill:#E8EEE2;}
	.st187{fill:#EAF0E4;}
	.st188{fill:#E0E8D6;}
	.st189{fill:#F1F5ED;}
	.st190{fill:none;}
	.st191{fill:none;stroke:#FF5D47;stroke-width:6.209;stroke-linecap:round;stroke-linejoin:round;stroke-miterlimit:10;}
</style>
<path class="st0" d="M442.1,285.3c-0.6,8.6-1.1,17.1-5,24.7c-0.4,0.7-0.8,1.4-1.1,2.1c-1.6,3.5-0.6,7,2.5,8.3
	c3.3,1.4,6.7,0.8,10-0.3c0.7-0.2,1.5-0.6,2.2-0.9c0.6,0.7,0.3,1.4,0,2.1c-0.6,1.4-1.5,2.5-2.6,3.4c-4.1,3.4-10.6,2.9-14.3-1.1
	c-3.3-3.6-3.9-10-0.5-13.4c4.7-4.7,5.5-11.1,6.7-17.5c0.6-3.1,0.8-6.4,1.6-9.5C442.8,283.5,442.1,284.5,442.1,285.3z"/>
<path class="st23" d="M326.5,271.6c0-0.3-0.2-0.7-0.2-1c0.1,0.2,0.1,0.3,0.1,0.5c0,0.4,0,0.9,0.1,1.3c1.3,3.3,2.8,6.5,4,9.9
	c4.7,13.5,10.8,26.5,16.5,39.5c2.4,5.6,5.4,10.9,8.2,16.3c12.2,23.8,24.1,48,42.6,67.6c6.2,6.6,27.4,31.3,37.6,28.7
	c44.6-11.5,70.8-44.6,89.9-85.2c4-8.5,10.2-15.7,15.4-23.5c0.3-0.4,0.5-0.8,0.8-1.2c1-1.5,2-3,2.9-4.6c1-1.5,1.9-3,2.9-4.6
	c1-1.5,1.9-3.1,2.9-4.6c1-1.5,1.9-3.1,2.9-4.6s1.9-3.1,2.9-4.6c1-1.5,1.9-3.1,2.9-4.6s2-3,2.9-4.6s2-3,3-4.5c1-1.5,2-3,3-4.5
	c1-1.5,0.2,0.5,1.3-1c0.5-0.7,0,0.4-0.4,1.1c-4.6,8.1-1-0.8-0.7-1.1c0.6-0.8,0.7-2.4,0.7-3.4c0,0,0-1.4,0-2.9c0-1.7-0.1-4.6-0.1-4.6
	c-1.7,1.6-1,5-1.7,5.7c-2.6,2.9,0.3-2.7-1.9,0.5c-6.6,9.6-13,19.3-18.6,29.4c-5.7,10.2-13.1,19.2-18.9,29.3
	c-0.2,0.4-0.3,0.8-0.5,1.2c-0.1,0.1-0.2,0.3-0.3,0.4c0.3,0.1-0.1-0.2-0.1,0.1c0,0.4-0.2,0.1,0-0.2c0.1-0.2,0.3-0.4,0.4-0.6
	c0.1-0.4,0.2-0.7,0.3-1.1c0.1-0.7,0.3-1.3,0.5-1.9c1.7-6.4,3-12.9,2.9-19.6c-0.1-5.4,0-10.7,0-16.1c0-1.9,0.7-3.2,2.3-4.3
	c5.7-4.2,11.5-8.3,17-12.8c1.4-1.1,2.7-2.2,4-3.3c1.3-1.1,2.6-2.3,3.9-3.5c1.3-1.2,2.6-2.3,3.9-3.5c1.3-1.2,2.6-2.3,3.9-3.5
	c1.3-1.2,0.5,0.2,1.9-1c1.3-1.1-1.3,1.3,0.1,0.2c0.3-0.3,0.6-0.6,0.9-0.9l-0.4-5.5c-7.8,6.4-11,7.5-17.7,12.9
	c-7.2,5.8-14.5,11.5-21.6,17.4c-1.6,1.3-1.6,1.2-3.2-0.4c-7.2-6.9-15.7-9.2-25.4-7.1c-2.9,0.6-5.8,1.6-8.6,2.4
	c-7.1,1.9-13.6,5.1-19.7,9c-7.1,4.5-13.9,9.5-20.5,14.8c-3.4,2.8-6.6,5.7-9.7,8.8c-0.9,0.9-1.5,1-2.5,0.1c-2-1.9-4.3-3.4-6.4-5
	c-8.7-6.6-17.6-12.8-27.4-17.7c-4.7-2.3-9.6-3.9-14.8-4.2c-5.9-0.3-11.3,1.5-16.3,4.5c-1.6,1-1.6,1-2.8-0.4
	c-1.6-1.9-3.1-3.8-4.7-5.6c-3.7-4.4-6.9-9.1-10.8-13.3c-6.4-7.1-12.6-14.3-18.3-21.9c-1.8-2.4-3.4-4.5-5.4-6.8l-0.8,5.6
	c5.4,8.7,8.8,13.5,15.6,21.3c6.9,7.9,12.7,16.6,19.8,24.2c0.9,1,1.5,2.1,0.5,3.4c-2.4,3.2-3.3,7-4.7,10.7c-3.4,8.9-2.3,17.8,0,26.7
	c0.4,0.7,0.5,1.4,0.8,2.1c0.3,0.4,0.3,1,0.5,1.4c-0.3-0.2-0.2-0.6-0.4-0.9c-0.3-0.5-0.4-1-0.5-1.5c-5.4-11.2-11.3-22.2-16.3-33.6
	c-6-13.7-11.4-27.6-17.7-41.1c-0.7-1.6-1-3.3-1.7-4.9c-0.3-0.7-0.5-2-1.8-0.8"/>
<path class="st2" d="M443.8,343.6c0.7-0.9,1.3-0.7,2.1-0.6c3.5,0.3,5.6-1.5,5.9-5c0.1-0.8,0.2-1.4,0.8-2c1.6-1.5,2.9-3.3,4.9-4.3
	c2.2-1.2,3.6-3.3,5.7-4.6c5.5-3.4,10.1-7.9,15.5-11.5c2.5-1.7,5.2-3.3,8-4.5c3.2-1.4,6.3-3.2,9.3-4.9c1.6-0.9,3.1-1.4,4.9-1.4
	c1.6,0,3.3,0,4.9,0c2.2,0.1,2.8,0.7,2.9,3c0.3,4.4-0.8,8.7-2,12.8c-1.6,5.7-3.7,11.2-6.3,16.5c-2.3,4.7-4.1,9.6-6.7,14.2
	c-1.9,3.2-4.1,6.4-5.6,9.9c-0.5,1.2-1.6,2-2.3,3c-2.9,4.1-5.5,8.5-8.7,12.5c-4,4.9-8.1,9.7-13.3,13.5c-2.2,1.6-4.6,3-6.4,5
	c-0.2,0.2-0.4,0.4-0.6,0.5c-4,1.6-7.1,4.8-11,6.4c-3.6,1.6-6.8,3.8-10.2,5.6c-0.6,0.3-1.2,0.8-1.8,1.2c-1.6,1.2-3.1,1.6-5,0.5
	c-1.9-1.1-4.1-1.7-5.9-2.8c-2.4-1.6-4.7-3.4-7-5.2c-2.5-2-4.6-4.4-6.9-6.5c-2.3-2.1-4.4-4.2-6.6-6.4c-3-3.1-6-6.3-8.9-9.4
	c-0.2-0.2-0.4-0.4-0.6-0.6c-4.4-3.2-8-7.3-11.5-11.5c-0.9-1-1.9-1.9-2.7-3.1c-0.6-0.9-1.5-1.6-2.5-2.1c-1.5-0.7-2.5-1.8-2.8-3.7
	c-0.3-1.8-1.4-3.5-2-5.3c-0.2-0.6-1-1.4-0.1-2c0.7-0.5,1.4,0.2,2,0.5c0.7,0.4,1.4,0.9,2.1,1.2c0.7,0.3,1.4,0.3,2-0.3
	c0.6-0.6,0.2-1.2,0-1.8c-1.2-2.1-0.9-4.6-2-6.7c-0.3-0.6-0.2-1.4-0.2-2.1c0-4.6,0-9.3,0-13.9c0-0.6,0.1-1.3,0.1-1.9
	c0.3-4.2,3.7-5.6,6.8-6.8c2.1-0.8,4.6-0.9,6.9-1.2c3.4-0.5,6.2,1.2,8.8,2.9c3.5,2.3,6.9,4.5,10.7,6.2c4.8,2.1,9.6,4.5,13,8.7
	c0.8,1,2.5,1.5,2.5,2.7c0,1.2-1.6,1.8-2.5,2.7c-1.9,1.9-3.5,3.9-3.3,6.8c0.2,3.1,3.1,6.6,6.2,7.1c0.7,0.1,1.4,0.1,2.1-0.3
	c0.8-0.4,1.8-0.5,2.5-1c1.4-0.9,2.4-0.5,3.6,0.5c1.7,1.5,1.8,1.4,1.2,3.5c-0.7,2.6-0.1,5,0.3,7.5c0,0.3,0.3,0.5,0.6,0.5
	c0.4,0,0.7-0.3,0.8-0.6c0.4-1.9,1.6-3.4,2.3-5.2c0.4-1.1,1-1.6,2.2-1.6c3.1,0,4.8-1.5,5.6-4.5C446.9,350,446.9,346.4,443.8,343.6z"
	/>
<g>
	<path class="st3" d="M328.7,310.2c0,1.6,0,3.1,0,4.7c-0.1,21.9,3.1,43.7,8.9,64.8c2.6,9.3,5.7,18.4,9.6,27.2
		c9.9,22.7,24.3,41.8,45.1,55.6c11.1,7.4,23.3,12,36.5,13.6c18.4,2.2,35.7-1.7,51.9-10.4c20.4-11,35.8-27.2,48.5-46.2
		c11.4-17,19.5-35.5,25.5-55.1c2.5-8.2,4.5-16.6,6.1-25.1c1.5-8.2,2.7-16.6,3.6-25c0.8-8.3,1.6-16.8,1.5-25.2
		c-0.1-6.2-0.6-12.3-1-18.5c-0.7-9.1-2.2-18.1-4-26.9c-1.8-8.6-4.2-17.1-7.1-25.4c-3.5-10.1-7.8-19.9-13.1-29.2
		c-0.3-0.4-0.6-0.8-0.8-1.3c-0.4-1.2-1.1-1-2-0.6c-11.5,5.8-23.6,6.6-36,4.3c-8.7-1.6-17.3-3.6-25.6-6.7c-3.4-1.3-6.7-2.8-10.1-4.2
		c-0.3,0-0.5-0.2-0.7-0.2c-0.1-0.1-0.2-0.2-0.2-0.2c-0.1,0.1,0,0.1,0.1,0.2c0,0,0.1,0,0.3,0c0.3,0.2,0.4,0.4,0.6,0.7
		c6.9,5.5,14.2,10.2,22.3,13.6c5.4,2.2,10.8,4.7,16.6,5.9c2.3,0.5,4.6,0.9,6.9,1.4c0.3,0.3,0.3,0.6,0,0.9
		c-6.6,0.7-12.9-0.9-19.2-2.8c-14.4-4.3-26.8-12-37.9-22c-6.1-5.5-10.6-12.1-14.5-19.2c-0.6-1.2-1-2.4-1.2-3.7
		c-0.1-0.7,0.1-1.4,0.8-1.8c0.7-0.3,1.3-0.1,1.9,0.4c0.9,0.8,1.6,1.8,2.2,2.9c0.9,1.9,2.3,3.5,3.4,5.2c2.9,4.7,7,7.8,11.9,10
		c8.4,3.9,16.8,8,25.8,10.3c6.5,1.6,12.9,3.3,19.6,4.2c10.3,1.4,20.3,0.2,29.7-4.4c3.9-1.9,7.7-3.9,11.5-6c2.2-1.2,4.4-2,6.8-2.6
		c0.9-0.2,1.3,0.2,0.9,1.1c-0.9,2-2.3,3.7-4,5.1c-1.8,1.4-3.6,2.7-5.5,4c-0.9,0.6-1,1.1-0.5,2.1c1.6,3,3.7,5.7,5.2,8.7
		c2.7,5.5,5.1,11.1,7.3,16.9c2.7,7.1,4.9,14.4,6.9,21.7c1.3,4.8,2.2,9.6,3.2,14.4c0.9,4.9,1.7,9.7,2.3,14.6
		c2.1,17.3,1.9,24.9,1.7,32.7c0,0.8-0.3,1.7,0.2,2.6c2.4-1.2,4.7-2.5,7.4-3.1c1.2-0.2,2.4-0.4,3.6-0.4c6.2-0.1,10.1,3.9,10,10.1
		c0,1.6-0.2,3.1-0.8,4.6c-2.8,7.6-7.8,13.2-15.4,16.4c-0.6,0.3-1.2,0.6-2,0.4c-0.3-1,0.6-1.4,1-1.9c2.6-3,5-6,7.1-9.3
		c1.3-2,2.4-4,3-6.3c0.4-1.4,0.6-2.9,0.4-4.4c-0.2-2-1.2-2.9-3.3-3c-1.2,0-2.4,0.3-3.6,0.7c-2.6,1-4.7,2.5-6.9,4.1
		c-1.3,1-1.9,2.2-1.9,3.8c0.2,10-2.2,19.6-3.6,29.4c-1.1,8.3-3.4,16.2-5.6,24.2c-2.6,9.3-5.9,18.4-9.7,27.3c-6.4,15-14.4,29-24.4,42
		c-9.8,12.7-21.2,23.9-34.7,32.7c-8,5.2-16.5,9.3-25.6,12.3c-13.2,4.4-26.7,5.2-40.3,3.3c-8.6-1.2-16.8-4-24.6-7.8
		c-16.9-8.2-30.3-20.5-41.4-35.5c-3.4-4.6-6.5-9.6-9.4-14.5c-3.9-6.7-7.4-13.7-10.6-20.7c-1.6-3.5-2.7-7.3-4-10.9
		c-1-2.7-2.2-5.5-3.2-8.2c-1.6-4-2.4-8.3-3.5-12.5c-1.4-5.7-2.5-11.5-3.3-17.4c-1.2-8.4-2.5-16.8-2.1-25.4c0-0.6,0-1.2-0.1-1.8
		c-1.2-7.5-0.6-15.1-0.6-22.6c0-2.6,0.3-5.2,0.3-7.8c0.1-2.4-2.5-4.8-4.8-4.6c-4.4,0.3-6.9,2.3-7.8,6.7c-1.2,5.8-0.2,11.2,3,16.2
		c1.4,2.1,2.9,4.1,4.4,6.1c0.3,0.5,0.9,0.8,0.8,1.7c-1.8,0.5-3.3-0.3-4.7-1.3c-3.1-2.1-5.7-4.9-7.5-8.2c-4.2-7.3-4.8-15-1-22.6
		c2.8-5.5,7.3-8.4,13.6-8.3c1.7,0,3.2,0.5,4.9,1.2c0.7-1,1.1-2.1,1.3-3.3c1.4-8.8,3-17.6,5.2-26.2c1.3-5.2,2.7-10.4,4.6-15.4
		c0.5-1.3,1.1-2.5,1.9-3.7c1.1-1.7,2.2-3.3,3.3-4.9c-0.3-0.8-1-0.7-1.5-0.8c-2.7-0.7-5.4-1.3-7.8-2.9c-1.6-1-2.9-2.2-3.5-4.1
		c-0.3-0.8-0.1-1.2,0.8-1.1c4.3,0.8,8.8,0.7,13,2.2c3.4,1.2,6.9,0.3,10.3,0c8.1-0.6,15.9-2.7,23.5-5.5c1.8-0.6,3.6-1.3,5.4-1.9
		c4-1.4,7.9-3.1,11.4-5.5c0.9-0.6,1.7-1.1,2.7-1.6c8.2-4.4,14.9-10.6,20.6-17.7c7.9-9.7,13.3-20.8,15.7-33.3
		c0.2-0.9,0.3-1.9,0.5-2.8c0.2-0.9,0.6-2,1.8-1.8c1.3,0.1,1.3,1.2,1.3,2.2c0,1.7-0.4,3.3-0.8,4.9c-2.8,10.8-7.1,21.1-13.7,30.2
		c-5.8,8-12.8,14.8-21,20.3c-1.6,1.1-3.4,1.8-4.6,3.4c-0.3,0.3-0.8,0.2-1.1,0.4c-1.4,1.1-3,2-4.6,2.8c-0.5,0.9-1.5,0.5-2.2,1
		c-1.1,0.7-2.3,1.3-3.6,1.6c-0.8,0.7-1.8,0.6-2.7,1c-10.1,4.6-20.7,7.6-31.9,8.5c-5.2,0.4-3.9-0.5-5.7,4.3c-2.2,5.9-4.2,11.9-5.7,18
		c-1.8,6.9-3.4,13.9-4.6,21c-0.6,3.7-1.2,7.4-1.7,11.1c-0.7,5-1.4,9.7-1.5,14.8C328.7,301.7,328.7,306,328.7,310.2z"/>
	<path class="st3" d="M586.5,125.7c3.4,0.2,6.4,0.6,9.3,1.4c1.5-4.4,0.7-8.4-1.6-12c-3.5-5.5-8.3-9.5-14.3-12
		c-4.2-1.7-8.5-1.2-12.8-0.8c-1.2,0.1-1.5,0.8-1.4,2c0.1,2.1,0.1,4.2-0.1,6.2c-0.2,2-0.8,3.9-1.7,5.7c-0.8,1.6-2.1,2.1-3.4,1.6
		c-1.2-0.5-1.9-1.7-1.6-3.2c2-10-0.5-19.6-2.4-29.3c-0.1-0.6-0.3-1.2-0.6-1.7c-4.7-10-10.1-19.6-19.7-25.9
		c-7.3-4.8-14.9-8.8-23.4-11c-8-2-15.6-1.6-22.9,2.5c-2,1.1-4,2.1-6,3.2C476,56.6,469.7,62.5,465,70c-0.1,0.2-0.3,0.4-0.4,0.6
		c0,0.1-0.1,0.1-0.4,0.2c-0.7-1.1-0.2-2.1,0.2-3.1c1.7-4.2,3.9-8,7.2-11.1c7-6.7,15.1-11.6,24.3-14.7c5.5-1.9,11.1-1.4,16.7-0.2
		C523.7,44.4,534,49,543.2,56c3.9,3,7.3,6.4,10,10.5c0.5,0.7,0.9,1.5,1.4,2.2c5.8,8.3,9.3,17.4,10.3,27.4c0,0.3,0.1,0.7,0.2,0.9
		c0.7,0.5,1.2,0.1,1.8,0c9.1-2.1,17.4-0.6,24.3,6.1c1.4,1.3,2.7,2.7,4,4.1c4.8,5.3,6.2,11.4,4.4,18.4c-0.7,2.6-0.6,2.6,1.8,3.7
		c3.7,1.7,7,3.8,9.9,6.7c3.7,3.7,5.7,8.2,5.8,13.5c0.3,12.9-3.9,24-13.1,33.1c-1.6,1.6-3.5,3-5.8,4.5c1,0.4,1.6,0.7,2.2,0.9
		c5.6,2.3,10.6,5.6,14.8,9.9c11.6,11.9,18.1,26.2,19.8,42.6c1.2,10.7-1.5,20.8-5.8,30.6c-4.6,10.3-11.9,18-21.1,24.2
		c-2.8,1.9-5.9,3.3-9,4.7c-0.9,0.4-2,0.8-3,0.4c-1-0.3-1.7-0.8-1.9-1.9c-0.2-1.1,0.4-1.8,1.3-2.3c1.9-1,3.8-2.1,5.7-3
		c5.6-2.7,10.4-6.6,14.4-11.4c8.8-10.6,13.1-22.9,13.6-36.6c0.2-3.7-0.5-7.4-1.3-11.1c-2.7-11.7-7.1-22.4-15.2-31.5
		c-6.9-7.8-15.5-12.3-25.7-13.9c-3.9-0.6-7.9-1.1-11.9-1c-1.3,0-3.4,0.2-3.5-1.3c-0.1-1.4,2.1-1.5,3.4-1.7c5-0.5,10.1-0.4,15,0.5
		c1.2,0.2,2.2,0,3.2-0.5c4.5-2.3,7.8-5.8,10.6-9.8c5.1-7.1,7.7-15.1,7.9-23.8c0.1-3.9-1.2-7.1-3.7-10c-3.3-3.7-7.3-6.4-11.6-8.6
		c-2.5-1.3-4.9-2.5-7.3-4C588.2,127.7,587.2,127.2,586.5,125.7z"/>
	<path class="st3" d="M284.7,128.8c-4.7-1.6-9.3-3.1-14.3-3.9c-5.1-0.8-10-0.1-14.8,1.8c-8.1,3.2-15.3,7.8-21.4,13.9
		c-4.4,4.4-7.9,9.5-9.2,15.7c-1.6,7.8-0.5,15.4,3.2,22.5c2.7,5.1,6,9.7,10,13.9c1.9,2,1.9,1.9,4.1,0.4c5-3.7,10-7.4,15.9-9.8
		c0.6-0.2,0.7,0.1,0.6,0.6c-1.9,1.9-4.1,3.5-6.2,5.1c-6.1,4.5-11.6,9.7-16.8,15.1c-7.4,7.6-11.2,17-13.3,27.2
		c-1.8,8.5-1.5,16.9,0.7,25.3c3.2,12.2,10.2,21.7,20.6,28.7c13.4,9.1,28.3,13.4,44.5,12.8c2.1-0.1,4.1,0,6.3,0
		c0.2,1-0.3,1.9-0.2,2.8c0.3,2.7-1.2,3.7-3.4,4.3c-5.8,1.6-11.6,1.9-17.5,1.5c-14.3-1.2-26.9-6.6-38-15.5
		c-11.7-9.5-18.6-21.9-20.4-37.1c-1.7-14,1.2-27.1,7.7-39.4c2.5-4.8,5.9-9,9.8-12.7c1.1-1.1,2.2-2.1,3.5-3.4
		c-4.7-2.8-8.1-7-11.6-10.8c-11-12-14.3-33.6-1.4-49c9.1-10.9,20.5-17.7,34.7-19.6c3.2-0.4,6.4-0.1,9.6,0.6c4.3,1,8.5,2.6,12.5,4.5
		c2.1,1,4.1,2.3,5.7,4.1C285.4,128.7,285.2,128.9,284.7,128.8z"/>
	<path class="st3" d="M279.5,122.6c-1.8-3.3-2.8-6.3-3.6-9.4c-2.1-8.3-1.7-16.7-0.3-25c1.1-6.8,3.1-13.3,5.5-19.7
		c3.5-9.2,8.9-16.9,16-23.7c13.5-12.6,29.5-18.5,47.7-18.7c11.2-0.1,22.4,0.8,33.3,3.3c16.2,3.7,29.6,12,40.4,24.6
		c0.5,0.6,0.9,1.5,1.8,1.8c0.8-1.5,1.4-3,2.3-4.3c5-7.9,12.2-11.3,21.4-10.3c7.3,0.8,12.7,5.6,14.5,12.7c1.4,5.6,1.2,11.4,0,17
		c-0.5,2.2-1.5,4.3-2.8,6.1c-0.5,0.8-1,1.7-2,1.9c-0.7-0.4-0.5-1.1-0.6-1.6c-0.4-4.8-0.6-9.7-1.3-14.5c-0.2-1.7-0.7-3.4-1.4-5
		c-2.3-6-6.5-8.6-12.8-7.6c-6.5,0.9-10.3,5.3-13.2,10.7c-0.5,0.9,0,1.5,0.4,2.1c1.5,2.4,2.9,4.7,4.1,7.2c0.9,1.9,1.6,3.9,1.5,6
		c0,0.7,0.3,1.7-0.6,2.1c-0.9,0.4-1.4-0.5-1.8-1.1c-2.7-3.3-5.2-6.7-7.5-10.3c-3.8-5.7-8.4-10.6-13.4-15.2
		c-9.4-8.7-20.5-14.1-33-16.6c-12.9-2.6-25.9-3.8-39.1-2.7c-10.5,0.9-20,4.3-28.8,10.3c-15.6,10.7-24,25.8-27.4,44
		c-2,10.8-1.8,21.6,0.2,32.3C279.4,120,279.6,121,279.5,122.6z"/>
	<path class="st27" d="M483.7,227.3c0-1.6-0.1-3.3,0-4.9c0.1-1.6,0.9-2.5,2.1-2.5c1,0,1.9,0.9,2,2.3c0.2,3.5,0.3,7.1-0.1,10.6
		c0,0.4-0.2,0.8-0.4,1.2c-0.3,0.7-0.8,1.2-1.5,1.2c-0.9,0-1.4-0.5-1.7-1.3c-0.3-0.7-0.4-1.5-0.4-2.3
		C483.6,230.2,483.6,228.7,483.7,227.3C483.6,227.3,483.7,227.3,483.7,227.3z"/>
	<path class="st4" d="M396.4,233.2c-0.2,1.7-0.3,3.5-0.5,5.2c-0.1,0.8-0.3,1.6-1.3,1.7c-0.9,0.1-1.5-0.6-1.7-1.4
		c-0.9-3.6-1.1-7.2-0.3-10.8c0.2-0.9,0.9-1.5,1.9-1.5c1,0,1.6,0.7,1.8,1.6C396.5,229.7,396.5,231.5,396.4,233.2z"/>
	<path class="st28" d="M571.4,315.1c0.2-2.5,1.1-4.7,2.6-6.6c0.6-0.7,1.4-1.1,2.3-0.5c0.8,0.5,0.8,1.3,0.4,2.1
		C575.4,312.2,573.7,313.9,571.4,315.1z"/>
	<path class="st5" d="M318.1,302.7c0,0.2,0,0.6-0.1,0.9c-0.2,0.7-0.6,0.8-1.1,0.4c-0.8-0.7-1.3-1.6-1.7-2.5
		c-0.3-0.8-0.2-1.6,0.7-1.9c0.9-0.4,1.5,0.1,1.9,0.8C318.1,301,318.1,301.8,318.1,302.7z"/>
	<path class="st29" d="M487.2,209.4c0.4,1.9-0.5,3.7-0.6,5.5c-0.6-1.9-0.4-3.7,0.1-5.5C486.9,209.1,487.1,209.1,487.2,209.4z"/>
	<path class="st30" d="M380,219.8c0.7-0.7,1.7-0.9,2.7-1c-0.6,0.5-0.8,1-0.4,1.8c0.3,0.6,0.5,1.2,0.8,1.8c-0.1,0.2-0.3,0.3-0.4,0
		c-0.7-0.4-0.8-1.1-1-1.7C381.4,219.7,380.7,219.7,380,219.8z"/>
	<path class="st9" d="M400.8,216.1c-0.4,1.6-0.6,3.3-1.6,4.7c0-1.7,0.3-3.3,1-4.8C400.4,215.9,400.6,215.9,400.8,216.1z"/>
	<path class="st32" d="M386.3,217.2c0.5-0.8,1.4-0.7,2.2-1c0,1.2,0,2.3,0,3.5c0.3,0.5,0,0.6-0.5,0.6c-0.1-0.7-0.2-1.4-0.2-2
		C387.8,217.1,387.1,217,386.3,217.2z"/>
	<path class="st33" d="M486.9,206.8c0-1.5,0.3-3,0.7-4.5c0.4,1.5,0.2,3-0.3,4.5C487.2,207,487,207,486.9,206.8z"/>
	<path class="st34" d="M393,213.4c0.2-0.6,0.7-0.4,1.1-0.4c0.1,1.4,0.1,2.7-0.1,4.1c-0.1,0.2-0.3,0.2-0.5,0
		C393.3,216,394.1,214.5,393,213.4z"/>
	<path class="st35" d="M408.6,214.6c-0.4,1.1-0.8,2.2-1.5,3.2c-0.2-0.1-0.3-0.3-0.4-0.5c0.3-1,0.6-2,1.4-2.7
		C408.3,214.3,408.5,214.3,408.6,214.6z"/>
	<path class="st36" d="M480,210.9c-0.5-1.2-0.7-2.4-0.6-3.6c0.2-0.2,0.3-0.2,0.5,0c0.2,1.2,0.4,2.4,0.6,3.6
		C480.3,211.2,480.2,211.2,480,210.9z"/>
	<path class="st37" d="M501.4,209.9c0.3-0.9,0.8-1.6,1.5-2.2c0.2,0.1,0.4,0.3,0.5,0.5c-0.4,0.8-0.8,1.6-1.5,2.1
		C501.7,210.3,501.5,210.2,501.4,209.9z"/>
	<path class="st36" d="M480,210.9c0.2,0,0.3,0,0.5,0c0.1,0.9,0.7,1.7,0.5,2.6c-0.2,0.2-0.3,0.2-0.5,0
		C480.1,212.7,479.9,211.9,480,210.9z"/>
	<path class="st38" d="M388,220.3c0.2-0.2,0.3-0.4,0.5-0.6c0.7,0.9,0.5,1.8,0.3,3.1C388.1,221.9,388.1,221,388,220.3z"/>
	<path class="st39" d="M499.4,213.5c0.3-0.8,0.6-1.6,1.3-2.1c0.2-0.2,0.3-0.2,0.4,0c-0.3,0.8-0.6,1.6-1.3,2.1
		C499.7,213.8,499.5,213.8,499.4,213.5z"/>
	<path class="st40" d="M474.8,217.1c-0.8-0.4-0.7-1.3-1-2c0.1-0.2,0.1-0.5,0.5-0.6c0.6,0.6,0.6,1.5,0.9,2.2
		C475.1,216.8,475,217,474.8,217.1z"/>
	<path class="st41" d="M535.7,78.7c-0.1,1.2-0.7,1.5-1.4,2C534.3,79.5,534.9,79.3,535.7,78.7z"/>
	<path class="st42" d="M472.8,210.9c0.6,0.4,0.7,1,0.8,1.6c-0.1,0.2-0.2,0.4-0.5,0.5c-0.6-0.6-0.9-1.3-1-2.2
		C472.4,210.7,472.6,210.7,472.8,210.9z"/>
	<path class="st43" d="M479.9,207.3l-0.2,0c0,0-0.2,0-0.2,0c-0.8-0.8-0.4-1.7-0.5-2.6c0.2-0.2,0.4-0.2,0.5,0
		C479.6,205.6,479.7,206.4,479.9,207.3z"/>
	<path class="st44" d="M406.5,219.2c-0.2,0.8-0.2,1.6-1,2c-0.2-0.1-0.3-0.2-0.4-0.4c0.2-0.6,0.2-1.3,0.8-1.6
		C406.2,219,406.4,219,406.5,219.2z"/>
	<path class="st45" d="M486.9,206.8c0.1,0,0.3,0,0.4,0c0.2,0.9,0.1,1.7-0.1,2.6c-0.2,0-0.3,0-0.5,0
		C486.6,208.5,486.7,207.6,486.9,206.8z"/>
	<path class="st46" d="M471.3,207.8c0.5,0.4,0.7,1,0.8,1.6c-0.2,0.3-0.4,0.3-0.6,0c-0.6-0.4-0.6-1-0.8-1.6
		C470.9,207.6,471.1,207.6,471.3,207.8z"/>
	<path class="st47" d="M401.9,209.4c0-0.5,0.2-1.1,0.6-0.9c0.8,0.4,0.3,0.9-0.1,1.4C402.2,209.9,402.1,209.6,401.9,209.4z"/>
	<path class="st48" d="M401.9,209.4c0.3,0,0.4,0.3,0.6,0.5c0,0.6-0.2,1.1-0.6,1.5c-0.2,0.2-0.3,0.2-0.5,0
		C401.6,210.8,401.8,210.1,401.9,209.4z"/>
	<path class="st49" d="M511.8,203.1c0-0.3,0-0.6,0-0.9c0.6-0.1,1.3,0.1,1.3,0.7C513,203.3,512.2,203.2,511.8,203.1z"/>
	<path class="st50" d="M494.6,206.2c0.2-0.8,0.2-1.6,0.9-2.2c0.1,0.1,0.1,0.1,0.2,0.2c0,0.7,0,1.4-0.6,2
		C495,206.5,494.8,206.5,494.6,206.2z"/>
	<path class="st51" d="M393.6,217.2c0.2,0,0.3,0,0.5,0c0.2,0.9,0.1,1.7-0.1,2.6c-0.1,0.2-0.3,0.3-0.4,0
		C393.4,218.9,393.5,218,393.6,217.2z"/>
	<path class="st52" d="M401.4,213c0.1,0.8,0,1.5-0.6,2.1c-0.2,0.2-0.3,0.2-0.5,0c0.2-0.7,0.4-1.4,0.6-2.1
		C401.1,212.8,401.3,212.8,401.4,213z"/>
	<path class="st53" d="M492.9,213.5c0,0.5-0.2,1-0.6,1.3c-0.3-0.9-0.3-0.9,0.2-1.9C492.7,213.1,492.8,213.2,492.9,213.5z"/>
	<path class="st30" d="M499.7,214c-0.2,0.6-0.3,1.1-1.2,1.5c0.2-0.7,0.1-1.2,0.8-1.5C499.4,213.8,499.5,213.8,499.7,214z"/>
	<path class="st54" d="M474.4,214.5c-0.2,0.2-0.3,0.4-0.5,0.6c-0.2-0.5-0.3-1-0.5-1.5c0.2-0.2,0.3-0.3,0.5,0
		C474.3,213.7,474.3,214.1,474.4,214.5z"/>
	<path class="st55" d="M503.4,208.3c-0.2-0.2-0.3-0.3-0.5-0.5c0.2-0.4,0.4-0.9,0.9-1.1c0.1,0.1,0.2,0.2,0.2,0.3
		C504.1,207.5,503.6,207.9,503.4,208.3z"/>
	<path class="st56" d="M258.7,183.9c-0.2-0.2-0.4-0.4-0.6-0.6c0.3-0.4,0.9-0.9,1.3-0.4C259.9,183.4,259.2,183.7,258.7,183.9z"/>
	<path class="st57" d="M493.1,210.9c0.2-0.5,0.3-1,0.5-1.6c0.2-0.2,0.3-0.2,0.5,0c0,0.6,0.1,1.2-0.5,1.6
		C493.4,211.2,493.3,211.2,493.1,210.9z"/>
	<path class="st58" d="M470,206.3c-0.1-0.1-0.1-0.1-0.2-0.2c-0.3-0.4-0.7-0.9-0.1-1.2c0.4-0.2,0.6,0.5,0.8,0.8
		C470.4,206,470.4,206.3,470,206.3z"/>
	<path class="st59" d="M493.1,210.9c0.2,0,0.3,0,0.5,0c0,0.6,0,1.2-0.5,1.6c-0.2,0.2-0.3,0.2-0.5,0
		C492.8,212,492.9,211.4,493.1,210.9z"/>
	<path class="st60" d="M383.7,223.4c0.1,0.1,0.1,0.1,0.2,0.2c0.3,0.3,0.6,0.9,0.2,1.1c-0.7,0.4-0.7-0.3-0.9-0.8
		C383.3,223.7,383.5,223.5,383.7,223.4z"/>
	<path class="st61" d="M494.6,206.2c0.2,0,0.4,0,0.5,0c0,0.6,0,1.2-0.5,1.6c-0.2,0.2-0.3,0.2-0.5,0
		C494.3,207.3,494.5,206.8,494.6,206.2z"/>
	<path class="st62" d="M470,206.3c0.2-0.2,0.4-0.4,0.5-0.6c0.1,0.4,0.3,0.7,0.4,1.1c-0.1,0.2-0.2,0.4-0.4,0.5
		C470.2,207.1,470.1,206.8,470,206.3z"/>
	<path class="st63" d="M401.4,213c-0.2,0-0.3,0-0.5,0c0.2-0.5,0.3-1,0.5-1.6c0.2,0,0.3,0,0.5,0C402,212,402,212.6,401.4,213z"/>
	<path class="st64" d="M494.2,207.8c0.2,0,0.3,0,0.5,0c0,0.6,0.1,1.2-0.5,1.6c-0.2,0-0.3,0-0.5,0C493.8,208.8,494,208.3,494.2,207.8
		z"/>
	<path class="st57" d="M406.7,217.2c0.1,0.2,0.3,0.3,0.4,0.5c0,0.4-0.1,0.8-0.5,1c-0.1,0.2-0.3,0.2-0.4,0
		C406.3,218.2,406.5,217.7,406.7,217.2z"/>
	<path class="st65" d="M505.5,205.2c-0.1,0.5-0.3,0.9-0.8,1.1c-0.2,0.2-0.4,0.2-0.6,0c0.1-0.5,0.4-0.9,0.9-1.1
		C505.1,205,505.3,205,505.5,205.2z"/>
	<path class="st9" d="M393.6,219.8c0.1,0,0.3,0,0.4,0c0,0.2,0.1,0.3,0.1,0.5c-0.1,0.3,0.2,0.9-0.4,0.8c-0.3,0-0.2-0.5-0.2-0.8
		C393.5,220.1,393.5,219.9,393.6,219.8z"/>
	<path class="st66" d="M471.6,209.4c0.2,0,0.4,0,0.6,0c0.1,0.3,0.3,0.7,0.4,1c-0.1,0.2-0.3,0.2-0.4,0
		C471.7,210.2,471.7,209.8,471.6,209.4z"/>
	<path class="st40" d="M284.7,128.8c0.2-0.2,0.4-0.4,0.6-0.6c0.4,0.2,0.7,0.5,0.3,0.9C285.3,129.3,284.9,129.1,284.7,128.8z"/>
	<path class="st67" d="M383.7,223.4c-0.2,0.2-0.3,0.3-0.5,0.5c-0.1-0.3-0.3-0.7-0.4-1c0.1-0.2,0.3-0.2,0.4,0
		C383.5,222.9,383.6,223.1,383.7,223.4z"/>
	<path class="st68" d="M481.2,214.5c0.3,0.2,0.4,0.7,0.2,0.8c-0.7,0.3-0.7-0.3-0.8-0.8C480.8,214.3,481,214.3,481.2,214.5z"/>
	<path class="st69" d="M479.4,204.7c-0.2,0-0.3,0-0.5,0c-0.3-0.2-0.5-0.7-0.3-0.8C479.3,203.6,479.3,204.2,479.4,204.7z"/>
	<path class="st70" d="M501.4,209.9c0.1,0.2,0.3,0.3,0.4,0.5c-0.1,0.3-0.2,0.5-0.5,0.5c-0.1,0.2-0.3,0.2-0.4,0
		C501.1,210.6,501.3,210.3,501.4,209.9z"/>
	<path class="st71" d="M408.3,214.1c0.1-0.2,0.1-0.3,0.2-0.5c0.2-0.2,0.3-0.8,0.7-0.5c0.4,0.3,0.1,0.7-0.3,1
		C408.6,214.2,408.5,214.2,408.3,214.1z"/>
	<path class="st72" d="M465.9,181.3c-0.5,0.1-0.7-0.4-1-0.6c-0.2-0.1-0.2-0.3-0.2-0.4c0-0.1,0.1-0.2,0.1-0.2
		c0.4,0.1,0.9,0.1,1.1,0.6C465.9,180.9,465.9,181.1,465.9,181.3z"/>
	<path class="st73" d="M481.2,214.5c-0.2,0-0.4,0-0.6,0c0-0.3-0.1-0.7-0.1-1c0.2,0,0.3,0,0.5,0C481.1,213.9,481.2,214.2,481.2,214.5
		z"/>
	<path class="st67" d="M473.9,213.5c-0.2,0-0.4,0-0.5,0c-0.1-0.1-0.2-0.3-0.2-0.5c0.2-0.2,0.3-0.4,0.5-0.5
		C473.7,212.9,473.8,213.2,473.9,213.5z"/>
	<path class="st74" d="M400.4,215.1c0.2,0,0.3,0,0.5,0c0,0.3-0.1,0.7-0.1,1c-0.2,0-0.3,0-0.5,0C400.3,215.8,400.4,215.4,400.4,215.1
		z"/>
	<path class="st11" d="M492.6,212.5c0.2,0,0.3,0,0.5,0c-0.1,0.3-0.1,0.7-0.2,1c-0.1-0.2-0.3-0.4-0.4-0.5
		C492.4,212.8,492.5,212.6,492.6,212.5z"/>
	<path class="st75" d="M495.5,204.1c0.1-0.3,0-0.8,0.4-0.6c0.3,0.1,0.2,0.6-0.2,0.8C495.7,204.2,495.6,204.1,495.5,204.1z"/>
	<path class="st76" d="M470.6,207.3c0.1-0.2,0.3-0.3,0.4-0.5c0.1,0.3,0.2,0.6,0.3,0.9c-0.2,0-0.4,0-0.6,0
		C470.6,207.7,470.6,207.5,470.6,207.3z"/>
	<path class="st77" d="M504,206.3c0.2,0,0.4,0,0.6,0c-0.1,0.3-0.2,0.6-0.6,0.7c0-0.1-0.1-0.2-0.2-0.2
		C503.8,206.5,503.9,206.4,504,206.3z"/>
	<path class="st78" d="M472.2,210.4c0.1,0,0.3,0,0.4,0c0.1,0.2,0.1,0.3,0.2,0.5c-0.2,0-0.4,0-0.6,0
		C472.2,210.7,472.2,210.6,472.2,210.4z"/>
	<path class="st79" d="M505.5,204.6c0.1-0.1,0.1-0.2,0.2-0.4c0.1,0.1,0.2,0.2,0.2,0.2C505.8,204.6,505.7,204.6,505.5,204.6
		C505.6,204.7,505.5,204.6,505.5,204.6z"/>
	<path class="st80" d="M499.7,214c-0.1,0-0.3,0-0.4,0c0.1-0.2,0.1-0.3,0.2-0.5c0.1,0,0.3,0,0.4,0C499.8,213.7,499.7,213.9,499.7,214
		z"/>
	<path class="st81" d="M383.2,222.9c-0.1,0-0.3,0-0.4,0c0-0.2-0.1-0.3-0.1-0.5c0.1,0,0.3,0,0.4,0
		C383.1,222.6,383.2,222.7,383.2,222.9z"/>
	<path class="st9" d="M405.2,220.9c0.1,0.1,0.2,0.3,0.4,0.4C405.1,221.4,405.1,221.2,405.2,220.9z"/>
	<path class="st82" d="M505.5,205.2c-0.2,0-0.4,0-0.6,0c0.1-0.3,0.2-0.6,0.6-0.6c0,0,0.1,0.1,0.1,0.1
		C505.6,204.9,505.6,205,505.5,205.2z"/>
	<path class="st83" d="M500.9,210.9c0.1,0,0.3,0,0.4,0c-0.1,0.2-0.1,0.3-0.2,0.5c-0.1,0-0.3,0-0.4,0
		C500.8,211.2,500.9,211.1,500.9,210.9z"/>
	<path class="st84" d="M406.2,218.7c0.1,0,0.3,0,0.4,0c0.1,0.2,0,0.3-0.1,0.5c-0.2,0-0.4,0-0.6,0C406,219.1,406.1,218.9,406.2,218.7
		z"/>
	<path class="st85" d="M408.3,214.1c0.2,0,0.4,0,0.6,0c-0.1,0.2-0.1,0.3-0.2,0.5l-0.2,0l-0.2,0C408.1,214.4,408.1,214.2,408.3,214.1
		z"/>
	<path class="st86" d="M474.8,217.1c0.1-0.1,0.3-0.2,0.4-0.4C475.3,217,475.2,217.2,474.8,217.1z"/>
	<path class="st22" d="M329,319.7l-0.2,0c0,0-0.2,0-0.2,0c0-0.2,0-0.6,0.1-0.7C329.1,319.1,329,319.5,329,319.7z"/>
	<path class="st43" d="M464.9,180.1c0,0.2,0,0.4,0,0.6c-0.4-0.1-0.9-0.3-0.7-0.8C464.3,179.6,464.7,179.7,464.9,180.1z"/>
</g>
<path class="st23" d="M38,157.2c-4-16.9-7.9-33.6-11.6-49.3c-0.5-1.5,0.4-3.1,2-3.6c1.5-0.4,3.1,0.5,3.6,2
	c4.5,15.4,9.5,32,14.5,48.6c9.6,31.6,19.2,63.3,27.7,94.8c12.4,2.1,27.8,7.9,44.1,13.9c4,1.5,8,3,12.1,4.5
	c16.8-7.1,32.9-14.9,44.9-20.7c10.4-5,17.7-8.5,20-8.9c1.6-0.2,3,0.9,3.3,2.4c0.2,1.6-0.9,3-2.5,3.3c-1.4,0.2-8.4,3.6-18.3,8.4
	c-10.7,5.2-24.6,11.9-39.5,18.3c32.9,11.5,65.9,18.9,80.4-4.3c0.8-1.3,2.6-1.7,3.9-0.9c1.4,0.9,1.8,2.6,0.9,4
	c-17.7,28.2-56.2,17.8-93,4.6c-24.6,10.2-50.4,18.6-67.1,17.2c-13.1-1.1-21.1-7.8-19.7-23.2c1.1-12.4,7.2-18,16.8-19.2
	C52.4,218.7,45.3,187.9,38,157.2L38,157.2z M75.7,255.9c0.8,3.2,1.5,6,1.7,8.4c0.3,4-0.7,6.8-4.1,7.6c-3.5,1-5.8-1.1-7.6-4.9
	c-1.2-2.8-2.2-6.5-3.3-10.6l0,0l0,0l0,0v-0.1l-0.4-1.4l0,0l0,0v-0.1c-7.2,0.9-11.9,4.9-12.6,13.9c-1,11.4,4.8,16.2,14.5,17.1
	c14.5,1.2,36.7-5.6,58.7-14.5c-2.1-0.8-4.2-1.5-6.3-2.4C101.3,263.5,87.2,258.2,75.7,255.9L75.7,255.9z M66.3,248.9
	c0.5,0,1.1,0,1.6,0.1c-4.3-15.8-8.9-31.8-13.6-47.7C58.2,217.3,62.1,233.1,66.3,248.9L66.3,248.9z M69.5,254.9
	c-0.4-0.1-0.8-0.1-1.2-0.1l-0.5-0.1v0.1l0.1,0.1v0.1l0,0c1,3.8,2,7.3,3,9.6c0.5,1.1,0.9,1.8,0.9,1.8c0.1,0-0.1-0.7-0.1-1.7
	c-0.2-2.3-1-5.5-2-9.1l0,0L69.5,254.9z"/>
<path class="st191" d="M210.6,278.8c11-8.2,16-21.2,24.7-31.4c13.7-16,34.4-19.5,54.2-15.6c16.2,3.2,26.5,11.5,33.1,26.6
	c7.1,16.1,14.2,32,21.7,47.9c7.1,15.2,14.3,30.3,21.4,45.5"/>
</svg>
