<?xml version="1.0" encoding="utf-8"?>
<!-- Generator: Adobe Illustrator 24.0.1, SVG Export Plug-In . SVG Version: 6.00 Build 0)  -->
<svg version="1.1" id="Layer_1" xmlns="http://www.w3.org/2000/svg" xmlns:xlink="http://www.w3.org/1999/xlink" x="0px" y="0px"
	 viewBox="0 0 350 350" style="enable-background:new 0 0 350 350;" xml:space="preserve">
<style type="text/css">
	.st0{fill:#13132D;}
	.st1{fill:#A5D6D7;}
	.st2{fill:#FF5D47;}
</style>
<path class="st0" d="M105.6,217.5h11.9c2.3,2.6,5.1,4.1,8.2,5c-3.5,4.3-3.5,10.5,0,14.7l10.7,13.1c4.1,5,11.4,5.7,16.4,1.7l9.2-7.5
	c4.8,0.5,9.7-0.9,13.4-4l16.5-13.4c2.6,3.9,7,6.3,11.8,6.3H228c3.7,0,7.3-1.5,10-4.1c2.6-2.7,4.1-6.2,4.1-10v-58.1
	c0-6.5-4.4-12.2-10.7-13.8v-6.6c-0.1-3.7-3.1-6.7-6.8-6.7h-1v-5.2h2.1c1.3,0,2.4-1,2.4-2.2v-14.7c0-1.3-1.2-2.2-2.4-2.2H206
	c-0.6,0-1.2,0.2-1.6,0.7c-0.4,0.4-0.7,1-0.7,1.6v5.4c-1.9-1.3-4-2.2-6.4-2.2l-16.9-0.2h0c-1.3,0-2.3,1.1-2.3,2.3
	c0,1.3,1,2.3,2.2,2.3l16.9,0.2c3.6,0.1,6.4,3,6.4,6.6c0,0.2,0,0.5,0.1,0.7c0.2,1.1,1.1,1.8,2.2,1.8h2v5.2h-0.9c-3.7,0-6.6,3-6.6,6.7
	v6.6c-6.2,1.5-11,7.1-11,13.8V178c-0.2-0.1-0.4-0.1-0.6-0.1c-1.8-0.2-3.7,0.4-5.1,1.5l-9.3,7.6c0-2.7-1-5.3-2.7-7.4
	c-0.7-0.9-1.7-1.4-2.9-1.5c-1.1-0.1-2.2,0.2-3.1,0.9l-2.3,1.8h0c1.7-2.1,2.6-4.7,2.6-7.4c0-2.4-1.9-4.3-4.3-4.2h-33.2
	c-5.9,0-11.4,3.2-14.2,8.4h-8.8c-3.1,0-6,1.2-8.2,3.3c-2.2,2.2-3.4,5.1-3.4,8.2v16.9c0,3.1,1.2,6,3.4,8.2
	C99.5,216.3,102.5,217.5,105.6,217.5z M228,228.8h-24.3c-3.4,0-6.5-1.8-8.2-4.6l3.5-2.8h16.9c0.6,0,1.2-0.2,1.6-0.7
	c0.4-0.4,0.6-1,0.6-1.6v-36.2l0.2,0c1.3,0.4,2.6,0.6,4,0.6c2.3,0,4.6-0.5,6.6-1.6c2.2-1.1,4.8-1.4,7.1-0.7l1.6,0.4v37.6
	c0,2.5-1,5-2.8,6.8C232.9,227.8,230.5,228.8,228,228.8z M205.9,206.7c-0.5-0.6-1.2-1.2-1.9-1.6l2.2-1.8c1.8-1.5,2.8-3.7,2.5-6
	c-0.2-2.3-1.6-4.4-3.6-5.5c2.1-2.8,1.7-6.8-0.8-9.2c-2.5-2.4-6.5-2.6-9.2-0.3l-0.4,0.3c-0.2-0.5-0.4-1-0.8-1.5v-12.6h19.5v48.4h-9
	l0.4-0.3C207.9,214.1,208.4,209.7,205.9,206.7z M208.3,114.2h15.3v10.1h-15.3V114.2z M212.5,128.8h6.5v5.2h-6.5V128.8z M207.1,138.6
	h17.5c1.2,0,2.2,1,2.2,2.1v6.3H205v-6.3C205,139.6,205.9,138.6,207.1,138.6z M203.7,151.6H228c2.5,0,5,1,6.7,2.8
	c1.8,1.8,2.8,4.2,2.8,6.8v15.8l-0.4-0.1c-3.5-1-7.2-0.6-10.4,1.1c-2.2,1.2-4.9,1.4-7.3,0.7l-1.4-0.4v-11.9c0-1.3-0.9-2.4-2.2-2.4
	H194v-2.8C194,155.8,198.4,151.6,203.7,151.6z M169.9,188c-0.2,2-1.2,3.8-2.7,5l-8.6,7c-0.6,0.5-0.9,1.3-0.8,2.1
	c0.1,0.8,0.7,1.5,1.4,1.8c0.8,0.3,1.6,0.1,2.3-0.4l8.6-7l16.6-13.6c1-0.8,2.6-0.7,3.4,0.3c0.8,1,0.7,2.6-0.3,3.4l-21.6,17.6
	c-0.6,0.5-0.9,1.3-0.8,2.1c0.1,0.8,0.7,1.5,1.4,1.8c0.8,0.3,1.6,0.1,2.2-0.4l21.6-17.6l5.5-4.4c1-0.8,2.6-0.7,3.4,0.3
	c0.8,1,0.7,2.6-0.3,3.4l-3.6,3L192,197l-18,14.7c-0.6,0.5-1,1.3-0.8,2.1c0.1,0.8,0.7,1.5,1.4,1.8c0.8,0.3,1.6,0.1,2.3-0.4l23.2-18.9
	l0.3-0.2c0.7-0.6,1.6-0.7,2.4-0.4c0.8,0.3,1.4,1,1.5,1.9c0.1,0.9-0.2,1.7-0.9,2.3L197,205c-0.1,0.1-0.2,0.2-0.3,0.3
	c-0.2,0.1-0.4,0.3-0.6,0.4l-12.5,10.2c-0.6,0.5-0.9,1.3-0.8,2.1c0.1,0.8,0.7,1.5,1.4,1.8s1.6,0.1,2.3-0.4l12.5-10.2
	c1-0.8,2.6-0.7,3.4,0.3c0.8,1,0.7,2.6-0.3,3.4l-29.5,24c-3,2.4-6.8,3.5-10.6,2.9c-0.7-0.2-1.5,0-2.1,0.4l-10,8.1c-3,2.5-7.5,2-10-1
	l-10.7-13.1c-2.5-3-2-7.5,1-10l6.1-4.9c0,0,0.1-0.1,0.1-0.1l1.8-1.7c0.6-0.6,0.9-1.4,0.7-2.2c-1.1-4.4,0.5-9.1,4-12l25.5-20.8
	C169.5,184.2,170.1,186.1,169.9,188z M98.5,189.1c0-1.9,0.7-3.6,2-5c1.3-1.3,3.1-2,5-2h7c-0.3,1.2-0.4,2.3-0.4,3.5
	c0,5.2,2.1,10.3,5.8,14l1,0.9c0.9,0.9,2.3,0.9,3.2,0c0.9-0.9,0.9-2.3,0-3.2l-1-1c-2.9-2.9-4.5-6.8-4.5-10.9
	c0-6.5,5.3-11.8,11.8-11.8h32.9c-0.1,4.2-3.4,7.1-7.5,7.1h-13.5c-1.3,0-2.3,1.1-2.3,2.3c0,3.5-2.9,6.4-6.4,6.4c-1.3,0-2.3,1-2.3,2.3
	c0,0.6,0.2,1.2,0.7,1.6c0.4,0.4,1,0.6,1.6,0.6c5.2,0.1,9.7-3.6,10.7-8.7h15.3l-5.9,4.9h-4.4c-1.1,0-2,0.8-2.2,1.8
	c-0.2,1.1,0.3,2.1,1.3,2.6L140,200c-4.5,3.7-6.7,9.5-5.8,15.2l-0.8,0.7l-3.4,2.8c-6-0.3-11.5-4.9-12.9-10.8c-0.3-1.2-1.5-2-2.7-1.7
	c-0.6,0.1-1.1,0.5-1.4,1c-0.3,0.5-0.4,1.1-0.3,1.7c0.3,1.4,0.8,2.8,1.5,4h-8.6c-1.9,0-3.7-0.7-5-2c-1.3-1.3-2.1-3.1-2-5V189.1z"/>
<path class="st1" d="M177.1,150.9c3.4-3.4,4.2-8.5,2.1-12.7c0-0.1-0.1-0.2-0.1-0.2l-7.8-12.4c-0.4-0.7-1.2-1.1-2-1.1s-1.6,0.4-2,1.1
	l-7.8,12.4c0,0.1-0.1,0.2-0.1,0.2c-2.4,4.9-0.9,10.8,3.6,13.9C167.2,155.2,173.2,154.7,177.1,150.9L177.1,150.9z M164.7,147.5
	c-1.9-1.9-2.4-4.7-1.3-7.1l5.7-9.1l5.7,9.1c1.3,2.8,0.4,6.1-2.1,7.8C170.3,149.9,166.9,149.6,164.7,147.5L164.7,147.5z"/>
</svg>
