<?xml version="1.0" encoding="UTF-8" standalone="no"?><!DOCTYPE svg PUBLIC "-//W3C//DTD SVG 1.1//EN" "http://www.w3.org/Graphics/SVG/1.1/DTD/svg11.dtd"><svg width="100%" height="100%" viewBox="0 0 6713 1691" version="1.1" xmlns="http://www.w3.org/2000/svg" xmlns:xlink="http://www.w3.org/1999/xlink" xml:space="preserve" xmlns:serif="http://www.serif.com/" style="fill-rule:evenodd;clip-rule:evenodd;stroke-linejoin:round;stroke-miterlimit:2;"><path d="M1065.76,284.638c17.531,-3.125 34.464,-5.078 50.8,-5.859c16.336,-0.781 32.473,-1.172 48.41,-1.172c66.141,0 120.528,9.57 163.161,28.711c42.632,19.14 75.504,44.531 98.613,76.172c23.109,31.64 37.652,67.578 43.629,107.812c5.976,40.235 5.379,81.055 -1.793,122.461c-11.156,67.188 -34.067,130.274 -68.731,189.258c-34.664,58.984 -76.898,113.086 -126.703,162.305c-49.804,49.218 -104.59,93.359 -164.355,132.422c-59.766,39.062 -120.528,72.07 -182.285,99.023c-61.758,26.953 -122.121,47.852 -181.09,62.695c-58.969,14.844 -111.961,22.266 -158.977,22.266c-27.094,-0.781 -53.39,-5.078 -78.89,-12.891c-40.641,73.438 -75.106,142.188 -103.395,206.25c-28.289,64.063 -49.207,121.094 -62.754,171.094c-5.578,20.313 -14.543,31.055 -26.894,32.227c-12.352,1.171 -24.305,-4.297 -35.86,-16.407c-11.554,-12.109 -20.719,-29.297 -27.492,-51.562c-6.773,-22.266 -7.769,-47.07 -2.988,-74.414c8.765,-45.313 25.101,-97.071 49.008,-155.274c23.906,-58.203 52.992,-120.507 87.257,-186.914c-31.875,-38.281 -46.617,-83.593 -44.226,-135.937l1.195,2.344c-1.594,-15.625 4.781,-30.469 19.125,-44.532c14.344,-14.062 35.461,-26.953 63.352,-38.672c3.187,43.75 10.359,78.907 21.515,105.469c31.875,-57.031 65.743,-114.258 101.602,-171.68c35.859,-57.421 72.117,-113.476 108.773,-168.164c36.657,-54.687 72.914,-106.836 108.774,-156.445c35.859,-49.609 70.125,-94.726 102.797,-135.351c-47.813,25.781 -95.625,57.812 -143.438,96.093c-47.812,38.282 -94.031,79.883 -138.656,124.805c-44.625,44.922 -86.461,91.211 -125.508,138.867c-39.047,47.656 -73.312,93.945 -102.797,138.867c-29.484,44.922 -53.39,86.914 -71.719,125.977c-18.328,39.062 -28.687,72.266 -31.078,99.609c-1.593,14.063 -9.562,20.313 -23.906,18.75c-14.344,-1.562 -29.484,-8.398 -45.422,-20.508c-15.937,-12.109 -29.683,-28.71 -41.238,-49.804c-11.555,-21.094 -15.34,-43.75 -11.356,-67.969c1.594,-7.031 3.188,-14.258 4.782,-21.68c1.593,-7.422 4.383,-14.648 8.367,-21.679l0,1.172c24.703,-59.375 55.781,-118.165 93.234,-176.368c37.453,-58.203 79.489,-113.672 126.106,-166.406c46.617,-52.734 97.418,-101.953 152.402,-147.656c54.984,-45.703 112.359,-85.547 172.125,-119.531c59.766,-33.985 121.524,-61.329 185.274,-82.032c63.75,-20.703 128.296,-32.617 193.64,-35.742l-2.39,0Zm-9.563,101.953c-18.328,1.563 -37.254,4.688 -56.777,9.375c-19.524,4.688 -39.645,11.328 -60.364,19.922c11.157,5.469 22.512,13.281 34.067,23.438c11.554,10.156 21.316,21.679 29.285,34.57c7.969,12.891 13.348,26.367 16.137,40.43c2.789,14.062 0.597,28.125 -6.575,42.187c-39.843,42.969 -79.886,89.453 -120.128,139.453c-40.243,50 -79.688,101.563 -118.336,154.688c-38.649,53.125 -76.102,107.422 -112.36,162.89c-36.258,55.469 -70.324,110.157 -102.199,164.063c6.375,1.562 12.949,2.344 19.723,2.344l20.918,0c41.437,0 85.863,-7.032 133.277,-21.094c47.414,-14.063 95.426,-33.594 144.035,-58.594c48.61,-25 96.024,-55.078 142.242,-90.234c46.219,-35.156 88.453,-73.828 126.703,-116.016c38.25,-42.187 71.122,-87.305 98.614,-135.351c27.492,-48.047 46.816,-97.461 57.972,-148.243c3.188,-21.875 3.188,-45.898 0,-72.07c-3.187,-26.172 -13.148,-50.391 -29.882,-72.656c-16.735,-22.266 -42.036,-41.016 -75.903,-56.25c-33.867,-15.235 -80.683,-22.852 -140.449,-22.852Z" style="fill-rule:nonzero;"/><path d="M1662.22,1269.01c-22.312,26.563 -47.015,53.711 -74.109,81.445c-27.094,27.735 -55.781,52.93 -86.062,75.586c-30.282,22.657 -61.758,41.016 -94.43,55.079c-32.672,14.062 -64.945,20.312 -96.82,18.75c-18.329,-0.782 -33.868,-5.079 -46.618,-12.891c-12.75,-7.813 -22.511,-18.164 -29.285,-31.055c-6.773,-12.89 -10.957,-27.539 -12.551,-43.945c-1.593,-16.406 -0.796,-33.594 2.391,-51.563c5.578,-25.781 13.547,-50 23.906,-72.656c10.36,-22.656 22.512,-44.14 36.457,-64.453c13.946,-20.312 28.887,-40.234 44.825,-59.766c15.937,-19.531 32.671,-39.453 50.203,-59.765l28.687,-32.813l0,1.172l34.664,-39.844c6.375,-8.593 14.942,-16.406 25.699,-23.437c10.758,-7.031 27.692,-13.672 50.801,-19.922c-11.156,2.344 -20.32,4.102 -27.492,5.273c-7.172,1.172 -13.547,2.54 -19.125,4.102c-10.359,2.344 -20.719,4.688 -31.078,7.031c-10.359,2.344 -22.313,3.125 -35.859,2.344l-11.954,0c-21.515,26.563 -41.835,52.539 -60.96,77.93c-19.125,25.39 -37.055,49.414 -53.79,72.07l0,-1.172c-3.187,4.688 -8.765,5.86 -16.734,3.516c-7.969,-2.344 -15.539,-6.446 -22.711,-12.305c-7.172,-5.859 -12.949,-12.5 -17.332,-19.922c-4.383,-7.422 -4.183,-13.867 0.598,-19.336l0,1.172c23.109,-29.687 42.633,-55.664 58.57,-77.93c15.938,-22.265 30.281,-41.992 43.031,-59.179c-6.375,-13.281 -7.57,-28.906 -3.586,-46.875c3.985,-24.219 12.75,-45.703 26.297,-64.453c13.547,-18.75 29.485,-40.625 47.813,-65.625c7.172,-10.157 14.941,-21.485 23.308,-33.985c8.368,-12.5 16.934,-27.734 25.7,-45.703c11.156,6.25 22.312,12.695 33.468,19.336c11.157,6.641 20.918,14.453 29.285,23.438c8.368,8.984 14.543,19.336 18.528,31.054c3.984,11.719 4.781,25 2.39,39.844c-1.593,7.031 -3.585,14.648 -5.976,22.852c-2.391,8.203 -6.774,17.773 -13.149,28.711l-50.203,52.734c-3.984,4.687 -1.992,5.273 5.977,1.758c7.969,-3.516 19.523,-9.571 34.664,-18.164c15.141,-8.594 32.273,-18.75 51.398,-30.469c19.125,-11.719 37.852,-23.438 56.18,-35.156c18.328,-11.719 34.465,-22.657 48.41,-32.813c13.946,-10.156 23.707,-17.969 29.285,-23.437c4.782,0 10.758,2.343 17.93,7.031c7.172,4.687 14.145,9.961 20.918,15.82c6.773,5.86 12.75,11.328 17.93,16.406c5.179,5.079 8.168,8.399 8.965,9.961c6.375,13.282 6.375,29.102 0,47.461c-6.375,18.36 -16.934,38.477 -31.676,60.352c-14.742,21.875 -32.672,45.117 -53.789,69.726c-21.117,24.61 -43.231,49.805 -66.34,75.586c-13.547,14.063 -26.695,28.125 -39.445,42.188c-12.75,14.062 -25.5,28.516 -38.25,43.359c-9.563,10.938 -20.321,23.438 -32.274,37.5c-11.953,14.063 -23.508,28.321 -34.664,42.774c-11.156,14.453 -20.719,28.711 -28.687,42.773c-7.969,14.063 -12.75,25.781 -14.344,35.156c-1.594,4.688 2.39,7.032 11.953,7.032c8.766,0.781 20.32,-2.149 34.664,-8.789c14.344,-6.641 29.883,-16.016 46.617,-28.125c16.735,-12.11 33.867,-26.368 51.399,-42.774c17.531,-16.406 33.867,-34.375 49.007,-53.906l-1.195,0c20.719,-25 40.242,-49.609 58.57,-73.828c18.329,-24.219 33.071,-44.922 44.227,-62.11c3.984,-3.906 9.961,-4.492 17.93,-1.757c7.968,2.734 15.539,7.226 22.711,13.476c7.172,6.25 12.75,13.477 16.734,21.68c3.984,8.203 3.586,15.039 -1.195,20.508l1.195,-2.344l-43.031,58.594l-56.18,78.515l-2.391,1.172Z" style="fill-rule:nonzero;"/><path d="M2224.02,1001.83c-0.797,4.687 -3.785,8.398 -8.965,11.132c-5.179,2.735 -11.355,4.688 -18.527,5.86c-7.172,1.172 -14.543,1.758 -22.113,1.758c-7.57,0 -14.145,-1.172 -19.723,-3.516c11.156,7.031 21.516,15.234 31.078,24.609c9.563,9.375 17.532,19.727 23.907,31.055c6.375,11.328 10.558,22.852 12.55,34.57c1.993,11.719 0.598,23.047 -4.183,33.985c-3.188,5.469 -6.774,11.523 -10.758,18.164c-3.984,6.64 -7.969,13.476 -11.953,20.508c-8.766,14.843 -17.731,30.859 -26.895,48.047c-9.164,17.187 -17.73,33.984 -25.699,50.39c-7.969,16.406 -14.941,31.836 -20.918,46.289c-5.976,14.453 -9.762,26.758 -11.355,36.914c0,1.563 -0.598,2.735 -1.793,3.516c-1.196,0.781 -2.192,1.562 -2.989,2.344l8.368,0c23.906,-7.813 47.015,-20.703 69.328,-38.672c22.312,-17.969 44.027,-38.477 65.144,-61.524c21.117,-23.047 41.438,-47.656 60.961,-73.828c19.524,-26.172 38.051,-51.367 55.582,-75.586c6.375,-6.25 11.156,-11.718 14.344,-16.406c3.187,-4.687 6.375,-9.766 9.562,-15.234c3.188,-3.907 9.165,-4.883 17.93,-2.93c8.766,1.953 17.133,5.664 25.102,11.133c7.968,5.469 14.343,11.914 19.125,19.336c4.781,7.422 4.781,13.867 0,19.336l-34.664,46.875l0,1.172c-34.266,46.093 -69.926,91.601 -106.981,136.523c-37.055,44.922 -78.293,85.352 -123.715,121.289c-7.172,6.25 -16.136,13.086 -26.894,20.508c-10.758,7.422 -22.711,14.453 -35.86,21.094c-13.148,6.64 -27.293,12.109 -42.433,16.406c-15.141,4.297 -30.68,6.055 -46.617,5.273c-38.25,-3.125 -65.145,-16.406 -80.684,-39.843c-15.539,-23.438 -21.316,-52.735 -17.332,-87.891c-35.859,32.812 -72.117,61.133 -108.773,84.961c-36.657,23.828 -71.719,36.133 -105.188,36.914c-30.281,-3.125 -54.387,-11.524 -72.316,-25.195c-17.93,-13.672 -31.278,-29.883 -40.043,-48.633c-8.766,-18.75 -13.746,-38.867 -14.942,-60.352c-1.195,-21.484 -0.597,-41.601 1.793,-60.351c3.188,-17.188 6.774,-31.25 10.758,-42.188c7.969,-28.906 21.117,-60.547 39.445,-94.922c18.329,-34.375 40.243,-68.75 65.743,-103.125c25.5,-34.375 53.589,-67.578 84.269,-99.609c30.68,-32.031 63.152,-60.547 97.418,-85.547c34.266,-25 69.129,-44.922 104.59,-59.766c35.461,-14.843 70.723,-22.265 105.785,-22.265c10.359,0 20.32,0.781 29.883,2.344c9.562,1.562 19.922,3.906 31.078,7.031c19.125,6.25 33.668,16.211 43.629,29.883c9.961,13.671 16.734,29.687 20.32,48.046c3.586,18.36 4.781,37.891 3.586,58.594c-1.195,20.703 -4.183,41.211 -8.965,61.524Zm-139.851,0c7.969,-3.907 17.332,-4.688 28.09,-2.344c10.757,2.344 21.714,6.641 32.871,12.891c-3.985,-3.907 -5.18,-8.204 -3.586,-12.891l1.195,-17.578c0.797,-7.813 1.195,-16.016 1.195,-24.61c0,-8.593 -1.195,-16.601 -3.586,-24.023c-2.39,-7.422 -6.375,-13.477 -11.953,-18.164c-5.578,-4.688 -13.148,-7.422 -22.711,-8.203c-29.484,-0.781 -59.765,9.57 -90.843,31.054c-31.078,21.485 -60.961,48.633 -89.649,81.446c-28.687,32.812 -54.785,67.969 -78.293,105.469c-23.508,37.5 -42.035,71.484 -55.582,101.953c-3.984,8.593 -7.969,19.336 -11.953,32.226c-3.984,12.891 -6.773,25.586 -8.367,38.086c-1.594,8.594 -2.391,16.797 -2.391,24.61c0,7.812 1.793,14.453 5.379,19.921c3.586,5.469 8.965,8.985 16.137,10.547c7.172,1.563 17.133,0.782 29.883,-2.343c11.953,-3.125 27.093,-12.11 45.422,-26.954c18.328,-14.843 37.652,-32.226 57.972,-52.148c20.321,-19.922 40.242,-41.211 59.766,-63.867c19.523,-22.656 36.058,-42.969 49.605,-60.938c11.953,-23.437 22.91,-46.289 32.871,-68.554c9.961,-22.266 16.934,-41.211 20.918,-56.836l-2.39,-18.75Z" style="fill-rule:nonzero;"/><path d="M2910.13,1001.83c-0.797,4.687 -3.785,8.398 -8.965,11.132c-5.18,2.735 -11.356,4.688 -18.527,5.86c-7.172,1.172 -14.543,1.758 -22.114,1.758c-7.57,0 -14.144,-1.172 -19.722,-3.516c11.156,7.031 21.515,15.234 31.078,24.609c9.562,9.375 17.531,19.727 23.906,31.055c6.375,11.328 10.559,22.852 12.551,34.57c1.992,11.719 0.597,23.047 -4.184,33.985c-3.187,5.469 -6.773,11.523 -10.758,18.164c-3.984,6.64 -7.968,13.476 -11.953,20.508c-8.765,14.843 -17.73,30.859 -26.894,48.047c-9.164,17.187 -17.731,33.984 -25.7,50.39c-7.968,16.406 -14.941,31.836 -20.918,46.289c-5.976,14.453 -9.761,26.758 -11.355,36.914c0,1.563 -0.598,2.735 -1.793,3.516c-1.195,0.781 -2.191,1.562 -2.988,2.344l8.367,0c23.906,-7.813 47.016,-20.703 69.328,-38.672c22.313,-17.969 44.027,-38.477 65.145,-61.524c21.117,-23.047 41.437,-47.656 60.961,-73.828c19.523,-26.172 38.05,-51.367 55.582,-75.586c6.375,-6.25 11.156,-11.718 14.343,-16.406c3.188,-4.687 6.375,-9.766 9.563,-15.234c3.187,-3.907 9.164,-4.883 17.93,-2.93c8.765,1.953 17.132,5.664 25.101,11.133c7.969,5.469 14.344,11.914 19.125,19.336c4.781,7.422 4.781,13.867 0,19.336l-34.664,46.875l0,1.172c-34.266,46.093 -69.926,91.601 -106.98,136.523c-37.055,44.922 -78.293,85.352 -123.715,121.289c-7.172,6.25 -16.137,13.086 -26.895,20.508c-10.758,7.422 -22.711,14.453 -35.859,21.094c-13.149,6.64 -27.293,12.109 -42.434,16.406c-15.14,4.297 -30.679,6.055 -46.617,5.273c-38.25,-3.125 -65.145,-16.406 -80.684,-39.843c-15.539,-23.438 -21.316,-52.735 -17.332,-87.891c-35.859,32.812 -72.117,61.133 -108.773,84.961c-36.656,23.828 -71.719,36.133 -105.188,36.914c-30.281,-3.125 -54.386,-11.524 -72.316,-25.195c-17.93,-13.672 -31.277,-29.883 -40.043,-48.633c-8.766,-18.75 -13.746,-38.867 -14.941,-60.352c-1.196,-21.484 -0.598,-41.601 1.793,-60.351c3.187,-17.188 6.773,-31.25 10.757,-42.188c7.969,-28.906 21.118,-60.547 39.446,-94.922c18.328,-34.375 40.242,-68.75 65.742,-103.125c25.5,-34.375 53.59,-67.578 84.269,-99.609c30.68,-32.031 63.153,-60.547 97.418,-85.547c34.266,-25 69.129,-44.922 104.59,-59.766c35.461,-14.843 70.723,-22.265 105.785,-22.265c10.36,0 20.321,0.781 29.883,2.344c9.563,1.562 19.922,3.906 31.078,7.031c19.125,6.25 33.668,16.211 43.629,29.883c9.961,13.671 16.735,29.687 20.321,48.046c3.586,18.36 4.781,37.891 3.586,58.594c-1.196,20.703 -4.184,41.211 -8.965,61.524Zm-139.852,0c7.969,-3.907 17.332,-4.688 28.09,-2.344c10.758,2.344 21.715,6.641 32.871,12.891c-3.984,-3.907 -5.18,-8.204 -3.586,-12.891l1.195,-17.578c0.797,-7.813 1.196,-16.016 1.196,-24.61c0,-8.593 -1.196,-16.601 -3.586,-24.023c-2.391,-7.422 -6.375,-13.477 -11.953,-18.164c-5.578,-4.688 -13.149,-7.422 -22.711,-8.203c-29.485,-0.781 -59.766,9.57 -90.844,31.054c-31.078,21.485 -60.961,48.633 -89.648,81.446c-28.688,32.812 -54.786,67.969 -78.293,105.469c-23.508,37.5 -42.036,71.484 -55.582,101.953c-3.985,8.593 -7.969,19.336 -11.954,32.226c-3.984,12.891 -6.773,25.586 -8.367,38.086c-1.593,8.594 -2.39,16.797 -2.39,24.61c0,7.812 1.793,14.453 5.379,19.921c3.585,5.469 8.964,8.985 16.136,10.547c7.172,1.563 17.133,0.782 29.883,-2.343c11.953,-3.125 27.094,-12.11 45.422,-26.954c18.328,-14.843 37.652,-32.226 57.973,-52.148c20.32,-19.922 40.242,-41.211 59.765,-63.867c19.524,-22.656 36.059,-42.969 49.606,-60.938c11.953,-23.437 22.91,-46.289 32.871,-68.554c9.961,-22.266 16.933,-41.211 20.918,-56.836l-2.391,-18.75Z" style="fill-rule:nonzero;"/><path d="M6196.98,1288.2c21.603,-11.624 66.274,42.739 45.368,69.453c-20.906,26.713 -42.587,50.717 -65.042,72.01c-22.454,21.294 -45.684,38.328 -69.687,51.104c-24.004,12.776 -48.781,18.39 -74.333,16.842c-27.875,-2.323 -49.75,-20.132 -65.623,-53.428c-15.873,-33.295 -27.681,-74.333 -35.424,-123.114c-58.073,41.038 -115.953,78.011 -173.638,110.919c-57.686,32.908 -114.017,59.428 -168.993,79.56c-11.614,6.969 -22.842,9.485 -33.682,7.549c-10.84,-1.935 -19.164,-6.581 -24.971,-13.937c-5.808,-7.356 -7.937,-16.454 -6.388,-27.294c1.548,-10.841 8.13,-21.294 19.744,-31.36c58.848,-27.1 120.018,-60.202 183.511,-99.304c63.493,-39.103 128.148,-82.658 193.963,-130.664c-1.548,-31.747 -2.71,-63.3 -3.484,-94.659c-0.774,-31.36 -0.993,-58.458 -1.161,-87.69c-0.411,-71.407 2.012,-135.744 32.52,-184.672c8.477,-13.594 20.132,-21.875 34.844,-33.102c14.712,-11.227 29.037,-16.841 42.974,-16.841c19.358,0 34.07,13.55 44.136,40.651c-0.775,102.983 -0.775,189.705 0,260.167c58.073,-48.007 113.823,-96.595 167.25,-145.763c53.427,-49.169 102.982,-97.369 148.666,-144.602l1.162,-2.323c10.066,-8.517 18.39,-10.066 24.971,-4.646c6.582,5.42 11.228,14.325 13.938,26.714c2.71,12.389 3.678,25.939 2.903,40.651c-0.774,14.712 -3.871,27.101 -9.291,37.167c-48.007,46.458 -101.241,96.207 -159.701,149.247c-58.46,53.04 -120.211,105.499 -185.253,157.378c5.421,88.27 16.648,132.793 33.683,133.567c6.969,0.775 14.905,-1.742 23.81,-7.549c8.904,-5.807 18.244,-13.93 29.036,-23.229c9.389,-8.09 24.267,-23.462 34.192,-28.802Z" style="fill-rule:nonzero;"/><path d="M4302.21,1614.93l302.078,-110.745c7.551,-2.714 15.818,-2.671 23.34,0.122c150.8,54.896 313.8,57.189 463.277,11.215c145.825,-44.851 278.678,-135.94 374.519,-269.254c116.217,-161.499 155.925,-354.979 126.223,-537.144c-29.557,-181.28 -128.218,-351.277 -288.933,-466.931c-62.514,-44.987 -129.894,-78.334 -199.513,-100.646c-71.977,-23.067 -146.396,-34.174 -220.377,-33.863c0,0 -1.561,0.007 -1.561,0.007c0,0 -735.489,4.741 -1633.82,6.659c-527.114,1.126 -1110.29,1.87 -1633.82,0.319c-197.258,-0.584 -386.046,-1.063 -560.165,-3.428c-362.044,-4.919 -660.482,-13.904 -840.249,-17.689c-19.849,-0.462 -39.412,2.745 -57.579,9.765c-18.379,7.101 -35.528,17.503 -50.077,31.351c-14.736,14.002 -26.613,30.462 -34.712,48.685c-8.197,18.442 -13.056,38.404 -13.581,58.97l-14.239,557.254c0,7.925 -6.434,14.359 -14.36,14.359c-7.925,0 -14.359,-6.434 -14.359,-14.359c0,0 -14.24,-557.254 -14.24,-557.254c-0.725,-28.394 4.513,-56.269 14.516,-82.275c10.088,-26.231 25.562,-50.29 45.297,-71.059c19.917,-20.925 43.751,-37.189 69.666,-48.658c26.12,-11.561 54.557,-17.653 83.668,-18.331c179.767,-3.784 478.205,-12.77 840.249,-17.689c174.119,-2.365 362.907,-2.844 560.165,-3.428c523.527,-1.551 1106.7,-0.807 1633.82,0.319c898.329,1.918 1633.82,6.659 1633.82,6.659c0,0 1.561,0.007 1.612,0.007c84.284,0.525 168.889,14.002 250.538,41.167c78.679,26.177 154.656,64.908 224.961,116.757c179.573,132.433 288.822,325.095 319.742,529.751c30.787,203.77 -15.741,419.35 -147.601,598.145c-107.952,146.234 -256.17,245.377 -418.219,292.982c-160.85,47.253 -335.224,43.945 -496.765,-14.33l-335.536,118.203c-21.279,6.914 -42.427,-8.492 -42.369,-30.867l14.243,-357.54c-102.741,-136.068 -157.385,-300.355 -159.578,-466.743c-2.186,-165.914 47.567,-333.896 153.626,-477.556c17.565,-23.791 36.207,-46.314 55.836,-67.531c20.027,-21.647 41.055,-41.954 62.979,-60.882c9.131,-7.986 23.027,-7.056 31.012,2.075c7.986,9.13 7.056,23.026 -2.074,31.012c-20.447,18.115 -40.031,37.52 -58.657,58.175c-18.244,20.231 -35.545,41.68 -51.814,64.312c-97.7,135.912 -142.538,293.888 -138.517,449.372c4.088,158.009 58.819,313.415 159.972,440.209c4.282,5.438 6.504,12.214 6.272,19.132l-8.716,321.219Z"/><path d="M6673.22,1642.94c-0.143,-38.474 -1.382,-136.493 -9.253,-265.891c-5.132,-84.379 -20.154,-180.275 -25.285,-283.683c-8.239,-166.033 -4.998,-347.15 -5.239,-510.626c-0.192,-129.917 1.818,-248.771 2.488,-340.42c0.656,-40.992 -15.082,-78.45 -41.489,-105.768c-26.847,-27.773 -64.097,-45.659 -105.769,-46.404l-1098.43,-21.901c-5.78,0 -10.474,-4.693 -10.474,-10.474c0,-5.781 4.694,-10.474 10.474,-10.474c0,0 1098.43,-21.9 1098.43,-21.9c60.266,-1.079 115.057,22.876 155.221,61.701c40.614,39.26 65.64,94.277 66.616,155.22c0.67,91.648 2.679,210.502 2.488,340.418c-0.242,163.476 3,344.594 -5.239,510.628c-5.131,103.409 -20.153,199.305 -25.286,283.685c-7.87,129.397 -9.109,227.416 -9.253,265.889l0.023,12.512c-0.002,0.529 -0.043,0.53 -0.045,0l0.022,-12.512Z"/><path d="M3155.16,855.341c-14.344,4.688 -26.098,4.688 -35.262,0c-9.164,-4.687 -14.941,-11.523 -17.332,-20.508c-2.391,-8.984 -0.996,-18.945 4.184,-29.882c5.179,-10.938 14.543,-20.703 28.089,-29.297c32.672,-20.313 64.747,-38.672 96.223,-55.078c31.477,-16.407 63.152,-31.25 95.027,-44.532c59.766,-101.562 104.79,-188.671 135.071,-261.328c12.75,-6.25 27.691,-6.054 44.824,0.586c17.133,6.641 32.672,16.992 46.617,31.055c13.945,14.062 24.504,30.273 31.676,48.633c7.172,18.359 7.172,36.133 0,53.32l-34.664,59.766c53.391,-9.375 105.984,-14.063 157.781,-14.063c7.969,0 18.328,0.195 31.078,0.586c12.75,0.391 23.11,0.977 31.078,1.758c1.594,11.719 0.2,24.414 -4.183,38.086c-4.383,13.672 -10.559,26.562 -18.528,38.672c-7.968,12.109 -16.933,22.461 -26.894,31.054c-9.961,8.594 -19.723,12.891 -29.285,12.891c-7.969,-0.781 -16.336,-1.367 -25.102,-1.758c-8.765,-0.39 -17.531,-0.586 -26.297,-0.586c-27.093,0 -54.586,1.563 -82.476,4.688c-27.891,3.125 -56.18,7.812 -84.867,14.062c-11.157,18.75 -22.512,37.11 -34.067,55.078c-11.555,17.969 -22.91,35.157 -34.066,51.563l-9.563,15.234c-9.562,14.844 -22.711,35.157 -39.445,60.938c-16.734,25.781 -34.863,54.492 -54.387,86.133c-19.523,31.64 -39.644,64.843 -60.363,99.609c-20.719,34.766 -39.844,68.359 -57.375,100.781c-17.531,32.422 -32.273,62.305 -44.227,89.649c-11.953,27.343 -19.125,49.218 -21.515,65.625l-3.586,9.375l8.367,0c23.109,-7.813 45.82,-20.508 68.133,-38.086c22.312,-17.578 43.828,-37.5 64.547,-59.766c20.718,-22.266 40.64,-46.094 59.765,-71.484c19.125,-25.391 37.453,-50.196 54.985,-74.414l-1.196,0c4.782,-7.032 9.961,-13.868 15.539,-20.508c5.579,-6.641 10.758,-13.086 15.54,-19.336c3.187,-4.688 8.765,-5.859 16.734,-3.516c7.969,2.344 15.738,6.25 23.308,11.719c7.571,5.469 13.547,11.914 17.93,19.336c4.383,7.422 4.981,13.867 1.793,19.336l-39.445,52.734c-32.672,44.532 -67.934,89.649 -105.785,135.352c-37.852,45.703 -77.895,85.742 -120.129,120.117c-7.172,6.25 -16.336,13.086 -27.492,20.508c-11.157,7.422 -23.508,14.258 -37.055,20.508c-13.547,6.25 -27.891,11.523 -43.031,15.82c-15.141,4.297 -30.282,6.445 -45.422,6.445c-17.531,-0.781 -31.875,-5.078 -43.031,-12.89c-11.157,-7.813 -19.723,-18.164 -25.7,-31.055c-5.976,-12.891 -9.562,-27.734 -10.758,-44.531c-1.195,-16.797 -0.199,-35.352 2.989,-55.664c1.594,-8.594 3.586,-17.774 5.976,-27.539c2.391,-9.766 5.18,-18.555 8.368,-26.368c12.75,-39.843 28.289,-79.687 46.617,-119.531c18.328,-39.844 38.25,-79.297 59.765,-118.359c21.516,-39.063 44.028,-77.735 67.535,-116.016c23.508,-38.281 47.215,-75.781 71.122,-112.5l15.539,-23.437l-80.086,39.843l-3.586,1.172Z" style="fill-rule:nonzero;"/><path d="M3700.14,581.023c0.63,-1.141 1.257,-2.279 1.882,-3.416c16.336,-29.688 31.477,-58.399 45.422,-86.133c13.945,-27.734 25.699,-53.32 35.262,-76.758c12.75,-6.25 27.691,-6.054 44.824,0.586c17.133,6.641 32.672,16.992 46.617,31.055c13.946,14.062 24.504,30.273 31.676,48.633c7.172,18.359 7.172,36.133 0,53.32c-5.578,11.719 -14.941,28.516 -28.09,50.391c-13.148,21.875 -28.09,46.289 -44.824,73.242c-16.734,26.953 -34.465,55.078 -53.191,84.375c-18.727,29.297 -36.856,57.226 -54.387,83.789l-15.539,23.437c33.469,-20.312 66.937,-36.132 100.406,-47.461c33.469,-11.328 64.148,-15.039 92.039,-11.132c24.703,3.906 44.824,11.328 60.363,22.265c15.539,10.938 27.293,24.61 35.262,41.016c7.969,16.406 12.352,34.57 13.149,54.492c0.796,19.922 -0.797,40.82 -4.782,62.695c-6.375,36.719 -17.133,71.875 -32.273,105.469c-22.313,48.438 -50.801,95.899 -85.465,142.383c-34.664,46.484 -72.516,88.477 -113.555,125.977c-41.039,37.5 -84.269,68.554 -129.691,93.164c-45.422,24.609 -90.047,39.257 -133.875,43.945c-27.891,-0.781 -51.598,-5.859 -71.121,-15.234c-19.524,-9.375 -34.863,-21.485 -46.02,-36.329l-5.976,23.438c-3.188,8.594 -11.555,12.5 -25.102,11.719c-13.547,-0.782 -27.691,-4.493 -42.433,-11.133c-14.743,-6.641 -27.891,-15.039 -39.446,-25.195c-11.554,-10.157 -16.933,-20.313 -16.136,-30.469c10.359,-47.656 25.3,-95.703 44.824,-144.141c19.523,-48.437 42.035,-96.875 67.535,-145.312c25.5,-48.438 52.992,-96.875 82.476,-145.313c29.485,-48.437 58.969,-96.484 88.454,-144.14l47.812,-75c6.356,-10.296 12.688,-20.662 18.995,-31.096c8.046,-0.277 16.059,-0.415 24.036,-0.415c8.573,0 17.145,0.191 25.718,0.573c8.524,0.38 16.661,0.949 24.41,1.709c0.423,0.041 0.847,0.062 1.271,0.062c12.271,0 25.008,-5.025 37.791,-16.053c10.832,-9.345 20.599,-20.587 29.265,-33.756c8.625,-13.105 15.307,-27.057 20.05,-41.854c5.041,-15.724 6.519,-30.338 4.686,-43.816c-0.813,-5.978 -5.626,-10.615 -11.631,-11.204c-8.193,-0.803 -18.842,-1.412 -31.95,-1.814c-12.914,-0.395 -23.406,-0.592 -31.477,-0.592c-2.419,0 -4.84,0.01 -7.261,0.031Zm-129.004,495.803c-18.329,28.906 -35.86,58.398 -52.594,88.476c-16.735,30.078 -32.672,60.352 -47.813,90.821c-1.593,6.25 -2.39,10.937 -2.39,14.062c-3.188,18.75 -2.59,36.133 1.793,52.148c4.382,16.016 16.535,24.805 36.457,26.368c17.531,1.562 37.851,-3.907 60.961,-16.407c23.109,-12.5 47.015,-29.492 71.718,-50.976c24.703,-21.485 49.407,-46.289 74.11,-74.414c24.703,-28.125 47.215,-56.446 67.535,-84.961c20.32,-28.516 37.254,-56.445 50.801,-83.789c13.547,-27.344 22.312,-51.172 26.297,-71.485c3.984,-24.218 -3.586,-36.718 -22.711,-37.5c-18.329,-0.781 -38.848,2.344 -61.559,9.375c-22.711,7.032 -45.82,17.188 -69.328,30.469c-23.508,13.281 -46.817,29.297 -69.926,48.047c-23.109,18.75 -44.226,38.672 -63.351,59.766Zm121.742,-482.69c4.85,-0.082 9.69,-0.123 14.523,-0.123c7.969,0 18.328,0.195 31.078,0.586c12.75,0.391 23.11,0.977 31.078,1.758c1.594,11.719 0.2,24.414 -4.183,38.086c-4.383,13.672 -10.559,26.562 -18.528,38.672c-7.968,12.109 -16.933,22.461 -26.894,31.054c-9.961,8.594 -19.723,12.891 -29.285,12.891c-7.969,-0.781 -16.336,-1.367 -25.102,-1.758c-8.765,-0.39 -17.531,-0.586 -26.297,-0.586c-5.339,0 -10.693,0.061 -16.061,0.183c9.192,-15.343 18.33,-30.832 27.417,-46.472c14.614,-25.153 28.699,-49.917 42.254,-74.291Z" style="fill-rule:nonzero;"/></svg>