0
SECTION
2
HEADER
9
$INSUNITS
70
4
9
$ACADVER
1
AC1014
9
$HANDSEED
5
FFFF
0
ENDSEC
0
SECTION
2
TABLES
0
TABLE
2
VPORT
5
8
100
AcDbSymbolTable
0
ENDTAB
0
TABLE
2
LTYPE
5
5
100
AcDbSymbolTable
0
LTYPE
5
14
100
AcDbSymbolTableRecord
100
AcDbLinetypeTableRecord
2
BYBLOCK
70
0
0
LTYPE
5
15
100
AcDbSymbolTableRecord
100
AcDbLinetypeTableRecord
2
BYLAYER
70
0
0
ENDTAB
0
TABLE
2
LAYER
5
2
100
AcDbSymbolTable
70
2
0
LAYER
5
50
100
AcDbSymbolTableRecord
100
AcDbLayerTableRecord
2
0
70
0
6
CONTINUOUS
0
ENDTAB
0
TABLE
2
STYLE
5
3
100
AcDbSymbolTable
70
1
0
STYLE
5
11
100
AcDbSymbolTableRecord
100
AcDbTextStyleTableRecord
2
STANDARD
70
0
0
ENDTAB
0
TABLE
2
VIEW
5
6
100
AcDbSymbolTable
70
0
0
ENDTAB
0
TABLE
2
UCS
5
7
100
AcDbSymbolTable
70
0
0
ENDTAB
0
TABLE
2
APPID
5
9
100
AcDbSymbolTable
70
2
0
APPID
5
12
100
AcDbSymbolTableRecord
100
AcDbRegAppTableRecord
2
ACAD
70
0
0
ENDTAB
0
TABLE
2
DIMSTYLE
5
A
100
AcDbSymbolTable
70
1
0
ENDTAB
0
TABLE
2
BLOCK_RECORD
5
1
100
AcDbSymbolTable
70
1
0
BLOCK_RECORD
5
1F
100
AcDbSymbolTableRecord
100
AcDbBlockTableRecord
2
*MODEL_SPACE
0
BLOCK_RECORD
5
1B
100
AcDbSymbolTableRecord
100
AcDbBlockTableRecord
2
*PAPER_SPACE
0
ENDTAB
0
ENDSEC
0
SECTION
2
BLOCKS
0
BLOCK
5
20
100
AcDbEntity
100
AcDbBlockBegin
2
*MODEL_SPACE
0
ENDBLK
5
21
100
AcDbEntity
100
AcDbBlockEnd
0
BLOCK
5
1C
100
AcDbEntity
100
AcDbBlockBegin
2
*PAPER_SPACE
0
ENDBLK
5
1D
100
AcDbEntity
100
AcDbBlockEnd
0
ENDSEC
0
SECTION
2
ENTITIES
0
LINE
5
100
100
AcDbEntity
8
0
100
AcDbLine
10
24.097301893144593
20
-58.671371726465665
30
0
11
-59.390297577739062
21
-52.743222951430582
31
0
0
LWPOLYLINE
5
101
100
AcDbEntity
8
0
100
AcDbPolyline
90
10
43
0.0
10
-59.39029757773906
20
-52.74322295143058
10
-59.13538243117785
20
-44.751189023117796
10
-59.019160077814135
20
-34.54411462479517
10
-58.96603088420162
20
-26.68969440564237
10
-58.94996453650295
20
-21.646576292835036
10
-58.944833836063616
20
-14.163002681804691
10
-58.991778862920725
20
6.414037910512864
10
-59.13911769914036
20
25.580883088409596
10
-59.347481609140594
20
37.03423919735547
10
-59.52720116784779
20
43.318361903867796
0
LWPOLYLINE
5
102
100
AcDbEntity
8
0
100
AcDbPolyline
90
11
43
0.0
10
-59.527201167847785
20
43.318361903867796
10
-53.63848513408268
20
45.960238723522416
10
-44.856732309040524
20
49.50287227580422
10
-26.436441952980736
20
55.604219417374566
10
-9.509963656992195
20
59.60467633492596
10
8.670881236655934
20
60.4088911601963
10
27.661266799795715
20
58.5828468335716
10
45.579816490608
20
52.75356732305181
10
64.4155707040781
20
42.142712371181304
10
73.12804854998406
20
35.15282443389684
10
79.00000117719173
20
29.000000432133675
0
LWPOLYLINE
5
103
100
AcDbEntity
8
0
100
AcDbPolyline
90
7
43
0.0
10
79.00000117719173
20
29.000000432133675
10
57.09794149211938
20
13.63679208650737
10
38.20014930315182
20
-6.884998076273369
10
29.997676938184537
20
-21.822620584598678
10
25.92990136819245
20
-34.65444802339104
10
23.90491738642922
20
-46.107173572265516
10
24.097301893144596
20
-58.671371726465665
0
ENDSEC
0
SECTION
2
OBJECTS
0
DICTIONARY
5
C
100
AcDbDictionary
3
ACAD_GROUP
350
D
3
ACAD_MLINESTYLE
350
17
0
DICTIONARY
5
D
100
AcDbDictionary
0
DICTIONARY
5
1A
330
C
100
AcDbDictionary
0
DICTIONARY
5
17
100
AcDbDictionary
0
ENDSEC
0
EOF
